G04 Layer: TopLayer*
G04 EasyEDA v6.4.25, 2021-11-13T19:12:50+01:00*
G04 31547cc466d84fccb4009b5d61a499b9,d3ae98efc0754b289f344a683f097ee4,10*
G04 Gerber Generator version 0.2*
G04 Scale: 100 percent, Rotated: No, Reflected: No *
G04 Dimensions in millimeters *
G04 leading zeros omitted , absolute positions ,4 integer and 5 decimal *
%FSLAX45Y45*%
%MOMM*%

%ADD10C,0.2540*%
%ADD11C,1.8000*%
%ADD12C,1.6510*%
%ADD13C,1.6000*%
%ADD15C,1.7000*%
%ADD16C,1.8796*%
%ADD17R,1.6000X0.9000*%
%ADD18R,1.2954X1.2954*%
%ADD19C,1.2954*%
%ADD20R,1.7000X1.7000*%
%ADD21C,5.5000*%
%ADD22C,0.9000*%

%LPD*%
G36*
X7731912Y3518611D02*
G01*
X7648854Y3518255D01*
X7539532Y3517392D01*
X7462875Y3516223D01*
X7436103Y3515512D01*
X7415682Y3514547D01*
X7400594Y3513429D01*
X7389774Y3512007D01*
X7382256Y3510330D01*
X7377023Y3508248D01*
X7370521Y3504437D01*
X7364933Y3500526D01*
X7359294Y3496106D01*
X7353706Y3491280D01*
X7348270Y3486150D01*
X7342987Y3480765D01*
X7338009Y3475278D01*
X7333437Y3469690D01*
X7329322Y3464204D01*
X7325817Y3458870D01*
X7322921Y3453739D01*
X7320584Y3448253D01*
X7319721Y3442817D01*
X7318908Y3433368D01*
X7318197Y3419957D01*
X7316978Y3381248D01*
X7316114Y3326841D01*
X7315504Y3256788D01*
X7315250Y3171240D01*
X7315200Y2836214D01*
X7328611Y2822854D01*
X7333386Y2818536D01*
X7338263Y2814777D01*
X7343241Y2811678D01*
X7348270Y2809189D01*
X7353350Y2807360D01*
X7358430Y2806141D01*
X7363510Y2805531D01*
X7368540Y2805531D01*
X7373467Y2806192D01*
X7378293Y2807411D01*
X7382967Y2809290D01*
X7387488Y2811780D01*
X7391857Y2814828D01*
X7395921Y2818536D01*
X7399781Y2822854D01*
X7403388Y2827731D01*
X7405420Y2831388D01*
X7406741Y2834894D01*
X7408265Y2841142D01*
X7409535Y2850032D01*
X7410602Y2862376D01*
X7411466Y2878988D01*
X7412177Y2900680D01*
X7413193Y2962605D01*
X7413955Y3054756D01*
X7415885Y3419094D01*
X7895945Y3419094D01*
X7895945Y2118918D01*
X7415530Y2118918D01*
X7415275Y2492705D01*
X7414768Y2563063D01*
X7413904Y2622245D01*
X7412837Y2668524D01*
X7411516Y2700020D01*
X7410348Y2712923D01*
X7408875Y2720187D01*
X7405725Y2731719D01*
X7401763Y2742336D01*
X7399426Y2747365D01*
X7396886Y2752191D01*
X7394143Y2756814D01*
X7391146Y2761284D01*
X7387945Y2765552D01*
X7380833Y2773629D01*
X7372705Y2781046D01*
X7368286Y2784551D01*
X7361021Y2789631D01*
X7356094Y2792628D01*
X7350963Y2795066D01*
X7345019Y2796946D01*
X7337552Y2798419D01*
X7327950Y2799588D01*
X7315555Y2800400D01*
X7299706Y2801061D01*
X7214463Y2802737D01*
X7184999Y2803042D01*
X7160869Y2802534D01*
X7150455Y2801823D01*
X7140956Y2800705D01*
X7132269Y2799181D01*
X7124192Y2797098D01*
X7116622Y2794457D01*
X7109409Y2791206D01*
X7102449Y2787243D01*
X7095591Y2782519D01*
X7088682Y2776931D01*
X7081621Y2770479D01*
X7074204Y2763113D01*
X7066330Y2754680D01*
X7048703Y2734564D01*
X7004964Y2682798D01*
X6966508Y2636621D01*
X6953046Y2620060D01*
X6945071Y2609900D01*
X6941159Y2603703D01*
X6938772Y2598521D01*
X6936994Y2593238D01*
X6935825Y2587802D01*
X6935266Y2582316D01*
X6935317Y2576830D01*
X6935978Y2571394D01*
X6937197Y2566162D01*
X6938975Y2561132D01*
X6941362Y2556357D01*
X6944309Y2551938D01*
X6947865Y2547874D01*
X6954215Y2542235D01*
X6960768Y2537714D01*
X6967474Y2534361D01*
X6974281Y2532227D01*
X6981190Y2531262D01*
X6988048Y2531516D01*
X6994956Y2532938D01*
X7001814Y2535580D01*
X7005116Y2537815D01*
X7009993Y2541981D01*
X7016292Y2547975D01*
X7028027Y2559862D01*
X7047026Y2580284D01*
X7068616Y2604465D01*
X7154672Y2705811D01*
X7262520Y2707741D01*
X7299858Y2707843D01*
X7308037Y2707640D01*
X7311085Y2707284D01*
X7311542Y2695854D01*
X7312761Y2615692D01*
X7314285Y2479294D01*
X7317841Y2089200D01*
X7332776Y2066747D01*
X7336840Y2061006D01*
X7341108Y2055774D01*
X7345781Y2050999D01*
X7350759Y2046528D01*
X7356195Y2042414D01*
X7362139Y2038553D01*
X7368641Y2034895D01*
X7375804Y2031441D01*
X7403896Y2018588D01*
X7920532Y2021535D01*
X7946085Y2037334D01*
X7952181Y2041347D01*
X7957972Y2045665D01*
X7963306Y2050186D01*
X7968284Y2055012D01*
X7972856Y2059990D01*
X7976971Y2065274D01*
X7980680Y2070709D01*
X7983931Y2076297D01*
X7996224Y2099513D01*
X7995970Y3071571D01*
X7995513Y3237230D01*
X7994650Y3339541D01*
X7993989Y3374796D01*
X7993176Y3401415D01*
X7992160Y3420821D01*
X7990941Y3434384D01*
X7989519Y3443579D01*
X7988046Y3449116D01*
X7987131Y3451606D01*
X7983626Y3458972D01*
X7980527Y3464407D01*
X7977124Y3469640D01*
X7973415Y3474618D01*
X7969402Y3479393D01*
X7965135Y3483965D01*
X7960614Y3488232D01*
X7955889Y3492246D01*
X7950911Y3496005D01*
X7945678Y3499510D01*
X7940294Y3502660D01*
X7934706Y3505555D01*
X7928965Y3508095D01*
X7923022Y3510330D01*
X7916976Y3512210D01*
X7909356Y3514039D01*
X7901635Y3515106D01*
X7890713Y3516020D01*
X7876438Y3516782D01*
X7858658Y3517442D01*
X7812125Y3518306D01*
G37*
G36*
X8192414Y3515614D02*
G01*
X8187283Y3515309D01*
X8182102Y3514699D01*
X8176920Y3513785D01*
X8171738Y3512515D01*
X8166557Y3510889D01*
X8161426Y3508908D01*
X8156295Y3506571D01*
X8151164Y3503879D01*
X8146135Y3500780D01*
X8142376Y3498037D01*
X8138871Y3494836D01*
X8135569Y3491229D01*
X8132572Y3487267D01*
X8129828Y3482949D01*
X8127339Y3478377D01*
X8125155Y3473500D01*
X8123224Y3468420D01*
X8121599Y3463137D01*
X8120278Y3457701D01*
X8119262Y3452114D01*
X8118551Y3446475D01*
X8118195Y3440734D01*
X8118144Y3434994D01*
X8118363Y3430879D01*
X8153653Y3430879D01*
X8153704Y3435858D01*
X8154314Y3440633D01*
X8155482Y3445256D01*
X8157209Y3449624D01*
X8159496Y3453637D01*
X8162290Y3457346D01*
X8165541Y3460597D01*
X8169351Y3463442D01*
X8173618Y3465728D01*
X8181238Y3468725D01*
X8188553Y3470605D01*
X8195614Y3471367D01*
X8202371Y3471062D01*
X8208772Y3469640D01*
X8214918Y3467100D01*
X8220659Y3463493D01*
X8226094Y3458819D01*
X8229853Y3454654D01*
X8232851Y3450336D01*
X8235137Y3445967D01*
X8236762Y3441547D01*
X8237778Y3437128D01*
X8238134Y3432708D01*
X8237880Y3428339D01*
X8237118Y3424072D01*
X8235848Y3419957D01*
X8234019Y3415944D01*
X8231733Y3412185D01*
X8229041Y3408629D01*
X8225942Y3405327D01*
X8222437Y3402329D01*
X8218576Y3399637D01*
X8214410Y3397351D01*
X8209940Y3395421D01*
X8205216Y3393948D01*
X8200237Y3392932D01*
X8195056Y3392474D01*
X8189722Y3392474D01*
X8184235Y3393084D01*
X8178647Y3394303D01*
X8172907Y3396183D01*
X8168944Y3398774D01*
X8164626Y3403295D01*
X8160562Y3409086D01*
X8157260Y3415537D01*
X8155431Y3420668D01*
X8154212Y3425799D01*
X8153653Y3430879D01*
X8118363Y3430879D01*
X8119059Y3423564D01*
X8120075Y3417976D01*
X8121396Y3412490D01*
X8123123Y3407156D01*
X8126222Y3399180D01*
X8126374Y3397046D01*
X8125358Y3395421D01*
X8122970Y3394252D01*
X8118906Y3393490D01*
X8112963Y3393033D01*
X8094472Y3392779D01*
X8059572Y3392779D01*
X8059572Y3350666D01*
X8270748Y3350666D01*
X8270748Y3371697D01*
X8270341Y3379876D01*
X8269325Y3386582D01*
X8267750Y3391103D01*
X8265871Y3392779D01*
X8264652Y3394405D01*
X8264855Y3398824D01*
X8266430Y3405428D01*
X8271103Y3418738D01*
X8272576Y3424021D01*
X8273643Y3429254D01*
X8274354Y3434384D01*
X8274710Y3439414D01*
X8274659Y3444392D01*
X8274303Y3449269D01*
X8273542Y3454044D01*
X8272525Y3458718D01*
X8271154Y3463239D01*
X8269528Y3467658D01*
X8267598Y3471926D01*
X8265363Y3476091D01*
X8262924Y3480054D01*
X8257235Y3487521D01*
X8254034Y3490976D01*
X8247024Y3497326D01*
X8239252Y3502812D01*
X8235086Y3505250D01*
X8226399Y3509416D01*
X8217153Y3512565D01*
X8212328Y3513734D01*
X8207451Y3514648D01*
X8202523Y3515258D01*
X8197494Y3515563D01*
G37*
G36*
X8270748Y3308807D02*
G01*
X8120278Y3305911D01*
X8120278Y3263798D01*
X8179663Y3261766D01*
X8190077Y3261106D01*
X8198916Y3260242D01*
X8206384Y3259124D01*
X8212480Y3257803D01*
X8217458Y3256229D01*
X8221370Y3254400D01*
X8224367Y3252215D01*
X8228075Y3247644D01*
X8230819Y3241700D01*
X8232648Y3234842D01*
X8233562Y3227578D01*
X8233409Y3220364D01*
X8232292Y3213760D01*
X8230108Y3208172D01*
X8226907Y3204108D01*
X8224520Y3202940D01*
X8220303Y3201771D01*
X8214512Y3200654D01*
X8199170Y3198723D01*
X8180324Y3197301D01*
X8120278Y3195370D01*
X8116976Y3149447D01*
X8191195Y3151835D01*
X8212175Y3152800D01*
X8220151Y3153410D01*
X8226755Y3154172D01*
X8232190Y3155137D01*
X8236762Y3156407D01*
X8240623Y3157931D01*
X8244078Y3159861D01*
X8247329Y3162249D01*
X8254238Y3168396D01*
X8259013Y3173425D01*
X8263128Y3178759D01*
X8266633Y3184398D01*
X8269427Y3190341D01*
X8271662Y3196437D01*
X8273186Y3202787D01*
X8274050Y3209290D01*
X8274253Y3215944D01*
X8273745Y3222701D01*
X8272576Y3229559D01*
X8270748Y3236417D01*
X8264956Y3252114D01*
X8263331Y3258820D01*
X8263432Y3263341D01*
X8267344Y3267811D01*
X8269122Y3272840D01*
X8270290Y3279851D01*
X8270748Y3288080D01*
G37*
G36*
X8070138Y3108502D02*
G01*
X8070138Y3061157D01*
X8149336Y3061157D01*
X8149336Y2972104D01*
X8072780Y2969006D01*
X8069529Y2924302D01*
X8270748Y2924302D01*
X8270748Y2971647D01*
X8191550Y2971647D01*
X8191550Y3061157D01*
X8270748Y3061157D01*
X8270748Y3108502D01*
G37*
G36*
X7091273Y3066186D02*
G01*
X7085787Y3065932D01*
X7080453Y3065272D01*
X7075373Y3064154D01*
X7070598Y3062630D01*
X7066280Y3060700D01*
X7061555Y3057093D01*
X7056577Y3051454D01*
X7051903Y3044545D01*
X7048195Y3037179D01*
X7043216Y3025394D01*
X7041997Y3021584D01*
X7041591Y3018383D01*
X7041997Y3015284D01*
X7043267Y3011627D01*
X7048246Y3000603D01*
X7050786Y2996133D01*
X7055256Y2989478D01*
X7069074Y2970885D01*
X7087717Y2947416D01*
X7109206Y2921660D01*
X7159752Y2862732D01*
X7171283Y2849880D01*
X7180732Y2839821D01*
X7188453Y2832252D01*
X7194956Y2826766D01*
X7197801Y2824683D01*
X7203033Y2821736D01*
X7207859Y2820060D01*
X7212736Y2819247D01*
X7217968Y2818993D01*
X7227062Y2819349D01*
X7232853Y2820365D01*
X7238288Y2821990D01*
X7243368Y2824175D01*
X7247991Y2826867D01*
X7252208Y2830068D01*
X7256018Y2833725D01*
X7259320Y2837738D01*
X7262164Y2842158D01*
X7264450Y2846832D01*
X7266279Y2851810D01*
X7267549Y2856992D01*
X7268260Y2862326D01*
X7268413Y2867863D01*
X7267956Y2873451D01*
X7266889Y2879090D01*
X7265162Y2884728D01*
X7262825Y2890316D01*
X7259777Y2895803D01*
X7256068Y2901188D01*
X7243978Y2916377D01*
X7226858Y2937357D01*
X7184847Y2987446D01*
X7145426Y3033420D01*
X7131456Y3049219D01*
X7123836Y3057194D01*
X7120585Y3059582D01*
X7116673Y3061614D01*
X7112203Y3063290D01*
X7107326Y3064611D01*
X7102144Y3065526D01*
X7096759Y3066084D01*
G37*
G36*
X6657086Y2980842D02*
G01*
X6651294Y2980436D01*
X6645452Y2979064D01*
X6639306Y2976880D01*
X6633565Y2973984D01*
X6628333Y2970428D01*
X6623608Y2966161D01*
X6619494Y2961436D01*
X6615938Y2956153D01*
X6613093Y2950565D01*
X6610908Y2944672D01*
X6609435Y2938526D01*
X6608775Y2932328D01*
X6608876Y2926029D01*
X6609842Y2919831D01*
X6611670Y2913735D01*
X6613601Y2910179D01*
X6617411Y2904591D01*
X6629755Y2888284D01*
X6647180Y2866745D01*
X6668008Y2841752D01*
X6696557Y2808478D01*
X6719468Y2782366D01*
X6740702Y2758795D01*
X6758686Y2739491D01*
X6765950Y2732074D01*
X6771843Y2726385D01*
X6776110Y2722676D01*
X6779920Y2720289D01*
X6784695Y2717952D01*
X6789978Y2716022D01*
X6796278Y2714396D01*
X6803948Y2713126D01*
X6813448Y2712110D01*
X6825284Y2711297D01*
X6857542Y2710078D01*
X6905142Y2709113D01*
X6949287Y2708859D01*
X6965035Y2709214D01*
X6977380Y2709926D01*
X6986930Y2711043D01*
X6994347Y2712618D01*
X7000240Y2714650D01*
X7002780Y2715869D01*
X7007453Y2718714D01*
X7011720Y2722168D01*
X7015530Y2726182D01*
X7018934Y2730703D01*
X7021830Y2735529D01*
X7024166Y2740710D01*
X7025995Y2746095D01*
X7027164Y2751531D01*
X7027722Y2757068D01*
X7027672Y2762554D01*
X7026859Y2767838D01*
X7025335Y2772968D01*
X7022134Y2780385D01*
X7020356Y2783636D01*
X7018375Y2786532D01*
X7016140Y2789123D01*
X7013600Y2791460D01*
X7010704Y2793492D01*
X7007352Y2795320D01*
X7003542Y2796895D01*
X6999173Y2798267D01*
X6994194Y2799384D01*
X6988606Y2800350D01*
X6975144Y2801823D01*
X6958380Y2802686D01*
X6937806Y2803093D01*
X6829856Y2803194D01*
X6752640Y2895600D01*
X6725158Y2927654D01*
X6713626Y2940456D01*
X6703415Y2951226D01*
X6694322Y2960116D01*
X6686194Y2967278D01*
X6678828Y2972765D01*
X6675424Y2974949D01*
X6668973Y2978200D01*
X6665874Y2979318D01*
X6662877Y2980131D01*
G37*
G36*
X8259114Y2810510D02*
G01*
X8251088Y2808224D01*
X8243722Y2804922D01*
X8239201Y2800756D01*
X8236966Y2794762D01*
X8236407Y2786024D01*
X8236458Y2769006D01*
X8154619Y2765907D01*
X8154619Y2784551D01*
X8154162Y2794762D01*
X8152180Y2800350D01*
X8147405Y2802737D01*
X8138769Y2803194D01*
X8130184Y2802737D01*
X8125409Y2800400D01*
X8123377Y2794965D01*
X8122462Y2775254D01*
X8120227Y2769616D01*
X8115096Y2766771D01*
X8100415Y2764790D01*
X8096250Y2763926D01*
X8093151Y2762656D01*
X8090916Y2760675D01*
X8089341Y2757779D01*
X8088325Y2753766D01*
X8087563Y2748381D01*
X8085378Y2718968D01*
X8165287Y2719070D01*
X8187131Y2719425D01*
X8205622Y2720187D01*
X8220964Y2721508D01*
X8227618Y2722372D01*
X8233562Y2723388D01*
X8238947Y2724607D01*
X8243773Y2725978D01*
X8248091Y2727553D01*
X8251901Y2729280D01*
X8255253Y2731262D01*
X8258251Y2733446D01*
X8260842Y2735884D01*
X8263128Y2738577D01*
X8265159Y2741472D01*
X8266938Y2744673D01*
X8268512Y2748127D01*
X8271459Y2755646D01*
X8273592Y2762554D01*
X8275015Y2768955D01*
X8275624Y2775102D01*
X8275574Y2781147D01*
X8274761Y2787192D01*
X8273186Y2793441D01*
X8270951Y2800045D01*
X8267801Y2806954D01*
X8264296Y2810256D01*
G37*
G36*
X8220405Y2682138D02*
G01*
X8200796Y2681782D01*
X8183930Y2680716D01*
X8176463Y2679852D01*
X8169605Y2678785D01*
X8163306Y2677515D01*
X8157565Y2675991D01*
X8152333Y2674213D01*
X8147507Y2672181D01*
X8143138Y2669895D01*
X8139175Y2667304D01*
X8135569Y2664460D01*
X8132318Y2661310D01*
X8129371Y2657856D01*
X8126628Y2654096D01*
X8124037Y2649270D01*
X8121853Y2643530D01*
X8120176Y2637078D01*
X8118906Y2630170D01*
X8118144Y2622905D01*
X8117840Y2615488D01*
X8117992Y2608072D01*
X8118602Y2600909D01*
X8119719Y2594152D01*
X8121294Y2587955D01*
X8123326Y2582519D01*
X8125866Y2578049D01*
X8130031Y2571750D01*
X8131454Y2568194D01*
X8130031Y2566670D01*
X8125866Y2566314D01*
X8122005Y2565247D01*
X8119465Y2561640D01*
X8118094Y2555138D01*
X8117636Y2545283D01*
X8117636Y2524201D01*
X8270748Y2524201D01*
X8270748Y2566314D01*
X8218119Y2566466D01*
X8208924Y2566771D01*
X8200593Y2567330D01*
X8193074Y2568143D01*
X8186318Y2569260D01*
X8180324Y2570632D01*
X8175091Y2572308D01*
X8170468Y2574290D01*
X8166557Y2576626D01*
X8163255Y2579319D01*
X8160512Y2582367D01*
X8158378Y2585821D01*
X8156752Y2589631D01*
X8155584Y2593898D01*
X8154924Y2598572D01*
X8154670Y2603703D01*
X8154822Y2608072D01*
X8155330Y2612085D01*
X8156244Y2615692D01*
X8157616Y2618943D01*
X8159496Y2621788D01*
X8161832Y2624328D01*
X8164779Y2626563D01*
X8168284Y2628442D01*
X8172450Y2630068D01*
X8177275Y2631440D01*
X8182762Y2632506D01*
X8189061Y2633370D01*
X8196122Y2634030D01*
X8212683Y2634691D01*
X8270748Y2634792D01*
X8270748Y2682138D01*
G37*
G36*
X7653629Y2642260D02*
G01*
X7647482Y2642108D01*
X7641539Y2641498D01*
X7635748Y2640431D01*
X7630109Y2638907D01*
X7624673Y2636977D01*
X7619492Y2634691D01*
X7614462Y2631998D01*
X7609687Y2629001D01*
X7605166Y2625648D01*
X7600899Y2621991D01*
X7596886Y2618079D01*
X7593177Y2613914D01*
X7589723Y2609494D01*
X7586624Y2604871D01*
X7583830Y2600045D01*
X7581392Y2595016D01*
X7579309Y2589885D01*
X7577581Y2584602D01*
X7576210Y2579217D01*
X7575245Y2573731D01*
X7574737Y2568194D01*
X7574584Y2562656D01*
X7574889Y2557018D01*
X7575651Y2551430D01*
X7576820Y2545842D01*
X7578496Y2540355D01*
X7580680Y2534869D01*
X7583373Y2529484D01*
X7586268Y2524556D01*
X7589469Y2519883D01*
X7592974Y2515565D01*
X7596631Y2511501D01*
X7600543Y2507792D01*
X7604658Y2504389D01*
X7608925Y2501290D01*
X7613396Y2498445D01*
X7617968Y2495956D01*
X7622641Y2493772D01*
X7627467Y2491943D01*
X7632344Y2490368D01*
X7637322Y2489098D01*
X7642301Y2488184D01*
X7652410Y2487218D01*
X7657439Y2487218D01*
X7662468Y2487574D01*
X7667447Y2488184D01*
X7672374Y2489149D01*
X7677200Y2490419D01*
X7681925Y2491994D01*
X7686497Y2493873D01*
X7691018Y2496108D01*
X7695336Y2498598D01*
X7699451Y2501493D01*
X7703413Y2504643D01*
X7707172Y2508148D01*
X7710678Y2511958D01*
X7713929Y2516073D01*
X7716926Y2520543D01*
X7719669Y2525318D01*
X7722362Y2531008D01*
X7724597Y2536799D01*
X7726375Y2542590D01*
X7727746Y2548382D01*
X7728610Y2554224D01*
X7729067Y2560015D01*
X7729118Y2565806D01*
X7728762Y2571496D01*
X7728000Y2577134D01*
X7726832Y2582621D01*
X7725359Y2588006D01*
X7723479Y2593289D01*
X7721244Y2598369D01*
X7718704Y2603296D01*
X7715808Y2608021D01*
X7712608Y2612542D01*
X7709103Y2616809D01*
X7705293Y2620822D01*
X7701229Y2624531D01*
X7696860Y2627985D01*
X7692237Y2631084D01*
X7687360Y2633827D01*
X7682280Y2636266D01*
X7676946Y2638298D01*
X7671409Y2639923D01*
X7665669Y2641142D01*
X7659725Y2641955D01*
G37*
G36*
X8117636Y2482138D02*
G01*
X8117636Y2458872D01*
X8118144Y2449677D01*
X8119414Y2441854D01*
X8121345Y2436215D01*
X8123681Y2433624D01*
X8126222Y2432100D01*
X8127085Y2429560D01*
X8126222Y2425801D01*
X8121548Y2415590D01*
X8119922Y2410155D01*
X8118754Y2404110D01*
X8118218Y2399284D01*
X8152841Y2399284D01*
X8153146Y2403957D01*
X8154060Y2408529D01*
X8155635Y2412898D01*
X8157768Y2417064D01*
X8160562Y2420924D01*
X8164017Y2424430D01*
X8168081Y2427528D01*
X8172958Y2430170D01*
X8178241Y2432202D01*
X8183829Y2433523D01*
X8189569Y2434234D01*
X8195462Y2434234D01*
X8201304Y2433675D01*
X8206994Y2432507D01*
X8212480Y2430729D01*
X8217611Y2428392D01*
X8222335Y2425496D01*
X8226501Y2422042D01*
X8230006Y2418080D01*
X8232698Y2413914D01*
X8234781Y2409698D01*
X8236203Y2405430D01*
X8237016Y2401112D01*
X8237270Y2396845D01*
X8237016Y2392578D01*
X8236254Y2388412D01*
X8234984Y2384399D01*
X8233308Y2380488D01*
X8231174Y2376728D01*
X8228685Y2373223D01*
X8225891Y2369972D01*
X8222742Y2366975D01*
X8219287Y2364282D01*
X8215630Y2361946D01*
X8211718Y2360015D01*
X8207603Y2358440D01*
X8203336Y2357323D01*
X8198967Y2356662D01*
X8194446Y2356561D01*
X8189925Y2356967D01*
X8185302Y2357932D01*
X8180730Y2359507D01*
X8176158Y2361692D01*
X8171332Y2364790D01*
X8167065Y2368296D01*
X8163306Y2372106D01*
X8160105Y2376271D01*
X8157514Y2380640D01*
X8155482Y2385161D01*
X8154009Y2389835D01*
X8153095Y2394559D01*
X8152841Y2399284D01*
X8118218Y2399284D01*
X8117789Y2391003D01*
X8117992Y2384094D01*
X8118602Y2377186D01*
X8119668Y2370378D01*
X8121142Y2363825D01*
X8123021Y2357628D01*
X8125307Y2351887D01*
X8128000Y2346807D01*
X8131556Y2341524D01*
X8135518Y2336698D01*
X8139785Y2332329D01*
X8144509Y2328418D01*
X8149539Y2324963D01*
X8154974Y2321966D01*
X8160766Y2319426D01*
X8166912Y2317343D01*
X8173466Y2315768D01*
X8180374Y2314600D01*
X8187639Y2313940D01*
X8195259Y2313686D01*
X8201304Y2313889D01*
X8207197Y2314448D01*
X8212937Y2315413D01*
X8218474Y2316683D01*
X8223859Y2318308D01*
X8228990Y2320290D01*
X8233918Y2322525D01*
X8238591Y2325065D01*
X8243062Y2327910D01*
X8247278Y2330958D01*
X8251240Y2334310D01*
X8254949Y2337866D01*
X8258352Y2341676D01*
X8261451Y2345690D01*
X8264296Y2349855D01*
X8266785Y2354224D01*
X8268970Y2358745D01*
X8270849Y2363419D01*
X8272373Y2368245D01*
X8273542Y2373172D01*
X8274354Y2378202D01*
X8274761Y2383332D01*
X8274812Y2388514D01*
X8274456Y2393746D01*
X8273694Y2399080D01*
X8272576Y2404414D01*
X8270951Y2409748D01*
X8266023Y2423210D01*
X8264448Y2429967D01*
X8264347Y2434894D01*
X8265769Y2437587D01*
X8267700Y2440381D01*
X8269274Y2445816D01*
X8270341Y2453081D01*
X8270748Y2461361D01*
X8270748Y2482138D01*
G37*
G36*
X7652562Y2471572D02*
G01*
X7646568Y2471369D01*
X7640777Y2470708D01*
X7635087Y2469692D01*
X7629652Y2468321D01*
X7624368Y2466543D01*
X7619288Y2464409D01*
X7614462Y2461920D01*
X7609789Y2459177D01*
X7605420Y2456078D01*
X7601254Y2452725D01*
X7597343Y2449118D01*
X7593736Y2445258D01*
X7590383Y2441143D01*
X7587335Y2436825D01*
X7584592Y2432304D01*
X7582153Y2427630D01*
X7580020Y2422804D01*
X7578242Y2417775D01*
X7576820Y2412644D01*
X7575702Y2407412D01*
X7574991Y2402078D01*
X7574686Y2396642D01*
X7574737Y2391156D01*
X7575194Y2385618D01*
X7576108Y2380081D01*
X7577378Y2374493D01*
X7579156Y2368956D01*
X7581341Y2363419D01*
X7584033Y2357983D01*
X7587386Y2352649D01*
X7591247Y2347518D01*
X7595565Y2342540D01*
X7600340Y2337866D01*
X7605471Y2333447D01*
X7610906Y2329434D01*
X7616545Y2325827D01*
X7622336Y2322728D01*
X7628178Y2320086D01*
X7634122Y2318054D01*
X7639964Y2316632D01*
X7645349Y2315819D01*
X7650429Y2315514D01*
X7655407Y2315667D01*
X7660436Y2316378D01*
X7665618Y2317648D01*
X7671155Y2319528D01*
X7677150Y2322017D01*
X7683804Y2325166D01*
X7689138Y2328011D01*
X7694168Y2331059D01*
X7698841Y2334361D01*
X7703159Y2337866D01*
X7707172Y2341575D01*
X7710881Y2345436D01*
X7714234Y2349550D01*
X7717231Y2353868D01*
X7719923Y2358339D01*
X7722260Y2363012D01*
X7724190Y2367889D01*
X7725816Y2372918D01*
X7727086Y2378100D01*
X7728000Y2383434D01*
X7728559Y2388971D01*
X7728712Y2394610D01*
X7728508Y2401316D01*
X7727797Y2407767D01*
X7726629Y2414016D01*
X7725105Y2420010D01*
X7723124Y2425750D01*
X7720736Y2431237D01*
X7717942Y2436368D01*
X7714792Y2441244D01*
X7711287Y2445816D01*
X7707426Y2450084D01*
X7703210Y2453995D01*
X7698689Y2457500D01*
X7693863Y2460701D01*
X7688783Y2463495D01*
X7683347Y2465882D01*
X7677658Y2467914D01*
X7671765Y2469489D01*
X7665567Y2470607D01*
X7659166Y2471318D01*
G37*
G36*
X8255203Y2303170D02*
G01*
X8247583Y2302510D01*
X8242604Y2300122D01*
X8239404Y2295347D01*
X8237220Y2287371D01*
X8234070Y2271572D01*
X8059572Y2271572D01*
X8059572Y2250338D01*
X8060080Y2241042D01*
X8061553Y2233828D01*
X8063941Y2228850D01*
X8067243Y2226208D01*
X8070494Y2225649D01*
X8085988Y2224836D01*
X8110829Y2224532D01*
X8142122Y2224735D01*
X8185912Y2225649D01*
X8206536Y2226310D01*
X8222030Y2227173D01*
X8233359Y2228342D01*
X8237778Y2229104D01*
X8241538Y2230018D01*
X8244738Y2231085D01*
X8247532Y2232304D01*
X8250021Y2233726D01*
X8254542Y2237232D01*
X8256879Y2239314D01*
X8261350Y2243988D01*
X8265210Y2248966D01*
X8268462Y2254148D01*
X8271103Y2259431D01*
X8273135Y2264765D01*
X8274507Y2270099D01*
X8275320Y2275281D01*
X8275472Y2280259D01*
X8275066Y2284933D01*
X8274050Y2289302D01*
X8272373Y2293162D01*
X8270138Y2296566D01*
X8267293Y2299309D01*
X8263890Y2301392D01*
X8259825Y2302713D01*
G37*
G36*
X7650124Y2303018D02*
G01*
X7645349Y2302713D01*
X7640624Y2302103D01*
X7635951Y2301240D01*
X7631430Y2300122D01*
X7622641Y2297074D01*
X7614361Y2293010D01*
X7610398Y2290673D01*
X7602981Y2285339D01*
X7596225Y2279192D01*
X7593126Y2275840D01*
X7587589Y2268626D01*
X7585100Y2264765D01*
X7582865Y2260803D01*
X7580884Y2256688D01*
X7579156Y2252472D01*
X7577683Y2248103D01*
X7576464Y2243632D01*
X7575550Y2239060D01*
X7574889Y2234387D01*
X7574534Y2229662D01*
X7574483Y2224836D01*
X7574788Y2219960D01*
X7575397Y2215032D01*
X7576362Y2210054D01*
X7577632Y2205075D01*
X7579309Y2200046D01*
X7581341Y2194966D01*
X7583068Y2191461D01*
X7585405Y2187600D01*
X7591247Y2179472D01*
X7598156Y2171496D01*
X7601712Y2167890D01*
X7605268Y2164689D01*
X7609636Y2161387D01*
X7614259Y2158492D01*
X7619136Y2156053D01*
X7624216Y2154021D01*
X7629499Y2152396D01*
X7634935Y2151126D01*
X7640421Y2150313D01*
X7646060Y2149856D01*
X7651699Y2149805D01*
X7657388Y2150110D01*
X7663078Y2150821D01*
X7668717Y2151837D01*
X7674254Y2153259D01*
X7679690Y2154986D01*
X7685024Y2157120D01*
X7690154Y2159508D01*
X7695082Y2162251D01*
X7699806Y2165350D01*
X7704226Y2168702D01*
X7708341Y2172411D01*
X7712151Y2176373D01*
X7715605Y2180691D01*
X7718653Y2185263D01*
X7721295Y2190089D01*
X7723733Y2195728D01*
X7725664Y2201519D01*
X7727137Y2207463D01*
X7728153Y2213457D01*
X7728762Y2219553D01*
X7728864Y2225598D01*
X7728559Y2231694D01*
X7727848Y2237689D01*
X7726680Y2243632D01*
X7725156Y2249424D01*
X7723225Y2255113D01*
X7720888Y2260600D01*
X7718196Y2265883D01*
X7715148Y2270912D01*
X7711795Y2275636D01*
X7708036Y2280056D01*
X7703972Y2284120D01*
X7699552Y2287828D01*
X7694879Y2291080D01*
X7689850Y2293924D01*
X7684871Y2296261D01*
X7679842Y2298242D01*
X7674813Y2299868D01*
X7669834Y2301138D01*
X7659878Y2302713D01*
X7655001Y2303018D01*
G37*
G36*
X8155990Y2192223D02*
G01*
X8148675Y2192020D01*
X8134299Y2190800D01*
X8124342Y2188972D01*
X8119719Y2187752D01*
X8115350Y2186228D01*
X8111185Y2184501D01*
X8107222Y2182469D01*
X8103514Y2180183D01*
X8100059Y2177643D01*
X8096758Y2174798D01*
X8093709Y2171649D01*
X8090865Y2168245D01*
X8088223Y2164537D01*
X8085785Y2160473D01*
X8083499Y2156155D01*
X8081467Y2151481D01*
X8077860Y2141118D01*
X8076336Y2135428D01*
X8073847Y2122982D01*
X8072018Y2109114D01*
X8070850Y2093671D01*
X8070240Y2076704D01*
X8070188Y2066289D01*
X8107070Y2066289D01*
X8107070Y2086559D01*
X8107527Y2095703D01*
X8108797Y2105710D01*
X8110626Y2115362D01*
X8112912Y2123440D01*
X8115706Y2129637D01*
X8119364Y2134870D01*
X8123834Y2138984D01*
X8129066Y2142083D01*
X8135010Y2144064D01*
X8141665Y2144928D01*
X8148878Y2144623D01*
X8156702Y2143201D01*
X8160258Y2141880D01*
X8163610Y2139848D01*
X8166709Y2137105D01*
X8169554Y2133650D01*
X8172094Y2129637D01*
X8174380Y2124964D01*
X8176310Y2119731D01*
X8177987Y2113991D01*
X8179257Y2107793D01*
X8180222Y2101088D01*
X8180781Y2094026D01*
X8180984Y2086559D01*
X8180984Y2066289D01*
X8070188Y2066289D01*
X8070138Y2018893D01*
X8270748Y2018893D01*
X8270748Y2066289D01*
X8217966Y2066289D01*
X8217814Y2097735D01*
X8217509Y2104948D01*
X8216087Y2118512D01*
X8215020Y2124862D01*
X8213699Y2130958D01*
X8212175Y2136800D01*
X8210397Y2142337D01*
X8208365Y2147620D01*
X8206130Y2152650D01*
X8203641Y2157425D01*
X8200898Y2161895D01*
X8197900Y2166162D01*
X8194649Y2170176D01*
X8191195Y2173884D01*
X8187436Y2177389D01*
X8181543Y2182418D01*
X8176514Y2186228D01*
X8171840Y2188972D01*
X8167116Y2190851D01*
X8161985Y2191867D01*
G37*
D10*
X3136900Y3340100D02*
G01*
X4533900Y1943100D01*
X4533900Y1804390D01*
X3124200Y3683000D02*
G01*
X3467100Y3340100D01*
X3898900Y3340100D01*
X965200Y3985895D02*
G01*
X1092200Y3858895D01*
X1092200Y2902330D01*
X939800Y2749930D01*
X965200Y3985895D02*
G01*
X1610995Y3340100D01*
X3136900Y3340100D01*
X6299200Y3937000D02*
G01*
X6477000Y3759200D01*
X6477000Y1803400D01*
X6350000Y1676400D01*
X6119380Y1676400D01*
X5803900Y1804390D02*
G01*
X5931890Y1676400D01*
X6119380Y1676400D01*
X7264400Y531380D01*
X7264400Y342900D01*
X7150100Y228600D01*
X5156200Y3937000D02*
G01*
X5156200Y3777843D01*
X6254343Y2679700D01*
X6426200Y2679700D01*
X6426200Y1918690D01*
X6311900Y1804390D01*
X4787900Y1804390D02*
G01*
X4749800Y1766290D01*
X4749800Y342900D01*
X4864100Y228600D01*
X965200Y3485769D02*
G01*
X838200Y3612769D01*
X838200Y4279900D01*
X927100Y4368800D01*
X4507509Y4368800D01*
X6311900Y2564409D01*
X5295900Y1804390D02*
G01*
X5182590Y1917700D01*
X4965700Y1917700D01*
X4927600Y1879600D01*
X4927600Y673100D01*
X5118100Y482600D01*
X5549900Y1804390D02*
G01*
X5486400Y1740890D01*
X5486400Y406400D01*
X5448300Y368300D01*
X4978400Y368300D01*
X4864100Y482600D01*
X3886200Y3683000D02*
G01*
X4089400Y3683000D01*
X5168900Y2603500D01*
X5168900Y2349500D01*
X5664200Y1854200D01*
X5664200Y1727200D01*
X5765800Y1625600D01*
X6019800Y1625600D01*
X7150100Y482600D01*
X457200Y700498D02*
G01*
X342900Y814798D01*
X342900Y2153030D01*
X939800Y2749930D01*
X5372100Y482600D02*
G01*
X5372100Y1474190D01*
X5041900Y1804390D01*
X6057900Y1804390D02*
G01*
X6311900Y1804390D01*
X939800Y1999869D02*
G01*
X1251330Y2311400D01*
X3200400Y2311400D01*
X3200400Y2057400D02*
G01*
X1564088Y2057400D01*
X457200Y950511D01*
X5410200Y4795235D02*
G01*
X5410200Y4191000D01*
X5156200Y3937000D01*
X5664200Y4795235D02*
G01*
X5664200Y4191000D01*
X5918200Y3937000D01*
X7188200Y4584700D02*
G01*
X7188200Y4064000D01*
X7061200Y3937000D01*
X6172200Y4795235D02*
G01*
X6172200Y4064000D01*
X6299200Y3937000D01*
D11*
G01*
X939800Y1999869D03*
G01*
X939800Y2250059D03*
G01*
X939800Y2499995D03*
G01*
X939800Y2749930D03*
G01*
X965200Y3485769D03*
G01*
X965200Y3735959D03*
G01*
X965200Y3985895D03*
G01*
X965200Y4235830D03*
D12*
G01*
X7188200Y4838700D03*
G01*
X7188200Y4584700D03*
D13*
G01*
X7658100Y482600D03*
G01*
X7658100Y228600D03*
G01*
X7404100Y482600D03*
G01*
X7404100Y228600D03*
G01*
X7150100Y482600D03*
G01*
X7150100Y228600D03*
G01*
X6896100Y482600D03*
G01*
X6896100Y228600D03*
G01*
X6642100Y482600D03*
G01*
X6642100Y228600D03*
G01*
X6388100Y482600D03*
G01*
X6388100Y228600D03*
G01*
X6134100Y482600D03*
G01*
X6134100Y228600D03*
G01*
X5880100Y482600D03*
G01*
X5880100Y228600D03*
G01*
X5626100Y482600D03*
G01*
X5626100Y228600D03*
G01*
X5372100Y482600D03*
G01*
X5372100Y228600D03*
G01*
X5118100Y482600D03*
G01*
X5118100Y228600D03*
G01*
X4864100Y482600D03*
G01*
X4864100Y228600D03*
G01*
X4610100Y482600D03*
G01*
X4610100Y228600D03*
G01*
X4356100Y482600D03*
G01*
X4356100Y228600D03*
G01*
X4102100Y482600D03*
G01*
X4102100Y228600D03*
G01*
X3848100Y482600D03*
G01*
X3848100Y228600D03*
G01*
X3594100Y482600D03*
G01*
X3594100Y228600D03*
G01*
X3340100Y482600D03*
G01*
X3340100Y228600D03*
G01*
X3086100Y482600D03*
G01*
X3086100Y228600D03*
G01*
X2832100Y482600D03*
G36*
X2752100Y308599D02*
G01*
X2912099Y308599D01*
X2912099Y148600D01*
X2752100Y148600D01*
G37*
D15*
G01*
X457200Y700498D03*
G01*
X457200Y950511D03*
D16*
G01*
X5156200Y3937000D03*
G01*
X5918200Y3937000D03*
G01*
X3136900Y3340100D03*
G01*
X3898900Y3340100D03*
G01*
X3124200Y3683000D03*
G01*
X3886200Y3683000D03*
G01*
X6299200Y3937000D03*
G01*
X7061200Y3937000D03*
D17*
G01*
X3200400Y2057400D03*
D18*
G01*
X5410200Y4795235D03*
D19*
G01*
X5664200Y4795235D03*
G01*
X5918200Y4795235D03*
G01*
X6172200Y4795235D03*
D20*
G01*
X6311900Y2564409D03*
D15*
G01*
X6057900Y2564409D03*
G01*
X4787900Y2564409D03*
G01*
X4533900Y2564409D03*
G01*
X5803900Y2564409D03*
G01*
X5549900Y2564409D03*
G01*
X5041900Y2564409D03*
G01*
X5295900Y2564409D03*
G01*
X4533900Y1804390D03*
G01*
X4787900Y1804390D03*
G01*
X5041900Y1804390D03*
G01*
X5295900Y1804390D03*
G01*
X5549900Y1804390D03*
G01*
X5803900Y1804390D03*
G01*
X6057900Y1804390D03*
G01*
X6311900Y1804390D03*
D21*
G01*
X2349500Y5257800D03*
G01*
X8153400Y5257800D03*
G01*
X8140700Y355600D03*
G01*
X2349500Y355600D03*
D22*
X3165401Y2184400D02*
G01*
X3235401Y2184400D01*
X3165401Y2311400D02*
G01*
X3235401Y2311400D01*
M02*
