G04 Layer: BottomLayer*
G04 EasyEDA v6.4.25, 2021-11-13T19:12:50+01:00*
G04 31547cc466d84fccb4009b5d61a499b9,d3ae98efc0754b289f344a683f097ee4,10*
G04 Gerber Generator version 0.2*
G04 Scale: 100 percent, Rotated: No, Reflected: No *
G04 Dimensions in millimeters *
G04 leading zeros omitted , absolute positions ,4 integer and 5 decimal *
%FSLAX45Y45*%
%MOMM*%

%ADD10C,0.2540*%
%ADD11C,1.8000*%
%ADD12C,1.6510*%
%ADD13C,1.6000*%
%ADD15C,1.7000*%
%ADD16C,1.8796*%
%ADD17R,1.6000X0.9000*%
%ADD18R,1.2954X1.2954*%
%ADD19C,1.2954*%
%ADD20R,1.7000X1.7000*%
%ADD21C,5.5000*%
%ADD22C,0.9000*%

%LPD*%
D10*
X6311900Y1804390D02*
G01*
X7543800Y572490D01*
X7543800Y342900D01*
X7658100Y228600D01*
X965200Y3735959D02*
G01*
X3164459Y1536700D01*
X4565065Y1536700D01*
X5619165Y482600D01*
X5626100Y482600D01*
X939800Y2250059D02*
G01*
X2717800Y472059D01*
X2717800Y406400D01*
X2755900Y368300D01*
X4889500Y368300D01*
X5011420Y246379D01*
X5003800Y238760D01*
X5003800Y101600D01*
X5067300Y38100D01*
X6870700Y38100D01*
X7023100Y190500D01*
X7023100Y266700D01*
X7112000Y355600D01*
X7277100Y355600D01*
X7404100Y482600D01*
X3200400Y2184400D02*
G01*
X3975100Y2184400D01*
X5562600Y596900D01*
X5676900Y596900D01*
X5753100Y520700D01*
X5753100Y190500D01*
X5854700Y88900D01*
X6248400Y88900D01*
X6388100Y228600D01*
X939800Y2499995D02*
G01*
X812800Y2626995D01*
X812800Y3759200D01*
X914400Y3860800D01*
X2946400Y3860800D01*
X3124200Y3683000D01*
X7188200Y4838700D02*
G01*
X6426200Y4076700D01*
X6426200Y3886200D01*
X6172200Y3644900D01*
X6172200Y2425700D01*
X6172200Y520700D01*
X6134100Y482600D01*
X5918200Y3937000D02*
G01*
X5918200Y609600D01*
X5994400Y533400D01*
X5994400Y342900D01*
X5880100Y228600D01*
X4533900Y1804390D02*
G01*
X4647209Y1917700D01*
X5690590Y1917700D01*
X5803900Y1804390D01*
X3200400Y2311400D02*
G01*
X3530600Y2311400D01*
X5156200Y3937000D01*
D11*
G01*
X939800Y1999869D03*
G01*
X939800Y2250059D03*
G01*
X939800Y2499995D03*
G01*
X939800Y2749930D03*
G01*
X965200Y3485769D03*
G01*
X965200Y3735959D03*
G01*
X965200Y3985895D03*
G01*
X965200Y4235830D03*
D12*
G01*
X7188200Y4838700D03*
G01*
X7188200Y4584700D03*
D13*
G01*
X7658100Y482600D03*
G01*
X7658100Y228600D03*
G01*
X7404100Y482600D03*
G01*
X7404100Y228600D03*
G01*
X7150100Y482600D03*
G01*
X7150100Y228600D03*
G01*
X6896100Y482600D03*
G01*
X6896100Y228600D03*
G01*
X6642100Y482600D03*
G01*
X6642100Y228600D03*
G01*
X6388100Y482600D03*
G01*
X6388100Y228600D03*
G01*
X6134100Y482600D03*
G01*
X6134100Y228600D03*
G01*
X5880100Y482600D03*
G01*
X5880100Y228600D03*
G01*
X5626100Y482600D03*
G01*
X5626100Y228600D03*
G01*
X5372100Y482600D03*
G01*
X5372100Y228600D03*
G01*
X5118100Y482600D03*
G01*
X5118100Y228600D03*
G01*
X4864100Y482600D03*
G01*
X4864100Y228600D03*
G01*
X4610100Y482600D03*
G01*
X4610100Y228600D03*
G01*
X4356100Y482600D03*
G01*
X4356100Y228600D03*
G01*
X4102100Y482600D03*
G01*
X4102100Y228600D03*
G01*
X3848100Y482600D03*
G01*
X3848100Y228600D03*
G01*
X3594100Y482600D03*
G01*
X3594100Y228600D03*
G01*
X3340100Y482600D03*
G01*
X3340100Y228600D03*
G01*
X3086100Y482600D03*
G01*
X3086100Y228600D03*
G01*
X2832100Y482600D03*
G36*
X2752100Y308599D02*
G01*
X2912099Y308599D01*
X2912099Y148600D01*
X2752100Y148600D01*
G37*
D15*
G01*
X457200Y700498D03*
G01*
X457200Y950511D03*
D16*
G01*
X5156200Y3937000D03*
G01*
X5918200Y3937000D03*
G01*
X3136900Y3340100D03*
G01*
X3898900Y3340100D03*
G01*
X3124200Y3683000D03*
G01*
X3886200Y3683000D03*
G01*
X6299200Y3937000D03*
G01*
X7061200Y3937000D03*
D17*
G01*
X3200400Y2057400D03*
D18*
G01*
X5410200Y4795235D03*
D19*
G01*
X5664200Y4795235D03*
G01*
X5918200Y4795235D03*
G01*
X6172200Y4795235D03*
D20*
G01*
X6311900Y2564409D03*
D15*
G01*
X6057900Y2564409D03*
G01*
X4787900Y2564409D03*
G01*
X4533900Y2564409D03*
G01*
X5803900Y2564409D03*
G01*
X5549900Y2564409D03*
G01*
X5041900Y2564409D03*
G01*
X5295900Y2564409D03*
G01*
X4533900Y1804390D03*
G01*
X4787900Y1804390D03*
G01*
X5041900Y1804390D03*
G01*
X5295900Y1804390D03*
G01*
X5549900Y1804390D03*
G01*
X5803900Y1804390D03*
G01*
X6057900Y1804390D03*
G01*
X6311900Y1804390D03*
D21*
G01*
X2349500Y5257800D03*
G01*
X8153400Y5257800D03*
G01*
X8140700Y355600D03*
G01*
X2349500Y355600D03*
D22*
X3165401Y2184400D02*
G01*
X3235401Y2184400D01*
X3165401Y2311400D02*
G01*
X3235401Y2311400D01*
M02*
