G04 Layer: TopSilkLayer*
G04 EasyEDA v6.4.25, 2021-11-13T19:12:50+01:00*
G04 31547cc466d84fccb4009b5d61a499b9,d3ae98efc0754b289f344a683f097ee4,10*
G04 Gerber Generator version 0.2*
G04 Scale: 100 percent, Rotated: No, Reflected: No *
G04 Dimensions in millimeters *
G04 leading zeros omitted , absolute positions ,4 integer and 5 decimal *
%FSLAX45Y45*%
%MOMM*%

%ADD10C,0.2540*%
%ADD23C,0.2032*%
%ADD24C,0.1524*%

%LPD*%
D24*
X37084Y2355469D02*
G01*
X146050Y2355469D01*
X37084Y2428112D02*
G01*
X146050Y2428112D01*
X88900Y2355469D02*
G01*
X88900Y2428112D01*
X62992Y2540380D02*
G01*
X52578Y2535301D01*
X42163Y2524887D01*
X37084Y2514472D01*
X37084Y2493645D01*
X42163Y2483230D01*
X52578Y2472817D01*
X62992Y2467737D01*
X78739Y2462403D01*
X104647Y2462403D01*
X120142Y2467737D01*
X130555Y2472817D01*
X140970Y2483230D01*
X146050Y2493645D01*
X146050Y2514472D01*
X140970Y2524887D01*
X130555Y2535301D01*
X120142Y2540380D01*
X182626Y2574670D02*
G01*
X182626Y2668143D01*
X52578Y2775330D02*
G01*
X42163Y2764917D01*
X37084Y2749169D01*
X37084Y2728595D01*
X42163Y2712846D01*
X52578Y2702432D01*
X62992Y2702432D01*
X73405Y2707767D01*
X78739Y2712846D01*
X83820Y2723261D01*
X94234Y2754503D01*
X99313Y2764917D01*
X104647Y2769996D01*
X115062Y2775330D01*
X130555Y2775330D01*
X140970Y2764917D01*
X146050Y2749169D01*
X146050Y2728595D01*
X140970Y2712846D01*
X130555Y2702432D01*
X37084Y2809620D02*
G01*
X146050Y2809620D01*
X37084Y2809620D02*
G01*
X37084Y2856356D01*
X42163Y2871851D01*
X47497Y2877185D01*
X57912Y2882264D01*
X68326Y2882264D01*
X78739Y2877185D01*
X83820Y2871851D01*
X88900Y2856356D01*
X88900Y2809620D01*
X88900Y2845943D02*
G01*
X146050Y2882264D01*
X37084Y2947796D02*
G01*
X42163Y2932048D01*
X57912Y2921888D01*
X83820Y2916554D01*
X99313Y2916554D01*
X125476Y2921888D01*
X140970Y2932048D01*
X146050Y2947796D01*
X146050Y2958211D01*
X140970Y2973704D01*
X125476Y2984119D01*
X99313Y2989198D01*
X83820Y2989198D01*
X57912Y2984119D01*
X42163Y2973704D01*
X37084Y2958211D01*
X37084Y2947796D01*
X37084Y3075559D02*
G01*
X109728Y3023488D01*
X109728Y3101467D01*
X37084Y3075559D02*
G01*
X146050Y3075559D01*
X182626Y3135756D02*
G01*
X182626Y3229229D01*
X37084Y3263519D02*
G01*
X146050Y3263519D01*
X37084Y3297809D02*
G01*
X146050Y3297809D01*
X37084Y3297809D02*
G01*
X146050Y3370706D01*
X37084Y3370706D02*
G01*
X146050Y3370706D01*
X62484Y3841369D02*
G01*
X171450Y3841369D01*
X62484Y3841369D02*
G01*
X171450Y3883025D01*
X62484Y3924427D02*
G01*
X171450Y3883025D01*
X62484Y3924427D02*
G01*
X171450Y3924427D01*
X62484Y3989959D02*
G01*
X67563Y3979545D01*
X77978Y3969130D01*
X88392Y3964051D01*
X104139Y3958717D01*
X130047Y3958717D01*
X145542Y3964051D01*
X155955Y3969130D01*
X166370Y3979545D01*
X171450Y3989959D01*
X171450Y4010787D01*
X166370Y4021201D01*
X155955Y4031614D01*
X145542Y4036695D01*
X130047Y4042029D01*
X104139Y4042029D01*
X88392Y4036695D01*
X77978Y4031614D01*
X67563Y4021201D01*
X62484Y4010787D01*
X62484Y3989959D01*
X62484Y4076319D02*
G01*
X171450Y4076319D01*
X77978Y4183253D02*
G01*
X67563Y4172838D01*
X62484Y4157345D01*
X62484Y4136517D01*
X67563Y4120769D01*
X77978Y4110609D01*
X88392Y4110609D01*
X98805Y4115688D01*
X104139Y4120769D01*
X109220Y4131182D01*
X119634Y4162425D01*
X124713Y4172838D01*
X130047Y4177919D01*
X140462Y4183253D01*
X155955Y4183253D01*
X166370Y4172838D01*
X171450Y4157345D01*
X171450Y4136517D01*
X166370Y4120769D01*
X155955Y4110609D01*
X62484Y4253864D02*
G01*
X171450Y4253864D01*
X62484Y4217543D02*
G01*
X62484Y4290187D01*
X62484Y4324477D02*
G01*
X140462Y4324477D01*
X155955Y4329811D01*
X166370Y4340225D01*
X171450Y4355719D01*
X171450Y4366132D01*
X166370Y4381627D01*
X155955Y4392040D01*
X140462Y4397375D01*
X62484Y4397375D01*
X62484Y4431664D02*
G01*
X171450Y4431664D01*
X62484Y4431664D02*
G01*
X62484Y4478401D01*
X67563Y4493895D01*
X72897Y4499229D01*
X83312Y4504309D01*
X93726Y4504309D01*
X104139Y4499229D01*
X109220Y4493895D01*
X114300Y4478401D01*
X114300Y4431664D01*
X114300Y4467987D02*
G01*
X171450Y4504309D01*
X62484Y4538598D02*
G01*
X171450Y4538598D01*
X62484Y4538598D02*
G01*
X62484Y4606162D01*
X114300Y4538598D02*
G01*
X114300Y4580254D01*
X171450Y4538598D02*
G01*
X171450Y4606162D01*
X208026Y4640453D02*
G01*
X208026Y4733925D01*
X62484Y4768214D02*
G01*
X171450Y4768214D01*
X62484Y4802504D02*
G01*
X171450Y4802504D01*
X62484Y4802504D02*
G01*
X171450Y4875148D01*
X62484Y4875148D02*
G01*
X171450Y4875148D01*
X7162800Y5055615D02*
G01*
X7162800Y4946650D01*
X7162800Y4946650D02*
G01*
X7225029Y4946650D01*
X7259320Y5055615D02*
G01*
X7259320Y4946650D01*
X7259320Y5055615D02*
G01*
X7326884Y5055615D01*
X7259320Y5003800D02*
G01*
X7300975Y5003800D01*
X7259320Y4946650D02*
G01*
X7326884Y4946650D01*
X7361174Y5055615D02*
G01*
X7361174Y4946650D01*
X7361174Y5055615D02*
G01*
X7397750Y5055615D01*
X7413243Y5050536D01*
X7423658Y5040121D01*
X7428738Y5029707D01*
X7434072Y5013960D01*
X7434072Y4988052D01*
X7428738Y4972557D01*
X7423658Y4962144D01*
X7413243Y4951729D01*
X7397750Y4946650D01*
X7361174Y4946650D01*
X7478775Y5055615D02*
G01*
X7535925Y5055615D01*
X7504684Y5013960D01*
X7520177Y5013960D01*
X7530591Y5008879D01*
X7535925Y5003800D01*
X7541006Y4988052D01*
X7541006Y4977637D01*
X7535925Y4962144D01*
X7525511Y4951729D01*
X7509763Y4946650D01*
X7494270Y4946650D01*
X7478775Y4951729D01*
X7473441Y4956810D01*
X7468361Y4967223D01*
X5219700Y750315D02*
G01*
X5219700Y641350D01*
X5219700Y750315D02*
G01*
X5266436Y750315D01*
X5281929Y745236D01*
X5287263Y739902D01*
X5292343Y729487D01*
X5292343Y713994D01*
X5287263Y703579D01*
X5281929Y698500D01*
X5266436Y693165D01*
X5219700Y693165D01*
X5326634Y729487D02*
G01*
X5337047Y734821D01*
X5352795Y750315D01*
X5352795Y641350D01*
X75184Y810099D02*
G01*
X184150Y810099D01*
X75184Y810099D02*
G01*
X75184Y856835D01*
X80263Y872329D01*
X85597Y877663D01*
X96012Y882743D01*
X111505Y882743D01*
X121920Y877663D01*
X127000Y872329D01*
X132334Y856835D01*
X132334Y810099D01*
X75184Y917033D02*
G01*
X153162Y917033D01*
X168655Y922367D01*
X179070Y932781D01*
X184150Y948275D01*
X184150Y958689D01*
X179070Y974183D01*
X168655Y984597D01*
X153162Y989931D01*
X75184Y989931D01*
X75184Y1024221D02*
G01*
X184150Y1024221D01*
X75184Y1024221D02*
G01*
X184150Y1065623D01*
X75184Y1107279D02*
G01*
X184150Y1065623D01*
X75184Y1107279D02*
G01*
X184150Y1107279D01*
X75184Y1141569D02*
G01*
X184150Y1141569D01*
X75184Y1141569D02*
G01*
X75184Y1188305D01*
X80263Y1203799D01*
X85597Y1209133D01*
X96012Y1214213D01*
X111505Y1214213D01*
X121920Y1209133D01*
X127000Y1203799D01*
X132334Y1188305D01*
X132334Y1141569D01*
X220726Y1248503D02*
G01*
X220726Y1342229D01*
X75184Y1376519D02*
G01*
X184150Y1376519D01*
X75184Y1410809D02*
G01*
X184150Y1410809D01*
X75184Y1410809D02*
G01*
X184150Y1483453D01*
X75184Y1483453D02*
G01*
X184150Y1483453D01*
X5537200Y4179315D02*
G01*
X5537200Y4070350D01*
X5537200Y4179315D02*
G01*
X5583936Y4179315D01*
X5599429Y4174236D01*
X5604763Y4168902D01*
X5609843Y4158487D01*
X5609843Y4148073D01*
X5604763Y4137660D01*
X5599429Y4132579D01*
X5583936Y4127500D01*
X5537200Y4127500D01*
X5573522Y4127500D02*
G01*
X5609843Y4070350D01*
X5644134Y4033773D02*
G01*
X5737859Y4033773D01*
X5772150Y4179315D02*
G01*
X5772150Y4070350D01*
X5772150Y4179315D02*
G01*
X5808472Y4179315D01*
X5823965Y4174236D01*
X5834379Y4163821D01*
X5839459Y4153407D01*
X5844793Y4137660D01*
X5844793Y4111752D01*
X5839459Y4096257D01*
X5834379Y4085844D01*
X5823965Y4075429D01*
X5808472Y4070350D01*
X5772150Y4070350D01*
X5879084Y4179315D02*
G01*
X5879084Y4070350D01*
X5951727Y4179315D02*
G01*
X5951727Y4070350D01*
X5879084Y4127500D02*
G01*
X5951727Y4127500D01*
X6022340Y4179315D02*
G01*
X6022340Y4070350D01*
X5986018Y4179315D02*
G01*
X6058915Y4179315D01*
X6093206Y4158487D02*
G01*
X6103620Y4163821D01*
X6119113Y4179315D01*
X6119113Y4070350D01*
X6153404Y4158487D02*
G01*
X6163818Y4163821D01*
X6179311Y4179315D01*
X6179311Y4070350D01*
X3517900Y3582415D02*
G01*
X3517900Y3473450D01*
X3517900Y3582415D02*
G01*
X3564636Y3582415D01*
X3580129Y3577336D01*
X3585463Y3572002D01*
X3590543Y3561587D01*
X3590543Y3551173D01*
X3585463Y3540760D01*
X3580129Y3535679D01*
X3564636Y3530600D01*
X3517900Y3530600D01*
X3554222Y3530600D02*
G01*
X3590543Y3473450D01*
X3624834Y3436873D02*
G01*
X3718559Y3436873D01*
X3752850Y3582415D02*
G01*
X3752850Y3473450D01*
X3825493Y3582415D02*
G01*
X3825493Y3473450D01*
X3752850Y3530600D02*
G01*
X3825493Y3530600D01*
X3937761Y3556507D02*
G01*
X3932427Y3566921D01*
X3922013Y3577336D01*
X3911600Y3582415D01*
X3891025Y3582415D01*
X3880611Y3577336D01*
X3870197Y3566921D01*
X3864863Y3556507D01*
X3859784Y3540760D01*
X3859784Y3514852D01*
X3864863Y3499357D01*
X3870197Y3488944D01*
X3880611Y3478529D01*
X3891025Y3473450D01*
X3911600Y3473450D01*
X3922013Y3478529D01*
X3932427Y3488944D01*
X3937761Y3499357D01*
X4044695Y3566921D02*
G01*
X4034281Y3577336D01*
X4018788Y3582415D01*
X3997959Y3582415D01*
X3982465Y3577336D01*
X3972052Y3566921D01*
X3972052Y3556507D01*
X3977131Y3546094D01*
X3982465Y3540760D01*
X3992879Y3535679D01*
X4023868Y3525265D01*
X4034281Y3520186D01*
X4039615Y3514852D01*
X4044695Y3504437D01*
X4044695Y3488944D01*
X4034281Y3478529D01*
X4018788Y3473450D01*
X3997959Y3473450D01*
X3982465Y3478529D01*
X3972052Y3488944D01*
X4078986Y3582415D02*
G01*
X4078986Y3473450D01*
X4078986Y3582415D02*
G01*
X4125722Y3582415D01*
X4141470Y3577336D01*
X4146550Y3572002D01*
X4151629Y3561587D01*
X4151629Y3551173D01*
X4146550Y3540760D01*
X4141470Y3535679D01*
X4125722Y3530600D01*
X4078986Y3530600D01*
X4115308Y3530600D02*
G01*
X4151629Y3473450D01*
X4217161Y3582415D02*
G01*
X4201668Y3577336D01*
X4191254Y3561587D01*
X4185920Y3535679D01*
X4185920Y3520186D01*
X4191254Y3494023D01*
X4201668Y3478529D01*
X4217161Y3473450D01*
X4227575Y3473450D01*
X4243070Y3478529D01*
X4253484Y3494023D01*
X4258818Y3520186D01*
X4258818Y3535679D01*
X4253484Y3561587D01*
X4243070Y3577336D01*
X4227575Y3582415D01*
X4217161Y3582415D01*
X4344924Y3582415D02*
G01*
X4293108Y3509771D01*
X4371086Y3509771D01*
X4344924Y3582415D02*
G01*
X4344924Y3473450D01*
X4405375Y3436873D02*
G01*
X4498847Y3436873D01*
X4611115Y3556507D02*
G01*
X4605781Y3566921D01*
X4595368Y3577336D01*
X4584954Y3582415D01*
X4564379Y3582415D01*
X4553965Y3577336D01*
X4543552Y3566921D01*
X4538218Y3556507D01*
X4533138Y3540760D01*
X4533138Y3514852D01*
X4538218Y3499357D01*
X4543552Y3488944D01*
X4553965Y3478529D01*
X4564379Y3473450D01*
X4584954Y3473450D01*
X4595368Y3478529D01*
X4605781Y3488944D01*
X4611115Y3499357D01*
X4611115Y3514852D01*
X4584954Y3514852D02*
G01*
X4611115Y3514852D01*
X4645406Y3582415D02*
G01*
X4645406Y3473450D01*
X4645406Y3582415D02*
G01*
X4718050Y3473450D01*
X4718050Y3582415D02*
G01*
X4718050Y3473450D01*
X4752340Y3582415D02*
G01*
X4752340Y3473450D01*
X4752340Y3582415D02*
G01*
X4788661Y3582415D01*
X4804409Y3577336D01*
X4814570Y3566921D01*
X4819904Y3556507D01*
X4824984Y3540760D01*
X4824984Y3514852D01*
X4819904Y3499357D01*
X4814570Y3488944D01*
X4804409Y3478529D01*
X4788661Y3473450D01*
X4752340Y3473450D01*
X3505200Y3925315D02*
G01*
X3505200Y3816350D01*
X3505200Y3925315D02*
G01*
X3551936Y3925315D01*
X3567429Y3920236D01*
X3572763Y3914902D01*
X3577843Y3904487D01*
X3577843Y3894073D01*
X3572763Y3883660D01*
X3567429Y3878579D01*
X3551936Y3873500D01*
X3505200Y3873500D01*
X3541522Y3873500D02*
G01*
X3577843Y3816350D01*
X3612134Y3779773D02*
G01*
X3705859Y3779773D01*
X3740150Y3925315D02*
G01*
X3740150Y3816350D01*
X3812793Y3925315D02*
G01*
X3812793Y3816350D01*
X3740150Y3873500D02*
G01*
X3812793Y3873500D01*
X3925061Y3899407D02*
G01*
X3919727Y3909821D01*
X3909313Y3920236D01*
X3898900Y3925315D01*
X3878325Y3925315D01*
X3867911Y3920236D01*
X3857497Y3909821D01*
X3852163Y3899407D01*
X3847084Y3883660D01*
X3847084Y3857752D01*
X3852163Y3842257D01*
X3857497Y3831844D01*
X3867911Y3821429D01*
X3878325Y3816350D01*
X3898900Y3816350D01*
X3909313Y3821429D01*
X3919727Y3831844D01*
X3925061Y3842257D01*
X4031995Y3909821D02*
G01*
X4021581Y3920236D01*
X4006088Y3925315D01*
X3985259Y3925315D01*
X3969765Y3920236D01*
X3959352Y3909821D01*
X3959352Y3899407D01*
X3964431Y3888994D01*
X3969765Y3883660D01*
X3980179Y3878579D01*
X4011168Y3868165D01*
X4021581Y3863086D01*
X4026915Y3857752D01*
X4031995Y3847337D01*
X4031995Y3831844D01*
X4021581Y3821429D01*
X4006088Y3816350D01*
X3985259Y3816350D01*
X3969765Y3821429D01*
X3959352Y3831844D01*
X4066286Y3925315D02*
G01*
X4066286Y3816350D01*
X4066286Y3925315D02*
G01*
X4113022Y3925315D01*
X4128770Y3920236D01*
X4133850Y3914902D01*
X4138929Y3904487D01*
X4138929Y3894073D01*
X4133850Y3883660D01*
X4128770Y3878579D01*
X4113022Y3873500D01*
X4066286Y3873500D01*
X4102608Y3873500D02*
G01*
X4138929Y3816350D01*
X4204461Y3925315D02*
G01*
X4188968Y3920236D01*
X4178554Y3904487D01*
X4173220Y3878579D01*
X4173220Y3863086D01*
X4178554Y3836923D01*
X4188968Y3821429D01*
X4204461Y3816350D01*
X4214875Y3816350D01*
X4230370Y3821429D01*
X4240784Y3836923D01*
X4246118Y3863086D01*
X4246118Y3878579D01*
X4240784Y3904487D01*
X4230370Y3920236D01*
X4214875Y3925315D01*
X4204461Y3925315D01*
X4332224Y3925315D02*
G01*
X4280408Y3852671D01*
X4358386Y3852671D01*
X4332224Y3925315D02*
G01*
X4332224Y3816350D01*
X4392675Y3779773D02*
G01*
X4486147Y3779773D01*
X4520438Y3925315D02*
G01*
X4520438Y3816350D01*
X4520438Y3925315D02*
G01*
X4567174Y3925315D01*
X4582668Y3920236D01*
X4588002Y3914902D01*
X4593081Y3904487D01*
X4593081Y3894073D01*
X4588002Y3883660D01*
X4582668Y3878579D01*
X4567174Y3873500D01*
X4520438Y3873500D01*
X4556759Y3873500D02*
G01*
X4593081Y3816350D01*
X4627372Y3925315D02*
G01*
X4627372Y3816350D01*
X4627372Y3925315D02*
G01*
X4674108Y3925315D01*
X4689856Y3920236D01*
X4694936Y3914902D01*
X4700270Y3904487D01*
X4700270Y3888994D01*
X4694936Y3878579D01*
X4689856Y3873500D01*
X4674108Y3868165D01*
X4627372Y3868165D01*
X6680200Y4179315D02*
G01*
X6680200Y4070350D01*
X6680200Y4179315D02*
G01*
X6726936Y4179315D01*
X6742429Y4174236D01*
X6747763Y4168902D01*
X6752843Y4158487D01*
X6752843Y4148073D01*
X6747763Y4137660D01*
X6742429Y4132579D01*
X6726936Y4127500D01*
X6680200Y4127500D01*
X6716522Y4127500D02*
G01*
X6752843Y4070350D01*
X6787134Y4033773D02*
G01*
X6880859Y4033773D01*
X6915150Y4179315D02*
G01*
X6915150Y4070350D01*
X6915150Y4070350D02*
G01*
X6977379Y4070350D01*
X7011670Y4179315D02*
G01*
X7011670Y4070350D01*
X7011670Y4179315D02*
G01*
X7079234Y4179315D01*
X7011670Y4127500D02*
G01*
X7053325Y4127500D01*
X7011670Y4070350D02*
G01*
X7079234Y4070350D01*
X7113524Y4179315D02*
G01*
X7113524Y4070350D01*
X7113524Y4179315D02*
G01*
X7149845Y4179315D01*
X7165340Y4174236D01*
X7175754Y4163821D01*
X7181088Y4153407D01*
X7186168Y4137660D01*
X7186168Y4111752D01*
X7181088Y4096257D01*
X7175754Y4085844D01*
X7165340Y4075429D01*
X7149845Y4070350D01*
X7113524Y4070350D01*
X2780284Y2208021D02*
G01*
X2889250Y2208021D01*
X2780284Y2171700D02*
G01*
X2780284Y2244344D01*
X2780284Y2278634D02*
G01*
X2889250Y2278634D01*
X2780284Y2278634D02*
G01*
X2780284Y2325370D01*
X2785363Y2341118D01*
X2790697Y2346197D01*
X2801111Y2351531D01*
X2811525Y2351531D01*
X2821940Y2346197D01*
X2827020Y2341118D01*
X2832100Y2325370D01*
X2832100Y2278634D01*
X2832100Y2315210D02*
G01*
X2889250Y2351531D01*
X2780284Y2427223D02*
G01*
X2889250Y2385821D01*
X2780284Y2427223D02*
G01*
X2889250Y2468879D01*
X2852927Y2401315D02*
G01*
X2852927Y2453386D01*
X2780284Y2503170D02*
G01*
X2889250Y2503170D01*
X2780284Y2503170D02*
G01*
X2889250Y2575813D01*
X2780284Y2575813D02*
G01*
X2889250Y2575813D01*
X2925825Y2610104D02*
G01*
X2925825Y2703829D01*
X2780284Y2738120D02*
G01*
X2889250Y2738120D01*
X2780284Y2738120D02*
G01*
X2780284Y2784855D01*
X2785363Y2800350D01*
X2790697Y2805429D01*
X2801111Y2810763D01*
X2816606Y2810763D01*
X2827020Y2805429D01*
X2832100Y2800350D01*
X2837434Y2784855D01*
X2837434Y2738120D01*
X2780284Y2845054D02*
G01*
X2858261Y2845054D01*
X2873756Y2850134D01*
X2884170Y2860547D01*
X2889250Y2876295D01*
X2889250Y2886710D01*
X2884170Y2902204D01*
X2873756Y2912618D01*
X2858261Y2917697D01*
X2780284Y2917697D01*
X2780284Y2951987D02*
G01*
X2889250Y2951987D01*
X2780284Y2951987D02*
G01*
X2889250Y2993644D01*
X2780284Y3035300D02*
G01*
X2889250Y2993644D01*
X2780284Y3035300D02*
G01*
X2889250Y3035300D01*
X2780284Y3069589D02*
G01*
X2889250Y3069589D01*
X2780284Y3069589D02*
G01*
X2780284Y3116326D01*
X2785363Y3131820D01*
X2790697Y3136900D01*
X2801111Y3142234D01*
X2816606Y3142234D01*
X2827020Y3136900D01*
X2832100Y3131820D01*
X2837434Y3116326D01*
X2837434Y3069589D01*
X5779261Y5203413D02*
G01*
X5779261Y5125435D01*
X5784341Y5109941D01*
X5794756Y5099527D01*
X5810504Y5094447D01*
X5820918Y5094447D01*
X5836411Y5099527D01*
X5846825Y5109941D01*
X5851906Y5125435D01*
X5851906Y5203413D01*
X5891529Y5177505D02*
G01*
X5891529Y5182585D01*
X5896609Y5192999D01*
X5901943Y5198333D01*
X5912358Y5203413D01*
X5932931Y5203413D01*
X5943345Y5198333D01*
X5948679Y5192999D01*
X5953759Y5182585D01*
X5953759Y5172171D01*
X5948679Y5161757D01*
X5938265Y5146263D01*
X5886195Y5094447D01*
X5959093Y5094447D01*
X5473700Y1554683D02*
G01*
X5473700Y1632661D01*
X5468620Y1648155D01*
X5458206Y1658569D01*
X5442458Y1663649D01*
X5432043Y1663649D01*
X5416550Y1658569D01*
X5406136Y1648155D01*
X5401056Y1632661D01*
X5401056Y1554683D01*
X5356352Y1554683D02*
G01*
X5299202Y1554683D01*
X5330190Y1596339D01*
X5314695Y1596339D01*
X5304281Y1601419D01*
X5299202Y1606499D01*
X5293868Y1622247D01*
X5293868Y1632661D01*
X5299202Y1648155D01*
X5309615Y1658569D01*
X5325109Y1663649D01*
X5340604Y1663649D01*
X5356352Y1658569D01*
X5361431Y1653489D01*
X5366765Y1643075D01*
D10*
X890498Y1751711D02*
G01*
X190500Y1751711D01*
X190500Y1751711D02*
G01*
X190500Y3000629D01*
X894079Y3000629D02*
G01*
X194081Y3000629D01*
X891539Y1751711D02*
G01*
X891539Y1848230D01*
X891539Y1848230D02*
G01*
X891539Y1891411D01*
X833120Y1891411D01*
X833120Y2104770D01*
X886460Y2104770D01*
X886460Y2145411D01*
X840739Y2145411D01*
X886460Y2107311D02*
G01*
X886460Y2145411D01*
X833120Y2145411D01*
X833120Y2351151D01*
X885697Y2351151D01*
X885697Y2397125D01*
X839978Y2397125D01*
X886460Y2351151D02*
G01*
X886460Y2396870D01*
X833120Y2396870D01*
X833120Y2602864D01*
X881379Y2602864D01*
X881379Y2643504D01*
X835660Y2643504D01*
X833120Y2642488D02*
G01*
X833120Y2702940D01*
X833120Y2858388D01*
X894079Y2858388D01*
X894079Y3000629D01*
X915898Y3237611D02*
G01*
X215900Y3237611D01*
X215900Y3237611D02*
G01*
X215900Y4486529D01*
X919479Y4486529D02*
G01*
X219481Y4486529D01*
X916939Y3237611D02*
G01*
X916939Y3334130D01*
X916939Y3334130D02*
G01*
X916939Y3377311D01*
X858520Y3377311D01*
X858520Y3590670D01*
X911860Y3590670D01*
X911860Y3631311D01*
X866139Y3631311D01*
X911860Y3593211D02*
G01*
X911860Y3631311D01*
X858520Y3631311D01*
X858520Y3837051D01*
X911097Y3837051D01*
X911097Y3883025D01*
X865378Y3883025D01*
X911860Y3837051D02*
G01*
X911860Y3882770D01*
X858520Y3882770D01*
X858520Y4088764D01*
X906779Y4088764D01*
X906779Y4129404D01*
X861060Y4129404D01*
X858520Y4128388D02*
G01*
X858520Y4188840D01*
X858520Y4344288D01*
X919479Y4344288D01*
X919479Y4486529D01*
X7061200Y4543552D02*
G01*
X7315987Y4543018D01*
X7785100Y609600D02*
G01*
X7785100Y101600D01*
X2705100Y609600D02*
G01*
X7785100Y609600D01*
X2705100Y609600D02*
G01*
X2705100Y101600D01*
X2705100Y101600D02*
G01*
X7785100Y101600D01*
X228600Y673100D02*
G01*
X292100Y673100D01*
X292100Y977900D01*
X219702Y977900D01*
X799696Y450499D02*
G01*
X799696Y1200500D01*
X799696Y450499D02*
G01*
X219702Y450499D01*
X219702Y1200500D01*
X799696Y1200500D01*
X219710Y766665D02*
G01*
X219710Y742789D01*
X5283200Y3937000D02*
G01*
X5257800Y3937000D01*
X5791200Y3937000D02*
G01*
X5816600Y3937000D01*
X5283200Y3937000D02*
G01*
X5283200Y4013200D01*
X5283200Y3860800D02*
G01*
X5283200Y3937000D01*
X5791200Y3860800D02*
G01*
X5283200Y3860800D01*
X5791200Y3937000D02*
G01*
X5791200Y3860800D01*
X5791200Y4013200D02*
G01*
X5791200Y3937000D01*
X5283200Y4013200D02*
G01*
X5791200Y4013200D01*
X3263900Y3340100D02*
G01*
X3238500Y3340100D01*
X3771900Y3340100D02*
G01*
X3797300Y3340100D01*
X3263900Y3340100D02*
G01*
X3263900Y3416300D01*
X3263900Y3263900D02*
G01*
X3263900Y3340100D01*
X3771900Y3263900D02*
G01*
X3263900Y3263900D01*
X3771900Y3340100D02*
G01*
X3771900Y3263900D01*
X3771900Y3416300D02*
G01*
X3771900Y3340100D01*
X3263900Y3416300D02*
G01*
X3771900Y3416300D01*
X3251200Y3683000D02*
G01*
X3225800Y3683000D01*
X3759200Y3683000D02*
G01*
X3784600Y3683000D01*
X3251200Y3683000D02*
G01*
X3251200Y3759200D01*
X3251200Y3606800D02*
G01*
X3251200Y3683000D01*
X3759200Y3606800D02*
G01*
X3251200Y3606800D01*
X3759200Y3683000D02*
G01*
X3759200Y3606800D01*
X3759200Y3759200D02*
G01*
X3759200Y3683000D01*
X3251200Y3759200D02*
G01*
X3759200Y3759200D01*
X6426200Y3937000D02*
G01*
X6400800Y3937000D01*
X6934200Y3937000D02*
G01*
X6959600Y3937000D01*
X6426200Y3937000D02*
G01*
X6426200Y4013200D01*
X6426200Y3860800D02*
G01*
X6426200Y3937000D01*
X6934200Y3860800D02*
G01*
X6426200Y3860800D01*
X6934200Y3937000D02*
G01*
X6934200Y3860800D01*
X6934200Y4013200D02*
G01*
X6934200Y3937000D01*
X6426200Y4013200D02*
G01*
X6934200Y4013200D01*
X3335020Y1983945D02*
G01*
X3334981Y2384844D01*
D23*
X6108700Y4445223D02*
G01*
X6108700Y4604735D01*
X5981700Y4604735D01*
X5981700Y4445223D01*
X5854700Y4445223D02*
G01*
X5854700Y4604735D01*
X5727700Y4604735D01*
X5727700Y4445223D01*
X5600700Y4445223D02*
G01*
X5600700Y4604735D01*
X5473700Y4604735D01*
X5473700Y4445223D01*
X5160263Y4445223D02*
G01*
X6172200Y4445223D01*
X6422136Y4445223D01*
X6422136Y4449287D02*
G01*
X6422136Y4795235D01*
X6422136Y5045171D01*
X6172200Y5045171D01*
X5160263Y5045171D01*
X5160263Y4795235D01*
X5160263Y4449287D01*
D10*
X4708243Y2491399D02*
G01*
X4613556Y2491399D01*
X4962243Y2491399D02*
G01*
X4867556Y2491399D01*
X5216243Y2491399D02*
G01*
X5121556Y2491399D01*
X5470243Y2491399D02*
G01*
X5375556Y2491399D01*
X5724243Y2491399D02*
G01*
X5629556Y2491399D01*
X5978243Y2491399D02*
G01*
X5883556Y2491399D01*
X6197897Y2491399D02*
G01*
X6137556Y2491399D01*
X4685286Y1838401D02*
G01*
X4636513Y1838401D01*
X4939286Y1838401D02*
G01*
X4890513Y1838401D01*
X5193286Y1838401D02*
G01*
X5144513Y1838401D01*
X5447286Y1838401D02*
G01*
X5398513Y1838401D01*
X5701286Y1838401D02*
G01*
X5652513Y1838401D01*
X5955286Y1838401D02*
G01*
X5906513Y1838401D01*
X6209286Y1838401D02*
G01*
X6160513Y1838401D01*
X6382895Y2259281D02*
G01*
X6382895Y2456294D01*
X6382898Y2109401D02*
G01*
X6382898Y1885850D01*
X4457900Y2487609D02*
G01*
X4457900Y1881190D01*
G75*
G01*
X7314743Y4543552D02*
G03*
X7061251Y4543552I-126746J154710D01*
G75*
G01*
X3335002Y2384844D02*
G03*
X3334982Y1983946I-134345J-200442D01*
G75*
G01*
X6382898Y2109401D02*
G02*
X6382896Y2259282I-1J74941D01*
G75*
G01
X6468897Y2600401D02*
G03X6468897Y2600401I-10008J0D01*
M02*
