G04 Layer: TopSolderMaskLayer*
G04 EasyEDA v6.4.25, 2021-11-13T19:12:50+01:00*
G04 31547cc466d84fccb4009b5d61a499b9,d3ae98efc0754b289f344a683f097ee4,10*
G04 Gerber Generator version 0.2*
G04 Scale: 100 percent, Rotated: No, Reflected: No *
G04 Dimensions in millimeters *
G04 leading zeros omitted , absolute positions ,4 integer and 5 decimal *
%FSLAX45Y45*%
%MOMM*%

%ADD25C,1.0016*%
%ADD26C,1.9016*%
%ADD27C,1.7526*%
%ADD28C,1.7016*%
%ADD30C,1.8000*%
%ADD31C,1.9812*%
%ADD34C,1.3970*%
%ADD36C,1.8016*%
%ADD37C,5.7032*%

%LPD*%
D25*
X3165401Y2184400D02*
G01*
X3235401Y2184400D01*
X3165401Y2311400D02*
G01*
X3235401Y2311400D01*
D26*
G01*
X939800Y1999869D03*
G01*
X939800Y2250059D03*
G01*
X939800Y2499995D03*
G01*
X939800Y2749930D03*
G01*
X965200Y3485769D03*
G01*
X965200Y3735959D03*
G01*
X965200Y3985895D03*
G01*
X965200Y4235830D03*
D27*
G01*
X7188200Y4838700D03*
G01*
X7188200Y4584700D03*
D28*
G01*
X7658100Y482600D03*
G01*
X7658100Y228600D03*
G01*
X7404100Y482600D03*
G01*
X7404100Y228600D03*
G01*
X7150100Y482600D03*
G01*
X7150100Y228600D03*
G01*
X6896100Y482600D03*
G01*
X6896100Y228600D03*
G01*
X6642100Y482600D03*
G01*
X6642100Y228600D03*
G01*
X6388100Y482600D03*
G01*
X6388100Y228600D03*
G01*
X6134100Y482600D03*
G01*
X6134100Y228600D03*
G01*
X5880100Y482600D03*
G01*
X5880100Y228600D03*
G01*
X5626100Y482600D03*
G01*
X5626100Y228600D03*
G01*
X5372100Y482600D03*
G01*
X5372100Y228600D03*
G01*
X5118100Y482600D03*
G01*
X5118100Y228600D03*
G01*
X4864100Y482600D03*
G01*
X4864100Y228600D03*
G01*
X4610100Y482600D03*
G01*
X4610100Y228600D03*
G01*
X4356100Y482600D03*
G01*
X4356100Y228600D03*
G01*
X4102100Y482600D03*
G01*
X4102100Y228600D03*
G01*
X3848100Y482600D03*
G01*
X3848100Y228600D03*
G01*
X3594100Y482600D03*
G01*
X3594100Y228600D03*
G01*
X3340100Y482600D03*
G01*
X3340100Y228600D03*
G01*
X3086100Y482600D03*
G01*
X3086100Y228600D03*
G01*
X2832100Y482600D03*
G36*
X2747009Y143510D02*
G01*
X2747009Y313689D01*
X2917190Y313689D01*
X2917190Y143510D01*
G37*
D30*
G01*
X457200Y700498D03*
G01*
X457200Y950511D03*
D31*
G01*
X5156200Y3937000D03*
G01*
X5918200Y3937000D03*
G01*
X3136900Y3340100D03*
G01*
X3898900Y3340100D03*
G01*
X3124200Y3683000D03*
G01*
X3886200Y3683000D03*
G01*
X6299200Y3937000D03*
G01*
X7061200Y3937000D03*
G36*
X3115309Y2007362D02*
G01*
X3115309Y2107437D01*
X3285490Y2107437D01*
X3285490Y2007362D01*
G37*
G36*
X5340350Y4725415D02*
G01*
X5340350Y4865115D01*
X5480050Y4865115D01*
X5480050Y4725415D01*
G37*
D34*
G01*
X5664200Y4795235D03*
G01*
X5918200Y4795235D03*
G01*
X6172200Y4795235D03*
G36*
X6221729Y2474213D02*
G01*
X6221729Y2654554D01*
X6402070Y2654554D01*
X6402070Y2474213D01*
G37*
D36*
G01*
X6057900Y2564409D03*
G01*
X4787900Y2564409D03*
G01*
X4533900Y2564409D03*
G01*
X5803900Y2564409D03*
G01*
X5549900Y2564409D03*
G01*
X5041900Y2564409D03*
G01*
X5295900Y2564409D03*
G01*
X4533900Y1804390D03*
G01*
X4787900Y1804390D03*
G01*
X5041900Y1804390D03*
G01*
X5295900Y1804390D03*
G01*
X5549900Y1804390D03*
G01*
X5803900Y1804390D03*
G01*
X6057900Y1804390D03*
G01*
X6311900Y1804390D03*
D37*
G01*
X2349500Y5257800D03*
G01*
X8153400Y5257800D03*
G01*
X8140700Y355600D03*
G01*
X2349500Y355600D03*
M02*
