M48
METRIC,LZ,000.000
;FILE_FORMAT=3:3
;TYPE=PLATED
;Layer: Drill PTH
;EasyEDA v6.4.25, 2021-11-13T19:12:50+01:00
;31547cc466d84fccb4009b5d61a499b9,d3ae98efc0754b289f344a683f097ee4,10
;Gerber Generator version 0.2
;Holesize 1 = 0.701 mm
T01C0.701
;Holesize 2 = 0.712 mm
T02C0.712
;Holesize 3 = 0.900 mm
T03C0.900
;Holesize 4 = 0.901 mm
T04C0.901
;Holesize 5 = 1.000 mm
T05C1.000
;Holesize 6 = 1.050 mm
T06C1.050
;Holesize 7 = 1.199 mm
T07C1.199
;Holesize 8 = 3.000 mm
T08C3.000
%
G05
G90
T01
X032004Y020574
X032004Y021844
X032004Y023114
T02
X054102Y047952
X056642Y047952
X059182Y047952
X061722Y047952
T03
X051562Y039370
X059182Y039370
X031369Y033401
X038989Y033401
X031242Y036830
X038862Y036830
X062992Y039370
X070612Y039370
T04
X071882Y048387
X071882Y045847
T05
X076581Y004826
X076581Y002286
X074041Y004826
X074041Y002286
X071501Y004826
X071501Y002286
X068961Y004826
X068961Y002286
X066421Y004826
X066421Y002286
X063881Y004826
X063881Y002286
X061341Y004826
X061341Y002286
X058801Y004826
X058801Y002286
X056261Y004826
X056261Y002286
X053721Y004826
X053721Y002286
X051181Y004826
X051181Y002286
X048641Y004826
X048641Y002286
X046101Y004826
X046101Y002286
X043561Y004826
X043561Y002286
X041021Y004826
X041021Y002286
X038481Y004826
X038481Y002286
X035941Y004826
X035941Y002286
X033401Y004826
X033401Y002286
X030861Y004826
X030861Y002286
X028321Y004826
X028321Y002286
X063119Y025644
X060579Y025644
X047879Y025644
X045339Y025644
X058039Y025644
X055499Y025644
X050419Y025644
X052959Y025644
X045339Y018044
X047879Y018044
X050419Y018044
X052959Y018044
X055499Y018044
X058039Y018044
X060579Y018044
X063119Y018044
T06
X004572Y007005
X004572Y009505
T07
X009398Y019999
X009398Y022501
X009398Y025000
X009398Y027499
X009652Y034858
X009652Y037360
X009652Y039859
X009652Y042358
T08
X023495Y052578
X081534Y052578
X081407Y003556
X023495Y003556
M30
