<svg width="1000" height="1000" viewBox="0 0 1000 1000" fill="none" xmlns="http://www.w3.org/2000/svg">
<path d="M298 500.5C298 389.215 388.215 299 499.5 299C610.785 299 701 389.215 701 500.5C701 611.785 610.785 702 499.5 702C388.215 702 298 611.785 298 500.5Z" fill="white"/>
<path fill-rule="evenodd" clip-rule="evenodd" d="M499.5 329C404.783 329 328 405.783 328 500.5C328 595.217 404.783 672 499.5 672C594.217 672 671 595.217 671 500.5C671 405.783 594.217 329 499.5 329ZM499.5 299C388.215 299 298 389.215 298 500.5C298 611.785 388.215 702 499.5 702C610.785 702 701 611.785 701 500.5C701 389.215 610.785 299 499.5 299Z" fill="#48484A"/>
<path d="M619 534C619 534 619.001 555.5 596.5 582C566.783 617 528.499 623 528.499 623" stroke="#48484A" stroke-width="30" stroke-linecap="round"/>
</svg>
