<svg width="1000" height="1000" viewBox="0 0 1000 1000" fill="none" xmlns="http://www.w3.org/2000/svg">
<path d="M490.028 580.936C439.758 578.376 396.348 534.396 394.378 484.106C392.748 442.156 416.458 398.866 451.508 378.406C429.393 362.59 403.429 353.017 376.341 350.689C349.252 348.362 322.036 353.366 297.547 365.176C273.058 376.987 252.198 395.17 237.155 417.817C222.112 440.465 213.44 466.743 212.048 493.896C211.953 495.979 211.06 497.946 209.553 499.389C208.047 500.832 206.044 501.64 203.958 501.646H193.668C125.118 501.646 70.3977 573.876 73.0977 643.026C75.4577 703.376 127.558 756.146 187.868 759.226H611.158C662.458 760.026 710.688 713.326 711.828 655.166C712.318 627.538 701.832 600.843 682.668 580.936H490.028Z" fill="#848B8C"/>
<path d="M612.427 774.205H187.487H187.107C154.187 772.525 122.567 757.945 98.1068 733.145C73.6468 708.345 59.4268 676.555 58.1068 643.615C56.4868 602.095 73.3768 558.745 103.267 527.615C128.707 501.175 160.807 486.615 193.667 486.615H197.517C200.165 457.406 210.481 429.414 227.421 405.472C244.36 381.529 267.322 362.485 293.985 350.266C320.647 338.046 350.063 333.085 379.259 335.884C408.454 338.683 436.392 349.143 460.247 366.205L479.057 379.685L459.057 391.345C428.377 409.255 407.937 447.155 409.357 483.505C411.017 525.905 448.087 563.565 490.357 565.925H689.037L693.477 570.585C704.326 581.851 712.851 595.144 718.562 609.704C724.274 624.264 727.062 639.807 726.767 655.445C726.124 687.141 713.283 717.368 690.917 739.835C669.337 761.745 640.787 774.205 612.427 774.205ZM611.157 744.205H612.497C656.617 744.205 695.897 702.745 696.837 654.845C697.235 633.32 689.816 612.38 675.957 595.905H489.637H489.257C461.197 594.475 434.257 582.055 413.417 560.905C392.577 539.755 380.487 512.715 379.417 484.635C378.507 461.425 384.247 437.695 396.027 415.995C403.383 402.289 413.048 389.955 424.597 379.535C404.304 369.373 381.799 364.427 359.115 365.145C336.431 365.863 314.284 372.222 294.674 383.647C275.065 395.072 258.611 411.204 246.8 430.583C234.989 449.963 228.194 471.98 227.027 494.645C226.739 500.572 224.184 506.162 219.89 510.257C215.595 514.352 209.891 516.639 203.957 516.645H193.667C169.037 516.645 144.617 527.945 124.897 548.455C100.537 573.775 86.7768 608.915 88.0868 642.455C90.0868 694.835 135.967 741.365 188.267 744.235L611.157 744.205Z" fill="#48484A"/>
<path d="M266.727 488.766H265.957C263.987 488.667 262.056 488.181 260.275 487.335C258.493 486.49 256.896 485.301 255.574 483.837C254.252 482.373 253.232 480.663 252.572 478.804C251.912 476.946 251.625 474.975 251.727 473.006C252.895 449.759 262.959 427.852 279.833 411.821C296.708 395.79 319.102 386.862 342.377 386.886C346.356 386.886 350.171 388.466 352.984 391.279C355.797 394.092 357.377 397.908 357.377 401.886C357.377 405.864 355.797 409.679 352.984 412.492C350.171 415.305 346.356 416.886 342.377 416.886C326.803 416.876 311.821 422.855 300.532 433.584C289.243 444.313 282.51 458.971 281.727 474.526C281.532 478.371 279.866 481.994 277.074 484.644C274.282 487.295 270.577 488.771 266.727 488.766V488.766Z" fill="white"/>
<path d="M594.557 739.206C590.578 739.206 586.763 737.625 583.95 734.812C581.137 731.999 579.557 728.184 579.557 724.206C579.557 720.227 581.137 716.412 583.95 713.599C586.763 710.786 590.578 709.206 594.557 709.206C610.135 709.225 625.125 703.253 636.421 692.524C647.717 681.796 654.454 667.134 655.237 651.576C655.437 647.597 657.209 643.862 660.164 641.19C663.119 638.519 667.013 637.13 670.992 637.331C674.97 637.531 678.706 639.303 681.377 642.258C684.049 645.212 685.437 649.107 685.237 653.086C684.066 676.336 673.998 698.246 657.117 714.278C640.237 730.31 617.837 739.235 594.557 739.206Z" fill="#48484A"/>
<path d="M125.176 637.555C121.298 637.558 117.57 636.059 114.773 633.372C111.976 630.686 110.329 627.02 110.176 623.145C109.286 600.385 118.506 576.655 134.846 559.675C148.986 544.965 166.956 536.865 185.446 536.865H190.596C194.574 536.865 198.39 538.446 201.203 541.259C204.016 544.072 205.596 547.887 205.596 551.865C205.596 555.843 204.016 559.659 201.203 562.472C198.39 565.285 194.574 566.865 190.596 566.865H185.446C175.196 566.865 164.906 571.695 156.446 580.465C145.816 591.525 139.566 607.465 140.136 621.975C140.29 625.949 138.86 629.822 136.16 632.742C133.459 635.661 129.71 637.389 125.736 637.545L125.176 637.555Z" fill="white"/>
<path d="M842.727 404.376C842 404.33 841.291 404.135 840.643 403.803C839.995 403.471 839.422 403.01 838.961 402.447C838.499 401.884 838.158 401.232 837.96 400.531C837.761 399.831 837.709 399.097 837.807 398.376C838.067 396.296 838.297 394.076 838.327 392.446C838.475 384.117 836.563 375.881 832.76 368.471C828.956 361.06 823.381 354.704 816.528 349.968C809.676 345.232 801.759 342.264 793.482 341.327C785.205 340.389 776.825 341.512 769.087 344.596C768.15 344.97 767.143 345.135 766.136 345.079C765.128 345.023 764.145 344.747 763.256 344.271C762.367 343.794 761.593 343.129 760.988 342.321C760.384 341.513 759.964 340.583 759.757 339.596C753.288 309.68 736.175 283.131 711.599 264.888C687.023 246.644 656.658 237.947 626.15 240.414C595.643 242.881 567.069 256.344 545.744 278.3C524.419 300.256 511.794 329.209 510.217 359.776C510.14 361.513 509.396 363.153 508.141 364.356C506.886 365.559 505.215 366.232 503.477 366.236H494.907C437.777 366.236 392.187 426.426 394.427 484.056C396.427 534.346 439.807 578.326 490.077 580.886H842.727C885.477 581.556 925.667 542.636 926.617 494.166C927.587 446.586 889.447 407.386 842.727 404.376Z" fill="#C1CDD0"/>
<path d="M490.028 595.936H489.258C461.258 594.506 434.257 582.086 413.417 560.936C392.577 539.786 380.487 512.746 379.417 484.666C378.037 449.406 392.368 412.596 417.738 386.206C439.408 363.676 466.808 351.266 494.878 351.266H495.818C499.305 318.633 514.045 288.233 537.506 265.284C560.966 242.335 591.685 228.27 624.386 225.503C657.088 222.736 689.732 231.44 716.715 250.121C743.699 268.802 763.336 296.293 772.258 327.876C777.54 326.593 782.962 325.969 788.398 326.016C805.467 326.221 821.787 333.061 833.901 345.089C846.015 357.117 852.971 373.388 853.297 390.456C876.31 394.088 897.465 405.255 913.448 422.206C932.018 441.626 942.158 467.6 941.658 494.466C941.097 521.508 930.137 547.294 911.057 566.466C892.557 585.196 868.118 595.866 843.828 595.866H490.028V595.936ZM842.768 565.936H843.878C879.338 565.936 910.878 532.516 911.658 493.936C912.438 455.356 881.038 421.936 841.718 419.366C838.949 419.187 836.247 418.444 833.777 417.181C831.307 415.917 829.122 414.162 827.356 412.022C825.591 409.882 824.283 407.403 823.513 404.737C822.742 402.072 822.526 399.278 822.878 396.526C823.228 393.736 823.278 392.526 823.288 392.226C823.393 386.371 822.05 380.58 819.378 375.37C816.705 370.159 812.786 365.69 807.969 362.359C803.152 359.029 797.587 356.941 791.768 356.281C785.95 355.621 780.058 356.409 774.618 358.576C771.654 359.762 768.467 360.287 765.28 360.113C762.093 359.94 758.982 359.072 756.164 357.571C753.347 356.07 750.892 353.972 748.97 351.423C747.048 348.875 745.706 345.937 745.038 342.816C734.118 291.956 688.368 255.046 636.268 255.046C607.738 255.015 580.29 265.956 559.605 285.604C538.92 305.252 526.583 332.103 525.148 360.596C524.88 366.177 522.476 371.441 518.432 375.297C514.388 379.153 509.015 381.305 503.427 381.306H494.858C475.018 381.306 455.308 390.446 439.348 407.046C419.508 427.666 408.348 456.266 409.348 483.536C411.008 525.936 448.078 563.596 490.408 565.956L842.768 565.936Z" fill="#48484A"/>
<path d="M563.046 358.056H562.276C558.304 357.854 554.574 356.082 551.907 353.131C549.24 350.179 547.855 346.289 548.056 342.316C549.048 322.305 557.701 303.443 572.223 289.64C586.745 275.837 606.021 268.151 626.056 268.176C630.035 268.176 633.85 269.756 636.663 272.569C639.476 275.382 641.056 279.198 641.056 283.176C641.056 287.154 639.476 290.969 636.663 293.782C633.85 296.595 630.035 298.176 626.056 298.176C613.716 298.16 601.842 302.891 592.894 311.389C583.945 319.887 578.608 331.501 577.986 343.826C577.789 347.659 576.131 351.27 573.352 353.917C570.572 356.564 566.884 358.046 563.046 358.056Z" fill="white"/>
<path d="M828.928 559.705C824.949 559.705 821.134 558.125 818.321 555.312C815.508 552.499 813.928 548.684 813.928 544.705C813.928 540.727 815.508 536.912 818.321 534.099C821.134 531.286 824.949 529.705 828.928 529.705C853.348 529.705 871.348 510.925 872.698 484.045C872.898 480.067 874.67 476.331 877.625 473.66C880.58 470.988 884.475 469.6 888.453 469.8C892.431 470 896.167 471.773 898.838 474.728C901.51 477.682 902.898 481.577 902.698 485.555C900.498 528.515 869.488 559.705 828.928 559.705Z" fill="#48484A"/>
<path d="M442.877 482.275C438.999 482.278 435.271 480.779 432.474 478.092C429.677 475.406 428.03 471.74 427.877 467.865C427.107 448.235 435.057 427.775 449.127 413.145C461.387 400.395 477.007 393.375 493.127 393.375H497.417C501.396 393.375 505.211 394.955 508.024 397.768C510.837 400.581 512.417 404.397 512.417 408.375C512.417 412.353 510.837 416.169 508.024 418.982C505.211 421.795 501.396 423.375 497.417 423.375H493.127C485.267 423.375 477.337 427.125 470.777 433.935C462.377 442.675 457.437 455.225 457.877 466.695C458.032 470.669 456.601 474.542 453.901 477.461C451.201 480.381 447.451 482.109 443.477 482.265L442.877 482.275Z" fill="white"/>
</svg>
