<svg width="1000" height="1000" viewBox="0 0 1000 1000" fill="none" xmlns="http://www.w3.org/2000/svg">
<path d="M718.521 538.67C792.157 538.67 851.851 478.976 851.851 405.34C851.851 331.704 792.157 272.01 718.521 272.01C644.885 272.01 585.191 331.704 585.191 405.34C585.191 478.976 644.885 538.67 718.521 538.67Z" fill="#FFCD00"/>
<path d="M718.521 553.67C636.731 553.67 570.191 487.13 570.191 405.34C570.191 323.55 636.731 257 718.521 257C800.311 257 866.851 323.55 866.851 405.34C866.851 487.13 800.311 553.67 718.521 553.67ZM718.521 287C695.116 286.998 672.235 293.937 652.772 306.939C633.31 319.941 618.141 338.423 609.182 360.046C600.224 381.67 597.879 405.464 602.444 428.421C607.009 451.377 618.279 472.464 634.829 489.016C651.379 505.567 672.465 516.838 695.421 521.405C718.377 525.972 742.172 523.629 763.796 514.673C785.42 505.716 803.903 490.548 816.907 471.087C829.911 451.626 836.851 428.746 836.851 405.34C836.817 373.967 824.339 343.888 802.156 321.703C779.973 299.517 749.895 287.037 718.521 287V287Z" fill="#48484A"/>
<path d="M740.857 495.816C739.901 495.755 738.967 495.499 738.114 495.063C737.26 494.627 736.505 494.02 735.896 493.28C735.287 492.541 734.836 491.684 734.571 490.763C734.306 489.842 734.234 488.876 734.357 487.926C734.707 485.196 735.007 482.256 735.047 480.096C735.244 469.103 732.72 458.232 727.7 448.45C722.681 438.669 715.321 430.28 706.276 424.029C697.231 417.779 686.781 413.862 675.856 412.626C664.931 411.39 653.87 412.874 643.658 416.946C642.421 417.439 641.092 417.657 639.763 417.584C638.434 417.511 637.137 417.148 635.963 416.522C634.789 415.895 633.765 415.019 632.965 413.956C632.164 412.893 631.605 411.667 631.327 410.366C625.101 381.907 611.59 355.553 592.117 333.886C590.117 331.686 588.498 329.956 586.408 327.886C563.634 305.044 534.721 289.303 503.177 282.57C471.633 275.837 438.812 278.402 408.697 289.954C378.582 301.507 352.467 321.549 333.518 347.652C314.57 373.754 303.603 404.793 301.947 437.006C301.845 439.299 300.863 441.464 299.205 443.053C297.548 444.641 295.343 445.53 293.047 445.536H281.727C206.317 445.536 146.137 524.986 149.107 601.056C151.697 667.436 209.007 725.486 275.347 728.866H740.967C797.397 729.746 850.457 678.376 851.707 614.406C852.577 569.656 827.807 530.816 790.917 510.546C788.917 509.466 786.438 508.166 784.398 507.186C770.742 500.653 755.963 496.793 740.857 495.816V495.816Z" fill="#C1CDD0"/>
<path d="M742.367 743.865H274.967H274.587C238.747 742.045 204.327 726.155 177.647 699.145C150.967 672.135 135.517 637.515 134.117 601.655C132.347 556.385 150.757 509.115 183.367 475.205C211.057 446.415 245.987 430.555 281.727 430.555H287.337C290.197 395.996 302.888 362.977 323.911 335.399C344.934 307.821 373.41 286.836 405.977 274.923C438.544 263.01 473.84 260.667 507.695 268.17C541.551 275.673 572.553 292.709 597.037 317.265C599.397 319.645 601.207 321.555 603.287 323.865C623.017 345.804 637.151 372.186 644.487 400.765C656.818 397.031 669.856 396.261 682.54 398.517C695.225 400.774 707.198 405.993 717.484 413.751C727.77 421.508 736.08 431.585 741.737 443.16C747.394 454.735 750.237 467.483 750.037 480.365C750.037 480.765 750.037 481.185 750.037 481.625C764.209 483.408 778.002 487.46 790.887 493.625C793.027 494.625 795.747 496.055 798.167 497.385C841.407 521.135 867.687 566.075 866.737 614.675C866.034 649.154 852.065 682.034 827.737 706.475C804.177 730.305 773.167 743.865 742.367 743.865ZM740.967 713.865H741.207C791.067 714.595 835.657 668.025 836.707 614.095C837.437 576.695 817.127 542.045 783.707 523.685C781.787 522.625 779.567 521.485 777.937 520.685C766.021 514.98 753.121 511.613 739.937 510.765C736.936 510.572 734.007 509.766 731.329 508.397C728.652 507.028 726.284 505.124 724.371 502.804C722.459 500.484 721.042 497.796 720.209 494.906C719.376 492.017 719.144 488.988 719.527 486.005C720.017 482.195 720.087 480.405 720.107 479.805C720.268 471.281 718.317 462.85 714.431 455.262C710.544 447.674 704.841 441.165 697.83 436.315C690.818 431.464 682.716 428.423 674.245 427.462C665.774 426.5 657.197 427.649 649.277 430.805C646.014 432.11 642.506 432.687 638.996 432.495C635.487 432.304 632.062 431.348 628.961 429.694C625.86 428.041 623.158 425.73 621.043 422.923C618.928 420.117 617.451 416.882 616.717 413.445C611.061 387.529 598.75 363.535 580.997 343.825C579.277 341.905 577.827 340.375 575.837 338.375C555.112 317.589 528.801 303.263 500.094 297.136C471.388 291.009 441.52 293.344 414.115 303.858C386.709 314.372 362.944 332.613 345.702 356.368C328.459 380.123 318.481 408.371 316.977 437.685C316.696 443.844 314.051 449.656 309.591 453.913C305.132 458.169 299.202 460.541 293.037 460.535H281.717C254.217 460.535 226.967 473.125 204.987 495.975C177.917 524.125 162.627 563.185 164.087 600.465C166.357 658.845 217.447 710.695 275.737 713.865H740.967Z" fill="#48484A"/>
<path d="M722.707 705.306C718.729 705.306 714.914 703.725 712.101 700.912C709.288 698.099 707.707 694.284 707.707 690.306C707.707 686.327 709.288 682.512 712.101 679.699C714.914 676.886 718.729 675.306 722.707 675.306C740.228 675.325 757.087 668.607 769.791 656.541C782.496 644.474 790.074 627.985 790.957 610.486C791.157 606.507 792.93 602.772 795.884 600.1C798.839 597.429 802.734 596.04 806.712 596.241C810.69 596.441 814.426 598.213 817.098 601.168C819.769 604.123 821.157 608.017 820.957 611.996C819.691 637.188 808.783 660.929 790.493 678.3C772.203 695.67 747.932 705.34 722.707 705.306V705.306Z" fill="#48484A"/>
<path d="M362.087 429.865H361.317C357.344 429.664 353.614 427.892 350.948 424.94C348.281 421.989 346.896 418.098 347.097 414.125C348.36 388.939 359.262 365.203 377.544 347.833C395.826 330.462 420.089 320.789 445.307 320.815C449.286 320.815 453.101 322.396 455.914 325.209C458.727 328.022 460.307 331.837 460.307 335.815C460.307 339.794 458.727 343.609 455.914 346.422C453.101 349.235 449.286 350.815 445.307 350.815C427.786 350.79 410.926 357.504 398.217 369.566C385.509 381.629 377.925 398.116 377.037 415.615C376.845 419.454 375.187 423.072 372.405 425.723C369.624 428.375 365.93 429.857 362.087 429.865V429.865Z" fill="white"/>
<path d="M206.387 593.535C202.509 593.538 198.78 592.039 195.984 589.353C193.187 586.666 191.539 583 191.387 579.125C190.387 554.485 200.387 528.795 218.107 510.405C233.377 494.525 252.767 485.775 272.687 485.775H278.347C282.325 485.775 286.14 487.356 288.954 490.169C291.767 492.982 293.347 496.797 293.347 500.775C293.347 504.754 291.767 508.569 288.954 511.382C286.14 514.195 282.325 515.775 278.347 515.775H272.687C260.997 515.775 249.297 521.255 239.687 531.195C227.687 543.645 220.687 561.555 221.327 577.955C221.481 581.929 220.051 585.802 217.35 588.722C214.65 591.641 210.901 593.369 206.927 593.525L206.387 593.535Z" fill="white"/>
</svg>
