<svg width="1000" height="1000" viewBox="0 0 1000 1000" fill="none" xmlns="http://www.w3.org/2000/svg">
<path d="M740.845 491.938C739.89 491.878 738.957 491.622 738.104 491.186C737.252 490.751 736.497 490.145 735.888 489.407C735.279 488.668 734.828 487.812 734.562 486.892C734.297 485.973 734.223 485.008 734.345 484.058C734.695 481.318 734.995 478.378 735.035 476.228C735.232 465.236 732.708 454.365 727.688 444.583C722.669 434.802 715.309 426.412 706.264 420.162C697.218 413.912 686.769 409.995 675.844 408.759C664.919 407.523 653.858 409.007 643.645 413.078C642.409 413.572 641.08 413.79 639.751 413.717C638.422 413.644 637.125 413.281 635.951 412.654C634.777 412.028 633.753 411.152 632.953 410.089C632.152 409.026 631.593 407.8 631.315 406.498C622.774 367.015 600.185 331.976 567.747 307.899C535.309 283.822 495.231 272.345 454.966 275.601C414.7 278.858 376.988 296.627 348.841 325.605C320.695 354.582 304.03 392.795 301.945 433.138C301.84 435.431 300.857 437.595 299.201 439.183C297.544 440.771 295.34 441.661 293.045 441.668H281.725C206.315 441.668 146.135 521.118 149.105 597.188C151.695 663.568 209.005 721.638 275.345 724.998H740.965C797.395 725.878 850.455 674.508 851.705 610.528C852.935 547.638 802.595 495.908 740.845 491.938Z" fill="#C1CDD0"/>
<path d="M742.367 739.998H274.967H274.587C238.757 738.168 204.327 722.288 177.647 695.278C150.967 668.268 135.517 633.638 134.117 597.768C132.347 552.498 150.767 505.218 183.377 471.318C211.067 442.518 245.997 426.668 281.727 426.668H287.337C290.891 383.831 309.517 343.641 339.906 313.241C370.294 282.841 410.477 264.199 453.312 260.628C496.148 257.058 538.862 268.79 573.865 293.739C608.867 318.689 633.89 355.24 644.487 396.898C656.818 393.162 669.857 392.39 682.543 394.646C695.229 396.901 707.203 402.12 717.491 409.878C727.779 417.636 736.089 427.713 741.747 439.289C747.404 450.866 750.248 463.615 750.047 476.498C750.047 476.898 750.047 477.318 750.047 477.748C780.927 481.653 809.486 496.18 830.827 518.838C854.48 543.557 867.394 576.631 866.747 610.838C866.039 645.315 852.071 678.193 827.747 702.638C804.177 726.428 773.167 739.998 742.367 739.998ZM740.967 709.998H742.437C791.767 709.998 835.667 663.708 836.707 610.228C837.747 556.748 794.327 510.408 739.897 506.908C736.896 506.716 733.966 505.912 731.289 504.544C728.611 503.175 726.242 501.273 724.329 498.954C722.415 496.634 720.997 493.947 720.163 491.058C719.328 488.17 719.095 485.14 719.477 482.158C719.775 480.102 719.968 478.033 720.057 475.958C720.209 467.438 718.253 459.013 714.362 451.432C710.472 443.85 704.768 437.348 697.758 432.504C690.748 427.659 682.649 424.622 674.182 423.664C665.715 422.705 657.143 423.854 649.227 427.008C645.963 428.311 642.454 428.887 638.945 428.693C635.436 428.5 632.012 427.543 628.911 425.889C625.81 424.234 623.108 421.923 620.993 419.116C618.878 416.309 617.402 413.075 616.667 409.638C601.767 340.308 539.417 289.988 468.397 289.988C429.505 289.947 392.086 304.864 363.889 331.652C335.693 358.439 318.878 395.045 316.927 433.888C316.622 440.018 313.974 445.797 309.53 450.031C305.085 454.265 299.185 456.63 293.047 456.638H281.727C254.227 456.638 226.977 469.228 204.997 492.078C177.927 520.258 162.637 559.318 164.097 596.638C166.367 655.018 217.457 706.868 275.747 710.038L740.967 709.998Z" fill="#48484A"/>
<path d="M362.085 425.998H361.325C359.357 425.9 357.428 425.414 355.648 424.57C353.867 423.725 352.271 422.538 350.949 421.077C349.628 419.615 348.607 417.907 347.946 416.051C347.285 414.195 346.996 412.226 347.095 410.258C348.361 385.072 359.263 361.338 377.545 343.968C395.827 326.598 420.088 316.924 445.305 316.948C449.284 316.948 453.099 318.529 455.912 321.342C458.725 324.155 460.305 327.97 460.305 331.948C460.305 335.927 458.725 339.742 455.912 342.555C453.099 345.368 449.284 346.948 445.305 346.948C427.783 346.926 410.924 353.644 398.219 365.711C385.514 377.777 377.936 394.268 377.055 411.768C376.858 415.606 375.195 419.222 372.41 421.87C369.624 424.518 365.929 425.996 362.085 425.998Z" fill="white"/>
<path d="M722.707 701.438C718.729 701.438 714.914 699.858 712.1 697.045C709.287 694.232 707.707 690.416 707.707 686.438C707.707 682.46 709.287 678.644 712.1 675.831C714.914 673.018 718.729 671.438 722.707 671.438C740.226 671.46 757.083 664.745 769.787 652.683C782.492 640.62 790.071 624.134 790.957 606.638C791.056 604.668 791.542 602.737 792.388 600.955C793.233 599.173 794.421 597.575 795.884 596.253C797.347 594.93 799.056 593.908 800.914 593.246C802.772 592.584 804.742 592.294 806.712 592.393C808.682 592.492 810.613 592.978 812.395 593.824C814.177 594.669 815.775 595.857 817.098 597.32C818.42 598.783 819.442 600.492 820.104 602.35C820.766 604.208 821.056 606.178 820.957 608.148C819.686 633.337 808.776 657.073 790.486 674.439C772.197 691.806 747.928 701.473 722.707 701.438V701.438Z" fill="#48484A"/>
<path d="M206.387 589.638C202.507 589.641 198.777 588.14 195.98 585.452C193.183 582.763 191.537 579.095 191.387 575.218C190.387 550.588 200.387 524.898 218.107 506.508C233.377 490.628 252.767 481.878 272.687 481.878H278.347C282.325 481.878 286.14 483.458 288.953 486.271C291.766 489.084 293.347 492.9 293.347 496.878C293.347 500.856 291.766 504.671 288.953 507.485C286.14 510.298 282.325 511.878 278.347 511.878H272.687C260.997 511.878 249.297 517.358 239.687 527.298C227.687 539.738 220.687 557.658 221.327 574.048C221.487 578.015 220.067 581.884 217.379 584.807C214.691 587.729 210.954 589.466 206.987 589.638H206.387Z" fill="white"/>
</svg>
