<svg width="1000" height="1000" viewBox="0 0 1000 1000" fill="none" xmlns="http://www.w3.org/2000/svg">
<path d="M740.857 322.928C739.902 322.867 738.969 322.611 738.116 322.176C737.264 321.74 736.509 321.135 735.9 320.396C735.291 319.658 734.84 318.802 734.574 317.882C734.309 316.962 734.235 315.997 734.357 315.048C734.707 312.308 735.007 309.378 735.047 307.218C735.244 296.225 732.72 285.354 727.7 275.573C722.681 265.791 715.321 257.402 706.276 251.152C697.231 244.902 686.781 240.984 675.856 239.748C664.931 238.513 653.87 239.996 643.657 244.068C642.421 244.562 641.092 244.78 639.763 244.706C638.434 244.633 637.137 244.271 635.963 243.644C634.789 243.017 633.765 242.142 632.965 241.078C632.164 240.015 631.605 238.79 631.327 237.488C622.794 197.996 600.207 162.948 567.766 138.863C535.326 114.778 495.242 103.296 454.97 106.554C414.698 109.811 376.98 127.585 348.832 156.57C320.684 185.555 304.023 223.778 301.947 264.128C301.842 266.42 300.859 268.584 299.203 270.172C297.546 271.76 295.342 272.65 293.047 272.658H281.727C206.317 272.658 146.137 352.108 149.107 428.178C151.697 494.558 209.007 552.608 275.347 555.988H740.967C797.397 556.928 850.497 505.528 851.707 441.558C852.937 378.688 802.597 326.928 740.857 322.928Z" fill="#848B8C"/>
<path d="M742.367 571.028H274.967H274.587C238.757 569.208 204.327 553.318 177.647 526.308C150.967 499.298 135.497 464.658 134.117 428.798C132.347 383.528 150.767 336.248 183.377 302.348C211.067 273.558 245.997 257.698 281.727 257.698H287.337C290.884 214.855 309.508 174.658 339.898 144.251C370.288 113.845 410.475 95.199 453.315 91.6281C496.156 88.0573 538.875 99.7927 573.88 124.748C608.884 149.704 633.906 186.263 644.497 227.928C656.828 224.192 669.867 223.42 682.553 225.675C695.239 227.931 707.213 233.15 717.501 240.908C727.789 248.665 736.099 258.743 741.757 270.319C747.414 281.896 750.258 294.644 750.057 307.528C750.057 307.928 750.057 308.348 750.057 308.778C780.937 312.683 809.496 327.21 830.837 349.868C854.49 374.587 867.404 407.661 866.757 441.868C866.049 476.345 852.081 509.223 827.757 533.668C804.177 557.468 773.167 571.028 742.367 571.028ZM740.967 541.028H742.437C791.767 541.028 835.667 494.738 836.707 441.258C837.747 387.778 794.327 341.438 739.897 337.928C736.899 337.733 733.972 336.927 731.298 335.558C728.623 334.19 726.257 332.288 724.346 329.97C722.435 327.652 721.018 324.967 720.184 322.081C719.35 319.194 719.116 316.168 719.497 313.188C719.795 311.132 719.988 309.063 720.077 306.988C720.229 298.468 718.273 290.043 714.383 282.461C710.492 274.88 704.788 268.378 697.778 263.533C690.768 258.689 682.67 255.652 674.203 254.693C665.735 253.734 657.163 254.883 649.247 258.038C645.984 259.343 642.475 259.92 638.966 259.728C635.457 259.536 632.032 258.58 628.931 256.927C625.83 255.273 623.128 252.962 621.013 250.156C618.898 247.349 617.421 244.114 616.687 240.678C601.767 171.348 539.417 121.028 468.397 121.028C429.505 120.986 392.086 135.904 363.889 162.691C335.693 189.479 318.878 226.084 316.927 264.928C316.629 271.063 313.984 276.85 309.539 281.09C305.095 285.33 299.19 287.699 293.047 287.708H281.727C254.227 287.708 226.977 300.298 204.997 323.148C177.927 351.288 162.637 390.348 164.097 427.628C166.367 486.008 217.497 537.858 275.747 541.028H740.967Z" fill="#48484A"/>
<path d="M362.087 257.028H361.327C359.359 256.929 357.43 256.444 355.65 255.599C353.869 254.755 352.273 253.568 350.951 252.106C349.63 250.644 348.609 248.937 347.948 247.08C347.287 245.224 346.998 243.256 347.097 241.288C348.35 216.093 359.247 192.346 377.53 174.966C395.813 157.585 420.082 147.904 445.307 147.928C449.286 147.928 453.101 149.508 455.914 152.321C458.727 155.134 460.307 158.95 460.307 162.928C460.307 166.906 458.727 170.721 455.914 173.534C453.101 176.347 449.286 177.928 445.307 177.928C427.785 177.906 410.926 184.624 398.221 196.69C385.515 208.757 377.938 225.248 377.057 242.748C376.872 246.595 375.215 250.223 372.428 252.882C369.641 255.54 365.939 257.024 362.087 257.028Z" fill="white"/>
<path d="M722.707 532.468C718.729 532.468 714.913 530.887 712.1 528.074C709.287 525.261 707.707 521.446 707.707 517.468C707.707 513.49 709.287 509.674 712.1 506.861C714.913 504.048 718.729 502.468 722.707 502.468C740.229 502.49 757.089 495.772 769.794 483.705C782.499 471.639 790.076 455.148 790.957 437.648C791.056 435.678 791.542 433.747 792.388 431.965C793.233 430.183 794.421 428.585 795.884 427.262C797.347 425.94 799.056 424.918 800.914 424.256C802.772 423.593 804.742 423.304 806.712 423.403C808.682 423.502 810.613 423.988 812.395 424.834C814.177 425.679 815.775 426.867 817.097 428.33C818.42 429.793 819.442 431.502 820.104 433.36C820.766 435.218 821.056 437.188 820.957 439.158C819.691 464.351 808.783 488.091 790.493 505.462C772.203 522.832 747.932 532.502 722.707 532.468V532.468Z" fill="#48484A"/>
<path d="M206.387 420.698C202.509 420.701 198.78 419.202 195.984 416.515C193.187 413.828 191.539 410.163 191.387 406.288C190.387 381.648 200.387 355.958 218.107 337.568C233.397 321.688 252.787 312.928 272.707 312.928H278.367C282.345 312.928 286.16 314.508 288.973 317.321C291.787 320.134 293.367 323.949 293.367 327.928C293.367 331.906 291.787 335.721 288.973 338.534C286.16 341.347 282.345 342.928 278.367 342.928H272.707C261.017 342.928 249.317 348.408 239.707 358.348C227.707 370.788 220.707 388.708 221.347 405.108C221.501 409.082 220.071 412.954 217.37 415.874C214.67 418.794 210.921 420.522 206.947 420.678L206.387 420.698Z" fill="white"/>
<path d="M573.856 611.678H689.126C692.122 611.677 695.052 612.565 697.544 614.229C700.036 615.893 701.978 618.258 703.126 621.026C704.273 623.794 704.574 626.84 703.99 629.779C703.406 632.718 701.964 635.418 699.846 637.538L628.846 708.538C626.728 710.656 625.286 713.355 624.702 716.294C624.118 719.232 624.418 722.277 625.564 725.045C626.71 727.812 628.651 730.178 631.142 731.843C633.632 733.508 636.56 734.397 639.556 734.398H663.296C666.291 734.399 669.219 735.288 671.71 736.953C674.2 738.617 676.141 740.983 677.288 743.751C678.434 746.518 678.734 749.564 678.15 752.502C677.566 755.44 676.123 758.139 674.006 760.258L544.916 889.338C532.916 901.338 513.306 887.568 520.486 872.208L547.676 814.088C548.756 811.78 549.237 809.236 549.073 806.693C548.909 804.15 548.106 801.689 546.737 799.539C545.369 797.389 543.48 795.619 541.246 794.394C539.012 793.168 536.504 792.526 533.956 792.528H490.216C487.578 792.529 484.985 791.842 482.695 790.533C480.404 789.224 478.496 787.34 477.158 785.066C475.82 782.793 475.099 780.209 475.068 777.571C475.036 774.933 475.693 772.333 476.976 770.028L560.616 619.468C561.927 617.106 563.846 615.139 566.174 613.769C568.502 612.399 571.155 611.677 573.856 611.678Z" fill="#FFCD00"/>
<path d="M534.297 908.928C528.063 908.909 521.988 906.96 516.907 903.348C511.033 899.335 506.793 893.347 504.958 886.473C503.123 879.599 503.814 872.295 506.907 865.888L534.097 807.768C534.104 807.727 534.1 807.686 534.086 807.647C534.072 807.609 534.048 807.575 534.017 807.548H490.217C484.968 807.547 479.81 806.175 475.253 803.568C470.696 800.961 466.899 797.21 464.238 792.686C461.576 788.161 460.142 783.02 460.077 777.771C460.012 772.522 461.318 767.347 463.867 762.758L547.497 612.188C550.108 607.488 553.927 603.572 558.56 600.845C563.193 598.118 568.471 596.679 573.847 596.678H689.127C695.095 596.665 700.932 598.424 705.899 601.731C710.866 605.039 714.739 609.747 717.028 615.258C719.317 620.77 719.918 626.837 718.755 632.69C717.593 638.543 714.719 643.92 710.497 648.138L639.497 719.138L639.437 719.198C639.452 719.264 639.475 719.328 639.507 719.388H663.297C669.258 719.389 675.085 721.158 680.042 724.471C684.998 727.783 688.861 732.49 691.143 737.998C693.424 743.505 694.022 749.565 692.861 755.412C691.699 761.259 688.831 766.631 684.617 770.848L555.497 899.928C552.733 902.753 549.436 905.003 545.797 906.548C542.159 908.092 538.25 908.901 534.297 908.928V908.928ZM534.027 878.688L534.227 878.828L534.317 878.748L663.397 749.648L663.467 749.578C663.446 749.515 663.42 749.455 663.387 749.398H639.547C633.585 749.396 627.757 747.627 622.8 744.313C617.843 740.999 613.98 736.29 611.699 730.781C609.418 725.272 608.822 719.211 609.986 713.363C611.149 707.515 614.021 702.144 618.237 697.928L689.237 626.928L689.297 626.858C689.284 626.794 689.261 626.733 689.227 626.678H573.857C573.831 626.679 573.805 626.687 573.782 626.701C573.759 626.715 573.74 626.735 573.727 626.758L490.087 777.308C490.079 777.341 490.079 777.375 490.087 777.408V777.408C490.087 777.408 490.137 777.488 490.187 777.528H533.997C539.07 777.525 544.062 778.804 548.509 781.244C552.957 783.684 556.716 787.208 559.44 791.488C562.163 795.767 563.762 800.666 564.088 805.728C564.415 810.791 563.458 815.853 561.307 820.448L534.117 878.568L534.027 878.688Z" fill="#48484A"/>
<path d="M380.597 800.858C372.121 809.48 362.02 816.337 350.878 821.031C339.736 825.726 327.774 828.166 315.684 828.21C303.594 828.253 291.614 825.9 280.439 821.286C269.263 816.672 259.113 809.889 250.575 801.328C242.037 792.768 235.28 782.6 230.696 771.412C226.111 760.225 223.79 748.239 223.865 736.149C223.941 724.059 226.412 712.103 231.136 700.974C235.86 689.844 242.743 679.761 251.387 671.308C273.757 648.988 346.137 626.968 397.227 613.598C421.917 607.138 444.477 629.598 438.107 654.328C424.877 705.668 402.997 778.518 380.597 800.858Z" fill="#78CEFF"/>
<path d="M315.997 842.518C294.926 842.527 274.327 836.283 256.807 824.576C239.288 812.869 225.636 796.226 217.583 776.755C209.529 757.284 207.435 735.861 211.566 715.199C215.696 694.537 225.866 675.565 240.787 660.688C260.317 641.208 311.677 620.478 393.427 599.088C401.598 596.95 410.185 596.985 418.338 599.188C426.491 601.391 433.927 605.687 439.909 611.648C445.891 617.61 450.212 625.032 452.442 633.177C454.673 641.323 454.737 649.91 452.627 658.088C431.437 740.368 410.767 791.978 391.197 811.498C381.318 821.358 369.59 829.174 356.687 834.497C343.783 839.82 329.956 842.545 315.997 842.518V842.518ZM405.897 627.518C404.253 627.522 402.617 627.737 401.027 628.158C327.717 647.348 277.027 666.958 262.027 681.978C254.701 689.021 248.852 697.453 244.821 706.782C240.79 716.111 238.659 726.149 238.551 736.311C238.444 746.473 240.362 756.555 244.195 765.967C248.027 775.379 253.697 783.933 260.873 791.129C268.048 798.325 276.586 804.02 285.987 807.879C295.388 811.739 305.464 813.686 315.627 813.608C325.789 813.53 335.833 811.427 345.174 807.423C354.514 803.419 362.963 797.594 370.027 790.288C385.077 775.288 404.607 724.378 423.597 650.638C424.431 647.524 424.421 644.244 423.568 641.136C422.716 638.027 421.052 635.201 418.747 632.948C415.349 629.505 410.734 627.537 405.897 627.468V627.518Z" fill="#48484A"/>
<path d="M270.267 756.998C266.329 756.999 262.548 755.45 259.741 752.687C256.935 749.923 255.328 746.167 255.267 742.228C254.767 709.498 279.187 681.548 322.267 665.538C324.118 664.833 326.09 664.501 328.069 664.562C330.049 664.622 331.996 665.074 333.8 665.892C335.604 666.709 337.228 667.875 338.579 669.324C339.93 670.772 340.981 672.473 341.671 674.33C342.36 676.186 342.676 678.16 342.599 680.139C342.521 682.118 342.053 684.062 341.221 685.859C340.388 687.656 339.208 689.271 337.749 690.609C336.289 691.948 334.579 692.984 332.717 693.658C302.267 704.978 284.967 722.508 285.267 741.768C285.298 743.738 284.94 745.695 284.214 747.526C283.488 749.358 282.409 751.029 281.037 752.443C279.665 753.857 278.029 754.987 276.22 755.769C274.412 756.551 272.467 756.968 270.497 756.998H270.267Z" fill="white"/>
<path d="M538.076 760.238C535.458 760.229 532.888 759.535 530.622 758.225C528.355 756.915 526.471 755.034 525.157 752.77C523.842 750.506 523.143 747.938 523.129 745.32C523.115 742.702 523.786 740.126 525.076 737.848L574.446 650.548C576.527 647.342 579.754 645.052 583.467 644.145C587.18 643.238 591.1 643.783 594.425 645.668C597.75 647.553 600.23 650.637 601.358 654.289C602.486 657.941 602.178 661.886 600.496 665.318L551.126 752.618C549.819 754.93 547.923 756.853 545.63 758.192C543.338 759.531 540.731 760.237 538.076 760.238V760.238Z" fill="white"/>
</svg>
