<svg width="1000" height="1000" viewBox="0 0 1000 1000" fill="none" xmlns="http://www.w3.org/2000/svg">
<path d="M495.491 698.064C478.332 715.221 455.059 724.859 430.794 724.857C406.529 724.855 383.258 715.214 366.101 698.054C348.944 680.895 339.307 657.623 339.309 633.357C339.31 609.092 348.952 585.821 366.111 568.664C388.451 546.324 460.801 524.204 511.881 510.774C536.561 504.274 559.141 526.774 552.811 551.444C539.651 602.814 517.871 675.664 495.491 698.064Z" fill="#78CEFF"/>
<path d="M430.801 739.855C409.739 739.855 389.15 733.609 371.638 721.908C354.126 710.207 340.477 693.575 332.417 674.117C324.357 654.658 322.248 633.246 326.357 612.589C330.466 591.932 340.608 572.958 355.501 558.065C375.011 538.565 426.341 517.775 508.061 496.275C516.226 494.131 524.81 494.157 532.962 496.349C541.115 498.541 548.553 502.825 554.542 508.775C560.531 514.725 564.862 522.136 567.107 530.274C569.351 538.412 569.432 546.996 567.341 555.175C546.251 637.475 525.651 689.175 506.101 708.665C496.237 718.586 484.502 726.452 471.577 731.806C458.651 737.159 444.791 739.895 430.801 739.855V739.855ZM520.581 524.665C518.93 524.668 517.286 524.886 515.691 525.315C442.411 544.595 391.751 564.315 376.691 579.315C362.528 593.697 354.625 613.094 354.702 633.278C354.78 653.462 362.832 672.798 377.105 687.071C391.378 701.343 410.713 709.396 430.898 709.473C451.082 709.551 470.479 701.647 484.861 687.485V687.485C499.861 672.485 519.351 621.485 538.251 547.765C539.078 544.65 539.061 541.371 538.204 538.264C537.346 535.157 535.679 532.335 533.371 530.085C529.98 526.676 525.389 524.731 520.581 524.665Z" fill="#48484A"/>
<path d="M388.211 464.555C379.715 473.05 369.629 479.79 358.529 484.388C347.428 488.986 335.531 491.352 323.516 491.352C311.501 491.352 299.604 488.986 288.503 484.388C277.403 479.79 267.317 473.05 258.821 464.555C250.325 456.059 243.586 445.973 238.988 434.872C234.39 423.772 232.023 411.874 232.023 399.859C232.023 387.845 234.39 375.947 238.988 364.847C243.586 353.747 250.325 343.66 258.821 335.165C281.161 312.825 353.511 290.715 404.591 277.275C429.271 270.785 451.851 293.275 445.521 317.945C432.411 369.305 410.581 442.185 388.211 464.555Z" fill="#78CEFF"/>
<path d="M323.511 506.305C302.449 506.319 281.856 500.084 264.339 488.389C246.822 476.694 233.168 460.066 225.106 440.607C217.044 421.149 214.936 399.737 219.049 379.08C223.162 358.423 233.311 339.451 248.211 324.565C267.721 305.055 319.051 284.265 400.771 262.765C408.937 260.621 417.52 260.647 425.673 262.839C433.825 265.032 441.264 269.315 447.252 275.265C453.241 281.215 457.572 288.626 459.817 296.765C462.062 304.903 462.142 313.486 460.051 321.665C438.961 403.975 418.411 455.665 398.811 475.165C388.929 485.059 377.19 492.903 364.268 498.247C351.346 503.591 337.495 506.33 323.511 506.305V506.305ZM413.301 291.125C411.647 291.134 410 291.352 408.401 291.775C335.121 311.055 284.461 330.775 269.401 345.775C255.239 360.157 247.335 379.554 247.412 399.738C247.49 419.923 255.543 439.258 269.815 453.531C284.088 467.803 303.424 475.856 323.608 475.934C343.792 476.011 363.189 468.107 377.571 453.945C392.571 438.945 412.061 387.945 430.961 314.225C431.792 311.11 431.778 307.83 430.92 304.723C430.063 301.615 428.392 298.792 426.081 296.545C422.693 293.138 418.106 291.193 413.301 291.125V291.125Z" fill="#48484A"/>
<path d="M709.761 463.354C701.254 471.839 691.159 478.565 680.052 483.148C668.946 487.732 657.046 490.083 645.031 490.067C633.016 490.051 621.121 487.669 610.027 483.056C598.933 478.444 588.856 471.691 580.371 463.184C571.886 454.677 565.16 444.582 560.577 433.476C555.993 422.369 553.642 410.469 553.658 398.454C553.674 386.439 556.056 374.545 560.669 363.45C565.281 352.356 572.034 342.279 580.541 333.794C602.911 311.484 675.291 289.464 726.391 276.094C751.071 269.634 773.631 292.094 767.271 316.814C754.041 368.164 732.161 441.004 709.761 463.354Z" fill="#78CEFF"/>
<path d="M645.151 505.014C624.079 505.023 603.479 498.778 585.958 487.07C568.438 475.362 554.787 458.717 546.734 439.245C538.681 419.772 536.589 398.348 540.722 377.685C544.855 357.022 555.028 338.051 569.952 323.174C589.482 303.694 640.841 282.974 722.591 261.574C730.762 259.44 739.348 259.477 747.499 261.681C755.651 263.885 763.086 268.18 769.067 274.141C775.048 280.102 779.368 287.522 781.6 295.666C783.832 303.811 783.898 312.396 781.792 320.574C760.602 402.844 739.932 454.454 720.352 473.984C710.472 483.845 698.744 491.661 685.841 496.986C672.937 502.31 659.11 505.038 645.151 505.014V505.014ZM735.052 289.954C733.407 289.958 731.77 290.176 730.182 290.604C656.872 309.784 606.181 329.404 591.181 344.414C577.184 358.811 569.409 378.136 569.535 398.216C569.662 418.296 577.679 437.521 591.857 451.741C606.035 465.961 625.236 474.035 645.316 474.221C665.395 474.407 684.743 466.689 699.182 452.734C714.182 437.734 733.752 386.814 752.752 313.074C753.587 309.961 753.577 306.682 752.723 303.574C751.869 300.466 750.201 297.642 747.891 295.394C744.493 291.962 739.88 290.008 735.052 289.954V289.954Z" fill="#48484A"/>
<path d="M599.41 419.485C595.471 419.485 591.69 417.937 588.884 415.173C586.077 412.41 584.47 408.653 584.41 404.715C583.91 371.985 608.33 344.035 651.41 328.035C655.13 326.688 659.232 326.865 662.822 328.528C666.412 330.191 669.199 333.205 670.578 336.913C671.956 340.622 671.813 344.725 670.18 348.329C668.547 351.933 665.557 354.746 661.86 356.155C631.41 367.465 614.11 385.005 614.4 404.255C614.43 406.225 614.072 408.181 613.347 410.013C612.621 411.844 611.541 413.515 610.17 414.929C608.798 416.344 607.161 417.474 605.353 418.256C603.544 419.037 601.6 419.455 599.63 419.485H599.41Z" fill="white"/>
<path d="M382.951 657.215C379.012 657.215 375.231 655.666 372.425 652.903C369.618 650.139 368.011 646.383 367.951 642.445C367.451 609.725 391.881 581.774 434.951 565.764C438.68 564.377 442.807 564.528 446.425 566.184C450.042 567.84 452.854 570.866 454.241 574.595C455.628 578.323 455.477 582.451 453.821 586.068C452.165 589.686 449.14 592.497 445.411 593.884C414.961 605.194 397.671 622.734 397.961 641.994C398.02 645.971 396.497 649.808 393.727 652.663C390.957 655.517 387.168 657.154 383.191 657.215H382.951Z" fill="white"/>
<path d="M274.75 419.485C270.811 419.485 267.03 417.937 264.224 415.173C261.417 412.41 259.81 408.653 259.75 404.715C259.25 371.985 283.67 344.035 326.75 328.035C330.47 326.688 334.571 326.865 338.162 328.528C341.752 330.191 344.539 333.205 345.917 336.913C347.296 340.622 347.153 344.725 345.52 348.329C343.887 351.933 340.897 354.746 337.2 356.155C306.75 367.465 289.45 385.005 289.74 404.255C289.77 406.225 289.412 408.181 288.686 410.013C287.961 411.844 286.881 413.515 285.509 414.929C284.138 416.344 282.501 417.474 280.693 418.256C278.884 419.037 276.94 419.455 274.97 419.485H274.75Z" fill="white"/>
</svg>
