<svg width="1000" height="1000" viewBox="0 0 1000 1000" fill="none" xmlns="http://www.w3.org/2000/svg">
<path d="M740.857 332.928C739.901 332.868 738.968 332.612 738.116 332.177C737.263 331.741 736.509 331.135 735.899 330.397C735.29 329.658 734.839 328.802 734.574 327.883C734.308 326.963 734.234 325.998 734.357 325.048C734.707 322.308 735.017 319.368 735.057 317.218C735.253 306.224 732.729 295.352 727.709 285.57C722.688 275.787 715.328 267.397 706.282 261.146C697.236 254.895 686.785 250.977 675.859 249.74C664.933 248.504 653.871 249.987 643.657 254.058C642.421 254.554 641.093 254.774 639.763 254.701C638.434 254.629 637.137 254.266 635.963 253.639C634.789 253.012 633.767 252.136 632.968 251.071C632.168 250.007 631.612 248.781 631.337 247.478C622.811 207.978 600.226 172.92 567.783 148.828C535.341 124.735 495.25 113.249 454.972 116.507C414.693 119.764 376.97 137.544 348.821 166.537C320.672 195.529 304.014 233.761 301.947 274.118C301.844 276.412 300.862 278.577 299.205 280.165C297.547 281.754 295.342 282.643 293.047 282.648H281.757C206.347 282.648 146.167 362.098 149.137 438.168C151.727 504.548 209.037 562.598 275.387 565.988H741.007C797.427 566.868 850.487 515.488 851.737 451.518C852.937 388.638 802.597 336.898 740.857 332.928Z" fill="#848B8C"/>
<path d="M742.377 580.988H274.967H274.587C238.757 579.158 204.327 563.278 177.647 536.258C150.967 509.238 135.517 474.628 134.117 438.778C132.347 393.498 150.767 346.228 183.377 312.318C211.067 283.528 245.997 267.668 281.727 267.668H287.337C290.891 224.831 309.517 184.641 339.906 154.241C370.294 123.841 410.477 105.199 453.312 101.628C496.148 98.0576 538.863 109.79 573.865 134.739C608.867 159.689 633.89 196.24 644.487 237.898C656.819 234.164 669.858 233.394 682.544 235.651C695.23 237.908 707.204 243.128 717.491 250.887C727.778 258.645 736.089 268.722 741.746 280.299C747.403 291.876 750.247 304.625 750.047 317.508C750.047 317.908 750.047 318.318 750.047 318.758C780.898 322.67 809.43 337.185 830.757 359.818C854.411 384.537 867.325 417.611 866.677 451.818C865.974 486.296 852.005 519.176 827.677 543.618C804.177 567.418 773.167 580.988 742.377 580.988ZM740.977 550.988H742.437C791.767 550.988 835.667 504.698 836.707 451.218C837.747 397.738 794.327 351.398 739.897 347.898C736.896 347.706 733.967 346.902 731.289 345.534C728.611 344.165 726.243 342.263 724.329 339.944C722.415 337.624 720.997 334.937 720.163 332.048C719.328 329.16 719.095 326.13 719.477 323.148C719.775 321.089 719.969 319.016 720.057 316.938C720.217 308.414 718.267 299.983 714.381 292.395C710.494 284.807 704.791 278.298 697.78 273.447C690.768 268.597 682.666 265.556 674.195 264.594C665.724 263.633 657.147 264.782 649.227 267.938C645.964 269.243 642.455 269.82 638.946 269.628C635.437 269.436 632.013 268.48 628.911 266.827C625.81 265.174 623.108 262.863 620.993 260.056C618.878 257.249 617.401 254.015 616.667 250.578C601.777 181.258 539.417 130.938 468.397 130.938C429.505 130.894 392.087 145.81 363.89 172.595C335.693 199.381 318.878 235.985 316.927 274.828C316.632 280.964 313.987 286.75 309.541 290.99C305.096 295.229 299.19 297.595 293.047 297.598H281.757C254.257 297.598 227.007 310.188 205.027 333.048C177.957 361.188 162.667 400.248 164.127 437.538C166.407 495.908 217.497 547.758 275.777 550.938L740.977 550.988Z" fill="#48484A"/>
<path d="M362.097 266.978C361.837 266.978 361.577 266.978 361.327 266.978C357.354 266.779 353.623 265.009 350.955 262.06C348.286 259.11 346.898 255.221 347.097 251.248C348.36 226.06 359.261 202.323 377.543 184.951C395.825 167.579 420.088 157.904 445.307 157.928C449.285 157.928 453.1 159.508 455.913 162.321C458.727 165.134 460.307 168.95 460.307 172.928C460.307 176.906 458.727 180.721 455.913 183.534C453.1 186.347 449.285 187.928 445.307 187.928C427.785 187.911 410.926 194.632 398.222 206.699C385.518 218.767 377.94 235.258 377.057 252.758C376.857 256.592 375.195 260.204 372.411 262.85C369.628 265.495 365.937 266.973 362.097 266.978V266.978Z" fill="white"/>
<path d="M722.756 542.418C718.778 542.418 714.962 540.838 712.149 538.025C709.336 535.212 707.756 531.396 707.756 527.418C707.756 523.44 709.336 519.624 712.149 516.811C714.962 513.998 718.778 512.418 722.756 512.418C740.276 512.438 757.133 505.719 769.836 493.652C782.539 481.586 790.115 465.096 790.996 447.598C791.196 443.62 792.968 439.884 795.923 437.213C798.878 434.541 802.773 433.153 806.751 433.353C810.729 433.553 814.465 435.326 817.136 438.28C819.808 441.235 821.196 445.13 820.996 449.108C819.735 474.301 808.83 498.043 790.541 515.414C772.252 532.786 747.98 542.455 722.756 542.418V542.418Z" fill="#48484A"/>
<path d="M206.387 430.647C202.509 430.65 198.78 429.151 195.984 426.465C193.187 423.778 191.539 420.113 191.387 416.237C190.387 391.597 200.387 365.917 218.097 347.517C233.377 331.637 252.757 322.897 272.687 322.897H278.337C282.315 322.897 286.13 324.478 288.943 327.291C291.757 330.104 293.337 333.919 293.337 337.897C293.337 341.876 291.757 345.691 288.943 348.504C286.13 351.317 282.315 352.897 278.337 352.897H272.757C261.067 352.897 249.357 358.367 239.757 368.317C227.757 380.757 220.757 398.667 221.387 415.067C221.541 419.041 220.111 422.914 217.41 425.834C214.71 428.753 210.961 430.481 206.987 430.637L206.387 430.647Z" fill="white"/>
<path d="M614.936 899.798C611.223 899.798 607.662 898.323 605.036 895.697C602.411 893.072 600.936 889.511 600.936 885.798V610.798C600.936 607.085 602.411 603.524 605.036 600.898C607.662 598.273 611.223 596.798 614.936 596.798C618.649 596.798 622.21 598.273 624.835 600.898C627.461 603.524 628.936 607.085 628.936 610.798V885.798C628.936 889.511 627.461 893.072 624.835 895.697C622.21 898.323 618.649 899.798 614.936 899.798V899.798Z" fill="#48484A"/>
<path d="M614.937 662.188C613.098 662.188 611.278 661.826 609.579 661.123C607.881 660.419 606.337 659.388 605.037 658.088L578.587 631.628C575.962 629.003 574.486 625.441 574.486 621.728C574.486 618.015 575.962 614.454 578.587 611.828C581.213 609.203 584.774 607.728 588.487 607.728C592.2 607.728 595.761 609.203 598.387 611.828L624.837 638.288C626.795 640.246 628.129 642.741 628.669 645.457C629.209 648.173 628.932 650.988 627.872 653.546C626.813 656.104 625.018 658.291 622.716 659.829C620.413 661.367 617.706 662.188 614.937 662.188V662.188Z" fill="#48484A"/>
<path d="M614.937 662.188C612.167 662.188 609.46 661.367 607.158 659.829C604.856 658.29 603.061 656.104 602.001 653.546C600.942 650.987 600.664 648.172 601.205 645.456C601.745 642.74 603.079 640.246 605.037 638.288L631.927 611.388C634.552 608.762 638.113 607.287 641.827 607.287C645.54 607.287 649.101 608.762 651.727 611.388C654.352 614.013 655.827 617.575 655.827 621.288C655.827 625.001 654.352 628.562 651.727 631.188L624.837 658.088C623.537 659.388 621.993 660.419 620.294 661.123C618.596 661.826 616.775 662.188 614.937 662.188V662.188Z" fill="#48484A"/>
<path d="M588.267 894.188C585.499 894.186 582.795 893.364 580.495 891.827C578.194 890.289 576.401 888.104 575.342 885.548C574.283 882.991 574.005 880.179 574.543 877.464C575.081 874.75 576.412 872.256 578.367 870.298L604.817 843.838C606.117 842.538 607.66 841.507 609.359 840.803C611.057 840.099 612.878 839.737 614.716 839.737C616.555 839.737 618.376 840.099 620.074 840.803C621.773 841.507 623.317 842.538 624.617 843.838C625.917 845.138 626.948 846.681 627.652 848.38C628.355 850.079 628.717 851.899 628.717 853.738C628.717 855.577 628.355 857.397 627.652 859.096C626.948 860.794 625.917 862.338 624.617 863.638L598.166 890.058C596.869 891.363 595.327 892.4 593.628 893.109C591.929 893.817 590.107 894.184 588.267 894.188V894.188Z" fill="#48484A"/>
<path d="M641.606 894.638C639.766 894.637 637.945 894.273 636.247 893.568C634.548 892.863 633.005 891.83 631.706 890.528L604.816 863.638C603.516 862.338 602.484 860.794 601.781 859.096C601.077 857.397 600.715 855.577 600.715 853.738C600.715 851.899 601.077 850.079 601.781 848.38C602.484 846.681 603.516 845.138 604.816 843.838C606.116 842.538 607.659 841.507 609.358 840.803C611.056 840.099 612.877 839.737 614.716 839.737C616.554 839.737 618.375 840.099 620.073 840.803C621.772 841.507 623.316 842.538 624.616 843.838L651.506 870.738C653.464 872.696 654.797 875.191 655.338 877.906C655.878 880.622 655.6 883.437 654.541 885.996C653.481 888.554 651.687 890.741 649.384 892.279C647.082 893.817 644.375 894.638 641.606 894.638Z" fill="#48484A"/>
<path d="M712.356 859.448C710.518 859.448 708.697 859.086 706.998 858.383C705.3 857.679 703.756 856.648 702.456 855.348L507.996 660.888C506.651 659.6 505.577 658.057 504.835 656.349C504.094 654.641 503.701 652.802 503.679 650.94C503.657 649.078 504.007 647.231 504.708 645.505C505.408 643.78 506.446 642.212 507.761 640.893C509.075 639.574 510.639 638.531 512.362 637.824C514.085 637.117 515.931 636.761 517.793 636.776C519.655 636.791 521.495 637.178 523.206 637.913C524.917 638.648 526.464 639.718 527.756 641.058L722.216 835.518C724.174 837.476 725.508 839.971 726.048 842.686C726.588 845.402 726.311 848.217 725.251 850.776C724.192 853.334 722.397 855.52 720.095 857.059C717.792 858.597 715.085 859.418 712.316 859.418L712.356 859.448Z" fill="#48484A"/>
<path d="M723.326 833.058H685.916C682.203 833.058 678.642 831.583 676.017 828.957C673.391 826.332 671.916 822.771 671.916 819.058C671.916 815.345 673.391 811.784 676.017 809.158C678.642 806.533 682.203 805.058 685.916 805.058H723.326C727.039 805.058 730.6 806.533 733.226 809.158C735.851 811.784 737.326 815.345 737.326 819.058C737.326 822.771 735.851 826.332 733.226 828.957C730.6 831.583 727.039 833.058 723.326 833.058V833.058Z" fill="#48484A"/>
<path d="M685.916 871.058C682.203 871.058 678.642 869.583 676.017 866.957C673.391 864.332 671.916 860.771 671.916 857.058V819.058C671.916 815.345 673.391 811.784 676.017 809.158C678.642 806.533 682.203 805.058 685.916 805.058C689.629 805.058 693.19 806.533 695.816 809.158C698.441 811.784 699.916 815.345 699.916 819.058V857.058C699.916 860.771 698.441 864.332 695.816 866.957C693.19 869.583 689.629 871.058 685.916 871.058V871.058Z" fill="#48484A"/>
<path d="M540.756 687.498C537.043 687.498 533.482 686.023 530.856 683.397C528.231 680.772 526.756 677.211 526.756 673.498V636.058C526.756 632.345 528.231 628.784 530.856 626.158C533.482 623.533 537.043 622.058 540.756 622.058C544.469 622.058 548.03 623.533 550.655 626.158C553.281 628.784 554.756 632.345 554.756 636.058V673.468C554.76 675.309 554.401 677.132 553.699 678.834C552.997 680.536 551.966 682.083 550.666 683.386C549.366 684.69 547.821 685.724 546.12 686.429C544.42 687.135 542.597 687.498 540.756 687.498V687.498Z" fill="#48484A"/>
<path d="M540.756 687.498H502.756C499.043 687.498 495.482 686.023 492.856 683.398C490.231 680.772 488.756 677.211 488.756 673.498C488.756 669.785 490.231 666.224 492.856 663.599C495.482 660.973 499.043 659.498 502.756 659.498H540.756C544.469 659.498 548.03 660.973 550.655 663.599C553.281 666.224 554.756 669.785 554.756 673.498C554.756 677.211 553.281 680.772 550.655 683.398C548.03 686.023 544.469 687.498 540.756 687.498V687.498Z" fill="#48484A"/>
<path d="M517.757 859.448C514.988 859.448 512.281 858.627 509.978 857.089C507.676 855.55 505.881 853.364 504.822 850.805C503.762 848.247 503.485 845.432 504.025 842.716C504.565 840 505.899 837.506 507.857 835.548L702.297 641.058C703.597 639.758 705.14 638.726 706.839 638.023C708.538 637.319 710.358 636.957 712.197 636.957C714.035 636.957 715.856 637.319 717.555 638.023C719.253 638.726 720.797 639.758 722.097 641.058C723.397 642.358 724.428 643.901 725.132 645.6C725.835 647.298 726.198 649.119 726.198 650.958C726.198 652.796 725.835 654.617 725.132 656.316C724.428 658.014 723.397 659.558 722.097 660.858L527.647 855.318C526.35 856.622 524.81 857.658 523.113 858.367C521.416 859.075 519.596 859.443 517.757 859.448V859.448Z" fill="#48484A"/>
<path d="M685.756 691.428C682.043 691.428 678.482 689.953 675.856 687.327C673.231 684.702 671.756 681.141 671.756 677.428V640.058C671.756 636.345 673.231 632.784 675.856 630.158C678.482 627.533 682.043 626.058 685.756 626.058C689.469 626.058 693.03 627.533 695.655 630.158C698.281 632.784 699.756 636.345 699.756 640.058V677.468C699.745 681.174 698.266 684.724 695.641 687.341C693.017 689.958 689.462 691.428 685.756 691.428V691.428Z" fill="#48484A"/>
<path d="M723.756 691.428H685.756C682.043 691.428 678.482 689.953 675.856 687.327C673.231 684.702 671.756 681.141 671.756 677.428C671.756 673.715 673.231 670.154 675.856 667.528C678.482 664.903 682.043 663.428 685.756 663.428H723.756C727.469 663.428 731.03 664.903 733.655 667.528C736.281 670.154 737.756 673.715 737.756 677.428C737.756 681.141 736.281 684.702 733.655 687.327C731.03 689.953 727.469 691.428 723.756 691.428Z" fill="#48484A"/>
<path d="M540.256 836.628H502.846C499.133 836.628 495.572 835.153 492.946 832.527C490.321 829.902 488.846 826.341 488.846 822.628C488.846 818.915 490.321 815.354 492.946 812.729C495.572 810.103 499.133 808.628 502.846 808.628H540.256C543.969 808.628 547.53 810.103 550.155 812.729C552.781 815.354 554.256 818.915 554.256 822.628C554.256 826.341 552.781 829.902 550.155 832.527C547.53 835.153 543.969 836.628 540.256 836.628V836.628Z" fill="#48484A"/>
<path d="M540.256 874.658C536.543 874.658 532.982 873.183 530.356 870.558C527.731 867.932 526.256 864.371 526.256 860.658V822.658C526.256 818.945 527.731 815.384 530.356 812.759C532.982 810.133 536.543 808.658 540.256 808.658C543.969 808.658 547.53 810.133 550.155 812.759C552.781 815.384 554.256 818.945 554.256 822.658V860.658C554.256 864.371 552.781 867.932 550.155 870.558C547.53 873.183 543.969 874.658 540.256 874.658Z" fill="#48484A"/>
<path d="M752.547 762.188H477.547C473.834 762.188 470.273 760.714 467.647 758.088C465.022 755.463 463.547 751.902 463.547 748.188C463.547 744.475 465.022 740.914 467.647 738.289C470.273 735.663 473.834 734.188 477.547 734.188H752.547C756.26 734.188 759.821 735.663 762.446 738.289C765.072 740.914 766.547 744.475 766.547 748.188C766.547 751.902 765.072 755.463 762.446 758.088C759.821 760.714 756.26 762.188 752.547 762.188V762.188Z" fill="#48484A"/>
<path d="M715.157 762.188C712.388 762.188 709.681 761.367 707.379 759.829C705.076 758.29 703.282 756.104 702.222 753.546C701.162 750.987 700.885 748.172 701.425 745.456C701.966 742.74 703.299 740.246 705.257 738.288L731.707 711.838C734.349 709.299 737.881 707.896 741.546 707.932C745.21 707.968 748.714 709.439 751.306 712.03C753.897 714.62 755.37 718.123 755.408 721.788C755.446 725.452 754.045 728.985 751.507 731.628L725.057 758.058C723.76 759.363 722.217 760.4 720.519 761.109C718.82 761.817 716.998 762.184 715.157 762.188V762.188Z" fill="#48484A"/>
<path d="M742.047 789.058C740.209 789.058 738.388 788.696 736.689 787.993C734.991 787.289 733.447 786.258 732.147 784.958L705.257 758.058C703.957 756.758 702.926 755.215 702.222 753.516C701.519 751.817 701.156 749.997 701.156 748.158C701.156 746.319 701.519 744.499 702.222 742.8C702.926 741.102 703.957 739.558 705.257 738.258C706.557 736.958 708.101 735.927 709.799 735.223C711.498 734.519 713.318 734.157 715.157 734.157C716.996 734.157 718.816 734.519 720.515 735.223C722.214 735.927 723.757 736.958 725.057 738.258L751.947 765.148C753.905 767.106 755.239 769.601 755.779 772.316C756.319 775.032 756.042 777.847 754.982 780.406C753.923 782.964 752.128 785.151 749.826 786.689C747.523 788.227 744.816 789.048 742.047 789.048V789.058Z" fill="#48484A"/>
<path d="M509.605 761.968C507.767 761.968 505.946 761.606 504.247 760.902C502.549 760.199 501.005 759.168 499.705 757.868L473.245 731.407C471.945 730.107 470.914 728.564 470.21 726.865C469.507 725.167 469.145 723.346 469.145 721.507C469.145 719.669 469.507 717.848 470.21 716.15C470.914 714.451 471.945 712.908 473.245 711.608C474.545 710.307 476.089 709.276 477.787 708.573C479.486 707.869 481.307 707.507 483.145 707.507C484.984 707.507 486.804 707.869 488.503 708.573C490.202 709.276 491.745 710.307 493.045 711.608L519.495 738.068C521.453 740.025 522.786 742.519 523.327 745.234C523.867 747.948 523.591 750.763 522.532 753.321C521.474 755.878 519.681 758.065 517.38 759.604C515.079 761.143 512.374 761.966 509.605 761.968V761.968Z" fill="#48484A"/>
<path d="M482.757 788.858C479.988 788.859 477.281 788.038 474.978 786.499C472.676 784.961 470.881 782.774 469.822 780.216C468.762 777.658 468.485 774.843 469.025 772.127C469.565 769.411 470.899 766.916 472.857 764.958L499.757 738.058C501.047 736.716 502.593 735.644 504.302 734.906C506.012 734.168 507.852 733.779 509.714 733.76C511.576 733.742 513.423 734.096 515.147 734.8C516.87 735.504 518.436 736.546 519.753 737.863C521.069 739.18 522.109 740.746 522.813 742.47C523.517 744.195 523.869 746.042 523.85 747.904C523.831 749.766 523.44 751.605 522.701 753.315C521.963 755.024 520.89 756.569 519.547 757.858L492.657 784.748C491.357 786.05 489.814 787.083 488.116 787.788C486.417 788.494 484.596 788.857 482.757 788.858V788.858Z" fill="#48484A"/>
<path d="M377.136 812.978C368.643 821.525 358.546 828.311 347.423 832.945C336.301 837.579 324.373 839.971 312.324 839.982C300.275 839.994 288.342 837.625 277.211 833.012C266.08 828.4 255.97 821.634 247.46 813.103C238.951 804.572 232.211 794.444 227.627 783.302C223.042 772.159 220.704 760.22 220.747 748.171C220.789 736.122 223.211 724.2 227.873 713.09C232.536 701.979 239.347 691.899 247.916 683.428C270.286 661.118 342.666 639.088 393.756 625.718C418.446 619.258 441.006 641.718 434.636 666.448C421.416 717.788 399.536 790.638 377.136 812.978Z" fill="#78CEFF"/>
<path d="M312.527 854.648C291.454 854.657 270.854 848.412 253.333 836.704C235.813 824.996 222.162 808.351 214.109 788.879C206.056 769.406 203.964 747.981 208.097 727.319C212.23 706.656 222.403 687.684 237.326 672.808C256.856 653.328 308.206 632.598 389.966 611.208C398.137 609.074 406.723 609.11 414.874 611.315C423.026 613.519 430.46 617.814 436.442 623.775C442.423 629.736 446.743 637.156 448.975 645.3C451.207 653.444 451.273 662.03 449.167 670.208C427.967 752.488 407.296 804.098 387.726 823.618C377.847 833.48 366.12 841.297 353.217 846.622C340.313 851.946 326.486 854.674 312.527 854.648V854.648ZM402.427 639.588C400.782 639.592 399.145 639.81 397.557 640.238C324.247 659.418 273.557 679.028 258.557 694.048C251.23 701.091 245.381 709.523 241.35 718.852C237.319 728.181 235.188 738.219 235.08 748.381C234.973 758.543 236.892 768.625 240.724 778.037C244.557 787.449 250.226 796.003 257.402 803.199C264.578 810.396 273.116 816.09 282.517 819.949C291.918 823.809 301.994 825.756 312.156 825.678C322.318 825.6 332.363 823.497 341.703 819.493C351.044 815.489 359.493 809.664 366.557 802.358C381.557 787.358 401.136 736.448 420.136 662.708C420.967 659.593 420.954 656.313 420.1 653.205C419.246 650.097 417.581 647.271 415.277 645.018C411.871 641.592 407.256 639.642 402.427 639.588V639.588Z" fill="#48484A"/>
<path d="M266.757 769.118C262.819 769.118 259.038 767.57 256.231 764.806C253.425 762.043 251.818 758.286 251.757 754.348C251.267 721.618 275.687 693.668 318.757 677.658C320.604 676.972 322.568 676.656 324.537 676.729C326.506 676.802 328.442 677.262 330.233 678.083C332.024 678.904 333.636 680.069 334.977 681.513C336.318 682.957 337.361 684.651 338.047 686.498C338.733 688.345 339.049 690.309 338.976 692.278C338.903 694.247 338.443 696.182 337.622 697.974C336.801 699.765 335.636 701.377 334.192 702.718C332.748 704.058 331.054 705.102 329.207 705.788C298.757 717.098 281.457 734.638 281.747 753.888C281.778 755.858 281.42 757.814 280.694 759.646C279.968 761.477 278.889 763.148 277.517 764.562C276.145 765.977 274.509 767.107 272.7 767.889C270.892 768.67 268.947 769.088 266.977 769.118H266.757Z" fill="white"/>
</svg>
