<svg width="1000" height="1000" viewBox="0 0 1000 1000" fill="none" xmlns="http://www.w3.org/2000/svg">
<path d="M499.779 790C495.801 790 491.986 788.42 489.173 785.607C486.36 782.794 484.779 778.978 484.779 775V225C484.779 221.022 486.36 217.206 489.173 214.393C491.986 211.58 495.801 210 499.779 210C503.758 210 507.573 211.58 510.386 214.393C513.199 217.206 514.779 221.022 514.779 225V775C514.779 778.978 513.199 782.794 510.386 785.607C507.573 788.42 503.758 790 499.779 790Z" fill="#48484A"/>
<path d="M499.779 314.78C497.809 314.781 495.858 314.394 494.037 313.641C492.217 312.887 490.563 311.783 489.169 310.39L436.269 257.48C433.537 254.651 432.025 250.862 432.059 246.929C432.093 242.996 433.671 239.234 436.452 236.453C439.233 233.672 442.995 232.094 446.928 232.06C450.861 232.026 454.65 233.538 457.479 236.27L510.379 289.17C512.478 291.267 513.907 293.94 514.487 296.85C515.067 299.759 514.77 302.775 513.636 305.517C512.501 308.258 510.579 310.601 508.113 312.25C505.646 313.899 502.746 314.78 499.779 314.78Z" fill="#48484A"/>
<path d="M499.78 314.78C496.812 314.782 493.911 313.903 491.443 312.255C488.975 310.606 487.051 308.263 485.916 305.522C484.78 302.78 484.483 299.763 485.062 296.852C485.641 293.942 487.071 291.268 489.17 289.17L542.96 235.39C545.789 232.658 549.578 231.146 553.511 231.18C557.444 231.214 561.206 232.792 563.987 235.573C566.768 238.354 568.346 242.116 568.38 246.049C568.414 249.982 566.903 253.771 564.17 256.6L510.38 310.39C508.991 311.786 507.339 312.892 505.519 313.646C503.7 314.399 501.749 314.785 499.78 314.78V314.78Z" fill="#48484A"/>
<path d="M446.43 778.8C443.464 778.799 440.563 777.919 438.097 776.27C435.631 774.621 433.708 772.278 432.574 769.536C431.439 766.795 431.143 763.779 431.723 760.869C432.302 757.959 433.732 755.287 435.83 753.19L488.73 700.29C491.559 697.557 495.348 696.045 499.281 696.08C503.214 696.114 506.977 697.691 509.758 700.472C512.539 703.254 514.116 707.016 514.15 710.949C514.185 714.882 512.673 718.671 509.94 721.5L457.04 774.4C455.648 775.794 453.994 776.9 452.173 777.655C450.353 778.41 448.401 778.799 446.43 778.8V778.8Z" fill="#48484A"/>
<path d="M553.12 779.64C549.145 779.639 545.332 778.06 542.52 775.25L488.73 721.46C485.998 718.631 484.486 714.842 484.52 710.909C484.554 706.976 486.132 703.214 488.913 700.432C491.694 697.651 495.456 696.074 499.389 696.04C503.322 696.005 507.111 697.517 509.94 700.25L563.73 754.03C565.829 756.128 567.259 758.801 567.838 761.712C568.418 764.622 568.121 767.639 566.985 770.381C565.849 773.123 563.925 775.466 561.457 777.114C558.989 778.762 556.088 779.641 553.12 779.64V779.64Z" fill="#48484A"/>
<path d="M694.601 709.3C692.631 709.301 690.68 708.913 688.859 708.16C687.039 707.407 685.384 706.302 683.991 704.91L295.081 316C293.688 314.606 292.584 312.952 291.83 311.132C291.077 309.312 290.689 307.361 290.689 305.391C290.69 303.421 291.078 301.471 291.833 299.651C292.587 297.831 293.693 296.177 295.086 294.785C296.479 293.392 298.133 292.288 299.953 291.534C301.774 290.781 303.724 290.393 305.694 290.394C307.664 290.394 309.615 290.782 311.435 291.537C313.255 292.291 314.908 293.396 316.301 294.79L705.211 683.69C707.31 685.788 708.74 688.461 709.319 691.372C709.898 694.282 709.601 697.299 708.465 700.041C707.329 702.783 705.406 705.126 702.938 706.774C700.47 708.422 697.569 709.301 694.601 709.3V709.3Z" fill="#48484A"/>
<path d="M716.599 656.42H641.779C637.801 656.42 633.986 654.84 631.173 652.026C628.36 649.213 626.779 645.398 626.779 641.42C626.779 637.442 628.36 633.626 631.173 630.813C633.986 628 637.801 626.42 641.779 626.42H716.599C720.578 626.42 724.393 628 727.206 630.813C730.019 633.626 731.599 637.442 731.599 641.42C731.599 645.398 730.019 649.213 727.206 652.026C724.393 654.84 720.578 656.42 716.599 656.42Z" fill="#48484A"/>
<path d="M641.73 732.49C637.752 732.49 633.937 730.909 631.124 728.096C628.311 725.283 626.73 721.468 626.73 717.49V641.42C626.73 637.442 628.311 633.626 631.124 630.813C633.937 628 637.752 626.42 641.73 626.42C645.709 626.42 649.524 628 652.337 630.813C655.15 633.626 656.73 637.442 656.73 641.42V717.49C656.73 721.468 655.15 725.283 652.337 728.096C649.524 730.909 645.709 732.49 641.73 732.49Z" fill="#48484A"/>
<path d="M351.34 365.41C347.362 365.41 343.546 363.829 340.733 361.016C337.92 358.203 336.34 354.388 336.34 350.41V275.64C336.34 271.661 337.92 267.846 340.733 265.033C343.546 262.22 347.362 260.64 351.34 260.64C355.318 260.64 359.133 262.22 361.947 265.033C364.76 267.846 366.34 271.661 366.34 275.64V350.46C366.327 354.429 364.74 358.232 361.929 361.034C359.117 363.836 355.309 365.41 351.34 365.41V365.41Z" fill="#48484A"/>
<path d="M351.339 365.41H275.279C271.301 365.41 267.486 363.83 264.673 361.017C261.86 358.204 260.279 354.388 260.279 350.41C260.279 346.432 261.86 342.617 264.673 339.804C267.486 336.991 271.301 335.41 275.279 335.41H351.339C355.318 335.41 359.133 336.991 361.946 339.804C364.759 342.617 366.339 346.432 366.339 350.41C366.339 354.388 364.759 358.204 361.946 361.017C359.133 363.83 355.318 365.41 351.339 365.41Z" fill="#48484A"/>
<path d="M305.39 709.3C302.422 709.301 299.521 708.422 297.053 706.774C294.585 705.126 292.661 702.783 291.525 700.041C290.389 697.299 290.092 694.282 290.671 691.372C291.251 688.461 292.68 685.788 294.78 683.69L683.69 294.79C686.519 292.057 690.308 290.545 694.241 290.58C698.174 290.614 701.936 292.191 704.717 294.972C707.498 297.754 709.076 301.516 709.11 305.449C709.144 309.382 707.632 313.171 704.9 316L315.99 704.91C314.6 706.305 312.948 707.412 311.129 708.165C309.309 708.919 307.359 709.304 305.39 709.3V709.3Z" fill="#48484A"/>
<path d="M641.42 373.27C637.442 373.27 633.626 371.69 630.813 368.877C628 366.064 626.42 362.248 626.42 358.27V283.45C626.42 279.472 628 275.657 630.813 272.844C633.626 270.03 637.442 268.45 641.42 268.45C645.398 268.45 649.213 270.03 652.026 272.844C654.839 275.657 656.42 279.472 656.42 283.45V358.27C656.42 362.248 654.839 366.064 652.026 368.877C649.213 371.69 645.398 373.27 641.42 373.27Z" fill="#48484A"/>
<path d="M717.48 373.271H641.42C637.442 373.271 633.626 371.69 630.813 368.877C628 366.064 626.42 362.249 626.42 358.271C626.42 354.292 628 350.477 630.813 347.664C633.626 344.851 637.442 343.271 641.42 343.271H717.48C721.458 343.271 725.273 344.851 728.086 347.664C730.899 350.477 732.48 354.292 732.48 358.271C732.48 362.249 730.899 366.064 728.086 368.877C725.273 371.69 721.458 373.271 717.48 373.271Z" fill="#48484A"/>
<path d="M350.41 663.64H275.6C271.621 663.64 267.806 662.059 264.993 659.246C262.18 656.433 260.6 652.618 260.6 648.64C260.6 644.661 262.18 640.846 264.993 638.033C267.806 635.22 271.621 633.64 275.6 633.64H350.42C354.398 633.64 358.213 635.22 361.026 638.033C363.839 640.846 365.42 644.661 365.42 648.64C365.42 652.618 363.839 656.433 361.026 659.246C358.213 662.059 354.398 663.64 350.42 663.64H350.41Z" fill="#48484A"/>
<path d="M350.41 739.72C346.432 739.72 342.617 738.139 339.803 735.326C336.99 732.513 335.41 728.698 335.41 724.72V648.64C335.41 644.661 336.99 640.846 339.803 638.033C342.617 635.22 346.432 633.64 350.41 633.64C354.388 633.64 358.204 635.22 361.017 638.033C363.83 640.846 365.41 644.661 365.41 648.64V724.7C365.413 726.671 365.027 728.624 364.274 730.446C363.521 732.268 362.417 733.924 361.024 735.319C359.631 736.714 357.976 737.821 356.155 738.576C354.334 739.331 352.382 739.72 350.41 739.72V739.72Z" fill="#48484A"/>
<path d="M775 514.78H225C221.022 514.78 217.207 513.2 214.394 510.387C211.581 507.574 210 503.759 210 499.78C210 495.802 211.581 491.987 214.394 489.174C217.207 486.361 221.022 484.78 225 484.78H775C778.978 484.78 782.794 486.361 785.607 489.174C788.42 491.987 790 495.802 790 499.78C790 503.759 788.42 507.574 785.607 510.387C782.794 513.2 778.978 514.78 775 514.78Z" fill="#48484A"/>
<path d="M700.22 514.78C697.254 514.78 694.355 513.9 691.889 512.252C689.423 510.605 687.501 508.263 686.366 505.523C685.23 502.784 684.932 499.769 685.51 496.86C686.087 493.951 687.514 491.279 689.61 489.18L742.519 436.27C745.348 433.538 749.138 432.026 753.07 432.06C757.003 432.094 760.766 433.672 763.547 436.453C766.328 439.234 767.905 442.996 767.94 446.929C767.974 450.862 766.462 454.651 763.729 457.48L710.83 510.39C709.436 511.783 707.782 512.887 705.961 513.641C704.141 514.394 702.19 514.781 700.22 514.78V514.78Z" fill="#48484A"/>
<path d="M754.01 568.571C752.039 568.57 750.088 568.181 748.268 567.426C746.447 566.671 744.793 565.565 743.4 564.171L689.6 510.391C688.208 508.997 687.103 507.343 686.35 505.523C685.596 503.703 685.209 501.752 685.209 499.782C685.209 497.812 685.598 495.861 686.352 494.042C687.107 492.222 688.212 490.568 689.605 489.176C690.999 487.783 692.653 486.678 694.473 485.925C696.293 485.171 698.244 484.784 700.214 484.784C702.184 484.785 704.134 485.173 705.954 485.927C707.774 486.682 709.428 487.787 710.82 489.181L764.6 542.96C766.699 545.058 768.128 547.73 768.708 550.64C769.288 553.549 768.992 556.566 767.857 559.307C766.722 562.048 764.8 564.392 762.334 566.041C759.867 567.689 756.967 568.57 754 568.571H754.01Z" fill="#48484A"/>
<path d="M289.109 514.34C287.139 514.341 285.188 513.954 283.368 513.2C281.547 512.447 279.893 511.343 278.499 509.95L225.599 457.04C222.867 454.211 221.355 450.422 221.389 446.489C221.423 442.556 223.001 438.794 225.782 436.013C228.563 433.231 232.325 431.654 236.258 431.62C240.191 431.586 243.98 433.097 246.809 435.83L299.71 488.73C301.808 490.827 303.238 493.499 303.817 496.409C304.397 499.319 304.101 502.335 302.966 505.076C301.831 507.818 299.909 510.161 297.443 511.81C294.976 513.459 292.076 514.339 289.109 514.34Z" fill="#48484A"/>
<path d="M235.321 568.13C232.354 568.129 229.454 567.249 226.988 565.6C224.521 563.951 222.599 561.608 221.465 558.867C220.33 556.125 220.034 553.109 220.613 550.199C221.193 547.29 222.623 544.617 224.721 542.52L278.501 488.73C279.894 487.337 281.548 486.233 283.369 485.479C285.189 484.726 287.14 484.338 289.11 484.339C291.08 484.339 293.03 484.728 294.85 485.482C296.67 486.236 298.323 487.342 299.716 488.735C301.109 490.128 302.213 491.782 302.967 493.603C303.72 495.423 304.108 497.374 304.107 499.344C304.107 501.314 303.718 503.264 302.964 505.084C302.21 506.904 301.104 508.558 299.711 509.95L245.931 563.73C244.538 565.125 242.884 566.231 241.064 566.986C239.243 567.741 237.292 568.13 235.321 568.13V568.13Z" fill="#48484A"/>
</svg>
