<svg width="1000" height="1000" viewBox="0 0 1000 1000" fill="none" xmlns="http://www.w3.org/2000/svg">
<path d="M740.856 324.895C739.9 324.834 738.967 324.578 738.115 324.143C737.262 323.708 736.508 323.102 735.898 322.363C735.289 321.625 734.838 320.769 734.573 319.849C734.307 318.929 734.233 317.965 734.356 317.015C734.706 314.275 735.016 311.335 735.056 309.185C735.25 298.192 732.725 287.321 727.704 277.54C722.683 267.758 715.322 259.369 706.276 253.12C697.231 246.87 686.78 242.952 675.855 241.716C664.93 240.48 653.869 241.964 643.656 246.035C642.42 246.529 641.092 246.747 639.763 246.674C638.435 246.6 637.139 246.238 635.965 245.611C634.791 244.984 633.769 244.108 632.969 243.045C632.17 241.982 631.612 240.756 631.336 239.455C622.81 199.955 600.225 164.896 567.782 140.804C535.34 116.712 495.249 105.226 454.971 108.483C414.692 111.741 376.969 129.52 348.82 158.513C320.67 187.506 304.013 225.738 301.946 266.095C301.84 268.387 300.858 270.551 299.201 272.139C297.544 273.727 295.34 274.617 293.046 274.625H281.726C206.316 274.625 146.126 354.075 149.096 430.145C151.686 496.525 208.996 554.575 275.346 557.955H740.966C797.396 558.835 850.446 507.465 851.696 443.485C852.936 380.615 802.596 328.865 740.856 324.895Z" fill="#848B8C"/>
<path d="M742.376 572.956H274.976H274.586C238.756 571.126 204.326 555.246 177.646 528.236C150.966 501.226 135.516 466.606 134.116 430.746C132.356 385.476 150.766 338.196 183.376 304.296C211.066 275.496 245.996 259.646 281.736 259.646H287.346C290.904 216.814 309.532 176.631 339.919 146.235C370.305 115.839 410.483 97.2001 453.314 93.6286C496.145 90.0572 538.855 101.785 573.856 126.728C608.857 151.671 633.882 188.215 644.486 229.866C656.818 226.13 669.859 225.359 682.546 227.615C695.233 229.871 707.208 235.091 717.497 242.849C727.785 250.608 736.097 260.686 741.754 272.264C747.412 283.841 750.256 296.591 750.056 309.476C750.056 309.876 750.056 310.296 750.056 310.726C780.934 314.635 809.492 329.161 830.836 351.816C854.486 376.536 867.396 409.61 866.746 443.816C866.043 478.294 852.074 511.174 827.746 535.616C804.186 559.386 773.166 572.956 742.376 572.956ZM740.976 542.956H742.436C791.766 542.956 835.666 496.666 836.716 443.186C837.766 389.706 794.326 343.366 739.896 339.866C736.896 339.673 733.967 338.867 731.291 337.499C728.614 336.13 726.247 334.227 724.334 331.908C722.422 329.589 721.005 326.902 720.171 324.014C719.337 321.126 719.104 318.098 719.486 315.116C719.966 311.306 720.046 309.506 720.056 308.916C720.216 300.392 718.266 291.96 714.379 284.373C710.493 276.785 704.79 270.276 697.778 265.425C690.767 260.575 682.665 257.534 674.194 256.572C665.723 255.611 657.145 256.76 649.226 259.916C645.962 261.218 642.455 261.792 638.947 261.598C635.439 261.405 632.015 260.448 628.915 258.795C625.815 257.142 623.113 254.833 620.997 252.028C618.882 249.223 617.403 245.991 616.666 242.556C601.776 173.276 539.416 122.956 468.396 122.956C429.504 122.912 392.086 137.827 363.889 164.613C335.692 191.399 318.877 228.003 316.926 266.846C316.63 272.982 313.986 278.77 309.541 283.011C305.095 287.252 299.189 289.62 293.046 289.626H281.726C254.226 289.626 226.966 302.216 204.986 325.066C177.926 353.216 162.636 392.276 164.086 429.556C166.376 487.956 217.466 539.776 275.726 542.956H740.976Z" fill="#48484A"/>
<path d="M362.095 258.955H361.325C359.357 258.857 357.428 258.371 355.648 257.527C353.867 256.682 352.271 255.495 350.949 254.034C349.628 252.572 348.607 250.864 347.946 249.008C347.285 247.152 346.996 245.183 347.095 243.215C348.361 218.029 359.263 194.295 377.545 176.925C395.827 159.555 420.088 149.881 445.305 149.905C449.284 149.905 453.099 151.486 455.912 154.299C458.725 157.112 460.305 160.927 460.305 164.905C460.305 168.884 458.725 172.699 455.912 175.512C453.099 178.325 449.284 179.905 445.305 179.905C427.785 179.886 410.928 186.605 398.225 198.671C385.522 210.738 377.946 227.227 377.065 244.725C376.868 248.563 375.205 252.179 372.42 254.827C369.634 257.475 365.939 258.953 362.095 258.955V258.955Z" fill="white"/>
<path d="M722.725 534.395C718.746 534.395 714.931 532.815 712.118 530.002C709.305 527.189 707.725 523.374 707.725 519.395C707.725 515.417 709.305 511.602 712.118 508.789C714.931 505.976 718.746 504.396 722.725 504.396C740.245 504.415 757.102 497.696 769.805 485.63C782.508 473.563 790.084 457.074 790.965 439.576C791.064 437.606 791.55 435.675 792.395 433.893C793.241 432.111 794.429 430.513 795.892 429.19C797.355 427.867 799.064 426.846 800.922 426.183C802.78 425.521 804.75 425.231 806.72 425.331C808.689 425.43 810.62 425.916 812.402 426.761C814.184 427.607 815.782 428.795 817.105 430.258C818.428 431.721 819.449 433.43 820.112 435.288C820.774 437.146 821.064 439.116 820.965 441.086C819.699 466.277 808.792 490.016 790.504 507.386C772.216 524.756 747.947 534.427 722.725 534.395V534.395Z" fill="#48484A"/>
<path d="M206.395 422.625C202.515 422.628 198.785 421.128 195.988 418.439C193.191 415.75 191.545 412.082 191.395 408.205C190.395 383.575 200.395 357.885 218.115 339.485C233.385 323.615 252.765 314.865 272.695 314.865H278.355C282.333 314.865 286.148 316.446 288.961 319.259C291.774 322.072 293.355 325.887 293.355 329.865C293.355 333.843 291.774 337.659 288.961 340.472C286.148 343.285 282.333 344.865 278.355 344.865H272.725C261.035 344.865 249.325 350.345 239.725 360.285C227.725 372.725 220.725 390.645 221.365 407.035C221.442 409.005 221.131 410.97 220.449 412.819C219.767 414.668 218.727 416.365 217.388 417.811C216.05 419.258 214.44 420.427 212.65 421.252C210.859 422.076 208.924 422.539 206.955 422.615L206.395 422.625Z" fill="white"/>
<path d="M648.654 902.035C644.941 902.035 641.38 900.56 638.755 897.935C636.129 895.309 634.654 891.748 634.654 888.035V613.035C634.654 609.322 636.129 605.761 638.755 603.136C641.38 600.51 644.941 599.035 648.654 599.035C652.367 599.035 655.928 600.51 658.554 603.136C661.179 605.761 662.654 609.322 662.654 613.035V888.035C662.654 891.748 661.179 895.309 658.554 897.935C655.928 900.56 652.367 902.035 648.654 902.035Z" fill="#48484A"/>
<path d="M648.656 664.425C644.946 664.423 641.389 662.948 638.766 660.325L612.306 633.875C609.68 631.25 608.205 627.689 608.205 623.975C608.205 620.262 609.68 616.701 612.306 614.075C614.931 611.45 618.493 609.975 622.206 609.975C625.919 609.975 629.48 611.45 632.106 614.075L658.556 640.525C660.514 642.483 661.848 644.978 662.388 647.694C662.928 650.41 662.651 653.225 661.591 655.783C660.531 658.341 658.737 660.528 656.434 662.066C654.132 663.604 651.425 664.425 648.656 664.425V664.425Z" fill="#48484A"/>
<path d="M648.655 664.426C645.887 664.424 643.181 663.602 640.88 662.062C638.579 660.523 636.786 658.337 635.728 655.779C634.669 653.221 634.393 650.407 634.934 647.692C635.474 644.977 636.808 642.483 638.765 640.526L665.655 613.636C668.281 611.01 671.842 609.535 675.555 609.535C679.268 609.535 682.829 611.01 685.455 613.636C688.081 616.262 689.556 619.823 689.556 623.536C689.556 627.249 688.081 630.81 685.455 633.436L658.555 660.326C657.255 661.626 655.712 662.657 654.013 663.36C652.314 664.064 650.494 664.426 648.655 664.426V664.426Z" fill="#48484A"/>
<path d="M621.985 896.435C619.216 896.435 616.509 895.614 614.207 894.076C611.904 892.537 610.11 890.351 609.05 887.793C607.99 885.234 607.713 882.419 608.253 879.703C608.794 876.988 610.127 874.493 612.085 872.535L638.535 846.085C639.825 844.742 641.37 843.669 643.079 842.93C644.788 842.192 646.628 841.801 648.49 841.782C650.352 841.763 652.199 842.115 653.923 842.819C655.648 843.522 657.214 844.563 658.531 845.879C659.848 847.196 660.889 848.762 661.594 850.485C662.298 852.209 662.652 854.056 662.633 855.918C662.615 857.78 662.226 859.62 661.488 861.33C660.75 863.039 659.678 864.585 658.335 865.875L631.885 892.335C630.585 893.635 629.042 894.666 627.343 895.37C625.645 896.073 623.824 896.435 621.985 896.435V896.435Z" fill="#48484A"/>
<path d="M675.334 896.876C673.496 896.876 671.675 896.514 669.976 895.81C668.278 895.107 666.734 894.076 665.434 892.776L638.534 865.876C635.996 863.233 634.596 859.7 634.634 856.036C634.671 852.371 636.144 848.868 638.736 846.278C641.328 843.687 644.832 842.216 648.496 842.18C652.16 842.145 655.692 843.547 658.334 846.086L685.234 872.976C687.192 874.934 688.526 877.428 689.066 880.144C689.606 882.86 689.329 885.675 688.269 888.234C687.21 890.792 685.415 892.978 683.113 894.517C680.81 896.055 678.103 896.876 675.334 896.876V896.876Z" fill="#48484A"/>
<path d="M746.075 861.685C744.236 861.685 742.416 861.323 740.717 860.62C739.018 859.916 737.475 858.885 736.175 857.585L541.725 663.125C539.23 660.475 537.865 656.957 537.92 653.317C537.974 649.678 539.445 646.203 542.019 643.629C544.592 641.055 548.067 639.585 551.707 639.53C555.347 639.475 558.865 640.84 561.515 643.335L755.975 837.785C757.933 839.743 759.266 842.238 759.807 844.953C760.347 847.669 760.07 850.484 759.01 853.043C757.95 855.601 756.156 857.788 753.853 859.326C751.551 860.864 748.844 861.685 746.075 861.685V861.685Z" fill="#48484A"/>
<path d="M757.045 835.245H719.635C715.922 835.245 712.361 833.77 709.735 831.145C707.11 828.519 705.635 824.958 705.635 821.245C705.635 817.532 707.11 813.971 709.735 811.346C712.361 808.72 715.922 807.245 719.635 807.245H757.045C760.758 807.245 764.319 808.72 766.944 811.346C769.57 813.971 771.045 817.532 771.045 821.245C771.045 824.958 769.57 828.519 766.944 831.145C764.319 833.77 760.758 835.245 757.045 835.245V835.245Z" fill="#48484A"/>
<path d="M719.635 873.275C715.922 873.275 712.361 871.8 709.735 869.175C707.11 866.549 705.635 862.988 705.635 859.275V821.275C705.635 817.562 707.11 814.001 709.735 811.376C712.361 808.75 715.922 807.275 719.635 807.275C723.348 807.275 726.909 808.75 729.534 811.376C732.16 814.001 733.635 817.562 733.635 821.275V859.275C733.635 862.988 732.16 866.549 729.534 869.175C726.909 871.8 723.348 873.275 719.635 873.275V873.275Z" fill="#48484A"/>
<path d="M574.445 689.736C570.732 689.736 567.171 688.261 564.546 685.635C561.92 683.01 560.445 679.449 560.445 675.736V638.336C560.445 634.623 561.92 631.062 564.546 628.436C567.171 625.811 570.732 624.336 574.445 624.336C578.158 624.336 581.719 625.811 584.345 628.436C586.97 631.062 588.445 634.623 588.445 638.336V675.736C588.445 679.449 586.97 683.01 584.345 685.635C581.719 688.261 578.158 689.736 574.445 689.736V689.736Z" fill="#48484A"/>
<path d="M574.445 689.735H536.445C532.732 689.735 529.171 688.26 526.546 685.635C523.92 683.009 522.445 679.448 522.445 675.735C522.445 672.022 523.92 668.461 526.546 665.836C529.171 663.21 532.732 661.735 536.445 661.735H574.445C578.158 661.735 581.719 663.21 584.345 665.836C586.97 668.461 588.445 672.022 588.445 675.735C588.445 679.448 586.97 683.009 584.345 685.635C581.719 688.26 578.158 689.735 574.445 689.735V689.735Z" fill="#48484A"/>
<path d="M551.466 861.685C548.697 861.685 545.99 860.864 543.687 859.326C541.385 857.787 539.59 855.601 538.531 853.043C537.471 850.484 537.194 847.669 537.734 844.953C538.274 842.238 539.608 839.743 541.566 837.785L736.016 643.335C737.306 641.992 738.85 640.919 740.56 640.18C742.269 639.442 744.108 639.051 745.97 639.032C747.833 639.013 749.68 639.365 751.404 640.069C753.128 640.772 754.694 641.813 756.012 643.129C757.329 644.446 758.37 646.012 759.074 647.735C759.779 649.459 760.132 651.306 760.114 653.168C760.096 655.03 759.706 656.87 758.968 658.58C758.23 660.289 757.158 661.835 755.816 663.125L561.366 857.585C560.066 858.885 558.522 859.916 556.824 860.62C555.125 861.323 553.304 861.685 551.466 861.685Z" fill="#48484A"/>
<path d="M719.484 693.666C715.771 693.666 712.21 692.191 709.585 689.565C706.959 686.94 705.484 683.379 705.484 679.666V642.256C705.484 638.543 706.959 634.982 709.585 632.356C712.21 629.731 715.771 628.256 719.484 628.256C723.197 628.256 726.758 629.731 729.384 632.356C732.009 634.982 733.484 638.543 733.484 642.256V679.666C733.484 683.379 732.009 686.94 729.384 689.565C726.758 692.191 723.197 693.666 719.484 693.666V693.666Z" fill="#48484A"/>
<path d="M757.516 693.665H719.516C715.803 693.665 712.242 692.19 709.616 689.565C706.991 686.939 705.516 683.378 705.516 679.665C705.516 675.952 706.991 672.391 709.616 669.766C712.242 667.14 715.803 665.665 719.516 665.665H757.516C761.229 665.665 764.79 667.14 767.415 669.766C770.041 672.391 771.516 675.952 771.516 679.665C771.516 683.378 770.041 686.939 767.415 689.565C764.79 692.19 761.229 693.665 757.516 693.665V693.665Z" fill="#48484A"/>
<path d="M573.974 838.865H536.564C532.851 838.865 529.291 837.39 526.665 834.765C524.04 832.139 522.564 828.578 522.564 824.865C522.564 821.152 524.04 817.591 526.665 814.966C529.291 812.34 532.851 810.865 536.564 810.865H573.974C577.688 810.865 581.249 812.34 583.874 814.966C586.5 817.591 587.974 821.152 587.974 824.865C587.974 828.578 586.5 832.139 583.874 834.765C581.249 837.39 577.688 838.865 573.974 838.865Z" fill="#48484A"/>
<path d="M573.975 876.896C570.262 876.896 566.701 875.421 564.075 872.795C561.45 870.17 559.975 866.609 559.975 862.896V824.896C559.975 821.182 561.45 817.622 564.075 814.996C566.701 812.371 570.262 810.896 573.975 810.896C577.688 810.896 581.249 812.371 583.874 814.996C586.5 817.622 587.975 821.182 587.975 824.896V862.896C587.975 866.609 586.5 870.17 583.874 872.795C581.249 875.421 577.688 876.896 573.975 876.896Z" fill="#48484A"/>
<path d="M786.266 764.426H511.266C507.553 764.426 503.992 762.951 501.366 760.325C498.741 757.7 497.266 754.139 497.266 750.426C497.266 746.713 498.741 743.152 501.366 740.526C503.992 737.901 507.553 736.426 511.266 736.426H786.266C789.979 736.426 793.54 737.901 796.165 740.526C798.791 743.152 800.266 746.713 800.266 750.426C800.266 754.139 798.791 757.7 796.165 760.325C793.54 762.951 789.979 764.426 786.266 764.426V764.426Z" fill="#48484A"/>
<path d="M748.886 764.425C746.117 764.425 743.41 763.604 741.107 762.066C738.805 760.528 737.01 758.341 735.95 755.783C734.891 753.225 734.614 750.41 735.154 747.694C735.694 744.978 737.028 742.483 738.986 740.525L765.436 714.075C766.736 712.775 768.279 711.744 769.978 711.04C771.677 710.337 773.497 709.975 775.336 709.975C777.174 709.975 778.995 710.337 780.694 711.04C782.392 711.744 783.936 712.775 785.236 714.075C786.536 715.375 787.567 716.919 788.271 718.617C788.974 720.316 789.336 722.137 789.336 723.975C789.336 725.814 788.974 727.634 788.271 729.333C787.567 731.032 786.536 732.575 785.236 733.875L758.786 760.325C757.486 761.625 755.942 762.657 754.244 763.36C752.545 764.063 750.724 764.425 748.886 764.425Z" fill="#48484A"/>
<path d="M775.776 791.316C773.937 791.316 772.116 790.954 770.418 790.25C768.719 789.547 767.176 788.516 765.875 787.216L738.985 760.326C736.36 757.7 734.885 754.139 734.885 750.426C734.885 746.712 736.36 743.151 738.985 740.526C741.611 737.9 745.172 736.425 748.885 736.425C752.599 736.425 756.16 737.9 758.786 740.526L785.675 767.416C787.634 769.373 788.967 771.868 789.507 774.584C790.048 777.3 789.77 780.115 788.711 782.673C787.651 785.232 785.856 787.418 783.554 788.956C781.251 790.495 778.545 791.316 775.776 791.316V791.316Z" fill="#48484A"/>
<path d="M543.326 764.206C541.487 764.206 539.667 763.844 537.968 763.14C536.269 762.437 534.726 761.406 533.426 760.106L506.976 733.656C504.35 731.03 502.875 727.469 502.875 723.756C502.875 720.042 504.35 716.481 506.976 713.856C509.601 711.23 513.163 709.755 516.876 709.755C520.589 709.755 524.15 711.23 526.776 713.856L553.226 740.306C555.184 742.263 556.517 744.758 557.058 747.474C557.598 750.19 557.321 753.005 556.261 755.563C555.201 758.122 553.407 760.308 551.104 761.846C548.802 763.385 546.095 764.206 543.326 764.206V764.206Z" fill="#48484A"/>
<path d="M516.435 791.096C513.665 791.096 510.959 790.275 508.656 788.737C506.354 787.198 504.559 785.012 503.499 782.453C502.44 779.895 502.162 777.08 502.703 774.364C503.243 771.648 504.577 769.154 506.535 767.196L533.425 740.306C536.05 737.68 539.611 736.205 543.325 736.205C547.038 736.205 550.599 737.68 553.225 740.306C555.85 742.931 557.325 746.493 557.325 750.206C557.325 753.919 555.85 757.48 553.225 760.106L526.335 786.956C525.038 788.263 523.496 789.302 521.797 790.012C520.098 790.722 518.276 791.091 516.435 791.096Z" fill="#48484A"/>
<path d="M314.294 609.426H429.564C432.56 609.424 435.489 610.311 437.98 611.975C440.471 613.638 442.413 616.003 443.56 618.771C444.706 621.538 445.006 624.584 444.421 627.522C443.837 630.46 442.393 633.158 440.274 635.276L369.274 706.276C367.156 708.395 365.714 711.094 365.13 714.032C364.546 716.97 364.846 720.015 365.992 722.783C367.139 725.55 369.08 727.916 371.57 729.581C374.06 731.246 376.988 732.135 379.984 732.136H403.724C406.72 732.134 409.649 733.021 412.14 734.685C414.631 736.348 416.573 738.713 417.72 741.481C418.867 744.248 419.166 747.294 418.581 750.232C417.997 753.17 416.553 755.868 414.434 757.986L285.354 887.076C273.354 899.076 253.734 885.306 260.924 869.946L288.114 811.826C289.195 809.518 289.675 806.974 289.511 804.431C289.347 801.888 288.544 799.427 287.176 797.277C285.807 795.127 283.919 793.358 281.684 792.132C279.45 790.906 276.942 790.264 274.394 790.266H230.644C228.006 790.266 225.413 789.576 223.123 788.266C220.833 786.956 218.925 785.071 217.587 782.797C216.25 780.523 215.529 777.939 215.497 775.301C215.465 772.663 216.122 770.062 217.404 767.756L301.044 617.206C302.359 614.846 304.281 612.881 306.61 611.513C308.94 610.145 311.593 609.424 314.294 609.426V609.426Z" fill="#FFCD00"/>
<path d="M274.725 906.645C268.49 906.623 262.415 904.67 257.335 901.055C251.462 897.04 247.223 891.053 245.388 884.179C243.554 877.306 244.244 870.003 247.335 863.595L274.525 805.485C274.535 805.445 274.533 805.402 274.518 805.363C274.504 805.324 274.479 805.29 274.445 805.265H230.645C225.395 805.264 220.237 803.892 215.681 801.285C211.124 798.679 207.327 794.928 204.665 790.403C202.004 785.878 200.569 780.737 200.504 775.488C200.439 770.239 201.746 765.064 204.295 760.475L287.935 609.955C290.549 605.257 294.371 601.343 299.006 598.618C303.64 595.893 308.919 594.456 314.295 594.455H429.565C435.526 594.457 441.353 596.226 446.309 599.538C451.266 602.85 455.129 607.558 457.41 613.065C459.692 618.572 460.29 624.632 459.129 630.479C457.967 636.327 455.098 641.698 450.885 645.915L379.885 716.915L379.825 716.985C379.837 717.051 379.864 717.112 379.905 717.165H403.725C409.688 717.162 415.519 718.928 420.478 722.24C425.437 725.551 429.303 730.26 431.585 735.769C433.868 741.278 434.465 747.341 433.301 753.189C432.136 759.038 429.263 764.41 425.045 768.625L295.955 897.715C293.181 900.532 289.877 902.771 286.233 904.304C282.589 905.837 278.678 906.632 274.725 906.645ZM274.465 876.405L274.665 876.545L274.745 876.455L403.835 747.375L403.895 747.305C403.882 747.241 403.858 747.181 403.825 747.125H379.985C374.022 747.125 368.192 745.357 363.234 742.044C358.275 738.731 354.411 734.023 352.129 728.513C349.846 723.004 349.249 716.941 350.413 711.093C351.576 705.244 354.448 699.872 358.665 695.655L429.665 624.655L429.735 624.585C429.714 624.523 429.687 624.462 429.655 624.405H314.295C314.269 624.403 314.243 624.409 314.22 624.422C314.197 624.434 314.178 624.452 314.165 624.475L230.525 775.055C230.522 775.085 230.522 775.115 230.525 775.145V775.145C230.525 775.145 230.585 775.225 230.625 775.265H274.445C279.517 775.265 284.507 776.544 288.953 778.985C293.399 781.426 297.158 784.949 299.88 789.229C302.602 793.509 304.2 798.406 304.526 803.468C304.852 808.53 303.896 813.591 301.745 818.185L274.555 876.305C274.519 876.34 274.489 876.381 274.465 876.425V876.405Z" fill="#48484A"/>
<path d="M278.515 757.955C275.897 757.946 273.328 757.252 271.061 755.941C268.795 754.631 266.911 752.751 265.596 750.487C264.282 748.223 263.583 745.655 263.569 743.037C263.554 740.419 264.225 737.843 265.515 735.565L314.885 648.265C315.83 646.506 317.117 644.954 318.671 643.699C320.224 642.444 322.012 641.512 323.93 640.957C325.848 640.402 327.858 640.236 329.841 640.468C331.824 640.7 333.741 641.326 335.479 642.308C337.218 643.291 338.742 644.611 339.964 646.19C341.185 647.77 342.079 649.577 342.593 651.507C343.107 653.437 343.23 655.449 342.955 657.427C342.681 659.405 342.015 661.308 340.995 663.025L291.625 750.335C290.314 752.655 288.408 754.584 286.104 755.924C283.8 757.263 281.18 757.964 278.515 757.955Z" fill="white"/>
</svg>
