<svg id="simple" xmlns="http://www.w3.org/2000/svg" viewBox="0 0 1285 1190"><defs><style>.cls-1,.cls-2{fill:none;}.cls-1,.cls-3{stroke:#a7d381;}.cls-1,.cls-2,.cls-3{stroke-linecap:round;stroke-miterlimit:10;stroke-width:85px;}.cls-2{stroke:#67bd45;}.cls-3{fill:#a6d281;}</style></defs><title>Maturita</title><g id="Small"><path class="cls-1" d="M825,752.5h475a50,50,0,0,1,50,50v400a50,50,0,0,1-50,50H200a50,50,0,0,1-50-50v-400a50,50,0,0,1,50-50H689a50,50,0,0,0,50-50V577a51,51,0,0,0-19.14-39.82L589,427.5" transform="translate(-107.5 -105)"/><line class="cls-2" x1="727.5" y1="525" x2="857.5" y2="415"/><path class="cls-2" d="M740,422.5V297a51,51,0,0,1,19.14-39.82L890,147.5" transform="translate(-107.5 -105)"/><circle class="cls-3" cx="177.5" cy="895" r="25"/><circle class="cls-3" cx="322.5" cy="895" r="25"/><circle class="cls-3" cx="467.5" cy="895" r="25"/></g></svg>