<?xml version="1.0" ?><!DOCTYPE svg  PUBLIC '-//W3C//DTD SVG 1.1//EN'  'http://www.w3.org/Graphics/SVG/1.1/DTD/svg11.dtd'><svg enable-background="new 0 0 512 512" height="512px" id="Layer_1" version="1.1" viewBox="0 0 512 512" width="512px" xml:space="preserve" xmlns="http://www.w3.org/2000/svg" xmlns:xlink="http://www.w3.org/1999/xlink"><g><path d="M38.599,388.643c0,0-31.557-232.265,102.136-242.648c0,0,160.669-175.305,259.982-93.046   c90.31,74.801,23.717,133.183,23.717,133.183s3.834-45.28-16.42-65.68c-23.268-23.435-59.873-30.995-72.064,10.947   c-17.66,60.75,194.302,129.534,135.92,255.42C379.366,386.819,351.912,386.815,38.599,388.643z" fill="#EE514A"/><circle cx="433.556" cy="171.536" fill="#FFFFFF" r="38.313"/><path d="M489.534,434.518c0,25.082-20.333,45.482-45.414,45.482H67.984c-25.082,0-45.414-20.4-45.414-45.482l0,0   c0-25.08-4.808-66.818,43.812-49.722c0,0,101.514-17.594,193.411-17.114c94.034-4.274,184.862,17.122,184.862,17.122   C492.205,368.775,489.534,409.438,489.534,434.518L489.534,434.518z" fill="#FFFFFF"/><path d="M338.976,30.985c21.777,0.002,42.871,6.333,61.741,21.963c38.296,31.72,48.372,60.485,47.281,83.1   c13.999,5.703,23.871,19.439,23.871,35.487c0,21.16-17.153,38.313-38.313,38.313s-38.313-17.153-38.313-38.313   c0-15.645,9.382-29.09,22.822-35.041c-2.41-6.04-5.666-11.625-10.052-16.043c-11.331-11.413-25.823-19.06-39.12-19.059   c-14.008,0.001-26.69,8.49-32.944,30.006c-17.477,60.118,189.898,128.103,137.646,251.504   c17.335,7.023,15.938,33.937,15.938,52.114c0,25.082-20.333,45.982-45.414,45.982H67.984c-25.082,0-45.414-20.9-45.414-45.982   c0-18.418-2.593-46.352,15.284-52.83c-3.902-37.605-17.494-226.835,102.881-236.185C140.735,146.002,246.139,30.977,338.976,30.985    M338.965,9c-43.502,0-93.117,20.649-147.473,61.827c-28.903,21.895-51.212,43.523-61.354,53.888   c-29.13,4.215-53.455,17.778-72.405,40.506C34.082,193.593,19.61,235.57,14.721,290.044c-2.919,32.524-1.722,62.729-0.34,81.389   c-5.21,5.522-9.761,13.409-12.206,24.695c-2.42,11.174-2.246,23.213-2.105,32.89c0.031,2.126,0.06,4.445,0.06,6.281   C0.13,473.01,30.569,504,67.984,504H444.12c37.414,0,67.854-30.992,67.854-68.702c0-1.194,0.006-2.585,0.013-3.847   c0.049-9.752,0.11-21.966-2.403-33.411c-2.094-9.53-5.61-16.759-9.72-22.181c9.78-34.381,3.999-68.724-17.269-102.274   c-9.799-15.456-22.104-29.669-35.238-42.867c26.873-6.266,46.952-30.423,46.952-59.177c0-19.536-9.205-37.382-24.338-48.661   c-1.305-11.843-4.942-23.634-10.875-35.204c-9.172-17.889-23.998-35.16-44.065-51.782C393.307,17.9,367.72,9,338.978,9l0,0   C338.976,9,338.968,9,338.965,9L338.965,9z M373.413,162.95c-2.743-2.848-5.235-5.617-7.419-8.295   c-6.201-7.607-9.379-13.959-8.497-16.992c4.02-13.83,9.381-13.83,11.398-13.831c5.267,0,12.135,3.113,18.506,8.213   C379.979,140.725,375.061,151.421,373.413,162.95L373.413,162.95z" fill="#022F32"/></g></svg>