<svg width="60" height="60" viewBox="0 0 60 60" fill="none" xmlns="http://www.w3.org/2000/svg">
<path d="M30.0498 3.7998L24.6016 6.89624V9.76086L28.26 9.99682L28.1025 12.464L25.1568 12.5427L22.9692 14.1696L25.1568 15.8378L27.8622 15.8792V17.1501L25.9149 17.2287L25.9937 19.4186L27.8208 19.4973L27.8622 21.0041L23.8061 19.0999L23.4083 23.4299L22.1364 22.8338L22.9692 21.1655L21.1793 20.052L20.0648 21.7989L18.8716 21.0455L20.185 18.7025L20.0648 15.8792L17.3635 16.9514L15.9714 19.3772L13.6637 18.305L15.2546 15.2831L12.7066 13.7722L7.37852 16.8313L7.2998 23.0739L9.80641 24.4648L11.7537 21.5629L13.9827 22.7924L12.429 25.3797L12.7066 28.0414L15.4121 27.0065L16.7669 24.4648L18.1176 25.1768L17.0445 27.0065L19.0332 28.1574L19.9861 26.3318L21.4196 27.1638L17.5997 29.9457L21.4196 32.7275L19.9861 33.5637L19.0332 31.734L17.0445 32.8889L18.1176 34.7559L16.7669 35.4307L15.4121 32.8889L12.7066 31.854L12.429 34.5158L13.9827 37.0989L11.7537 38.3325L9.80641 35.4307L7.2998 36.863L7.37852 43.06L12.7066 46.1233L15.2546 44.6496L13.6637 41.5904L15.9714 40.5183L17.3635 42.9441L20.0648 44.0162L20.185 41.1972L18.8716 38.85L20.0648 38.0924L21.1793 39.8435L22.9692 38.7299L22.1364 37.0617L23.4083 36.4656L23.8061 40.7956L27.8622 38.8873L27.8208 40.4396L25.9937 40.481L25.9149 42.704L27.8622 42.7454V44.0162L25.1568 44.0535L22.9692 45.7259L25.1568 47.3528L28.1025 47.4356L28.26 49.8987L24.6016 50.176V52.9951L30.0498 56.0998L35.498 52.9951V50.176L31.8396 49.8987L31.9971 47.4356L34.9429 47.3528L37.1304 45.7259L34.9429 44.0535L32.196 44.0162V42.7454L34.1474 42.704L34.1059 40.481L32.2788 40.4396L32.196 38.8873L36.2562 40.7956L36.6913 36.4656L37.9632 37.0617L37.1304 38.7299L38.9203 39.8435L39.9933 38.0924L41.228 38.85L39.9146 41.1972L39.9933 44.0162L42.7361 42.9441L44.1282 40.5183L46.4359 41.5904L44.845 44.6496L47.393 46.1233L52.7211 43.06L52.7998 36.863L50.2932 35.4307L48.3459 38.3325L46.1169 37.0989L47.6292 34.5158L47.393 31.854L44.6875 32.8889L43.3327 35.4307L41.9406 34.7559L43.0551 32.8889L41.0664 31.734L40.1135 33.5637L38.68 32.7275L42.5 29.9457L38.68 27.1638L40.1135 26.3318L41.0664 28.1574L43.0551 27.0065L41.9406 25.1768L43.3327 24.4648L44.6875 27.0065L47.393 28.0414L47.6292 25.3797L46.1169 22.7924L48.3459 21.5629L50.2932 24.4648L52.7998 23.0739L52.7211 16.8313L47.393 13.7722L44.845 15.2831L46.4359 18.305L44.1282 19.3772L42.7361 16.9514L39.9933 15.8792L39.9146 18.7025L41.228 21.0455L39.9933 21.7989L38.9203 20.052L37.1304 21.1655L37.9632 22.8338L36.6913 23.4299L36.2562 19.0999L32.196 21.0041L32.2788 19.4973L34.1059 19.4186L34.1474 17.2287L32.196 17.1501V15.8792L34.9429 15.8378L37.1304 14.1696L34.9429 12.5427L31.9971 12.464L31.8396 9.99682L35.498 9.76086V6.89624L30.0498 3.7998Z" fill="white" stroke="#1E1916" stroke-miterlimit="10.433" stroke-linecap="round" stroke-linejoin="round"/>
</svg>
