<?xml version="1.0" encoding="UTF-8" standalone="no"?>
<svg
   width="976"
   height="976"
   viewBox="0 0 976 976"
   fill="none"
   version="1.1"
   id="svg1426"
   sodipodi:docname="PlantHub logo.svg"
   inkscape:version="1.1.1 (3bf5ae0d25, 2021-09-20, custom)"
   xmlns:inkscape="http://www.inkscape.org/namespaces/inkscape"
   xmlns:sodipodi="http://sodipodi.sourceforge.net/DTD/sodipodi-0.dtd"
   xmlns="http://www.w3.org/2000/svg"
   xmlns:svg="http://www.w3.org/2000/svg">
  <defs
     id="defs1430" />
  <sodipodi:namedview
     id="namedview1428"
     pagecolor="#ffb1ff"
     bordercolor="#666666"
     borderopacity="1.0"
     inkscape:pageshadow="2"
     inkscape:pageopacity="0"
     inkscape:pagecheckerboard="0"
     showgrid="false"
     inkscape:zoom="0.62668787"
     inkscape:cx="659.8181"
     inkscape:cy="520.19516"
     inkscape:window-width="1900"
     inkscape:window-height="1025"
     inkscape:window-x="10"
     inkscape:window-y="45"
     inkscape:window-maximized="1"
     inkscape:current-layer="svg1426" />
  <circle
     cx="488"
     cy="488"
     fill="#ffffff"
     id="circle1406"
     r="488" />
  <g
     id="g2195">
    <path
       fill-rule="evenodd"
       clip-rule="evenodd"
       d="M399.677 317.956C406.518 309.793 418.679 308.722 426.841 315.564L486.069 365.215C490.945 369.165 494.885 374.148 497.604 379.806C500.36 385.54 501.791 391.821 501.791 398.184V455.135C501.791 466.267 497.37 476.944 489.5 484.815C481.629 492.687 470.955 497.109 459.824 497.109H237.967C237.064 497.109 236.199 497.468 235.561 498.106C234.923 498.745 234.564 499.61 234.564 500.513V682.025C234.564 682.928 234.923 683.794 235.561 684.432C236.199 685.07 237.064 685.429 237.967 685.429H737.033C737.936 685.429 738.801 685.07 739.439 684.432C740.077 683.794 740.436 682.928 740.436 682.025V500.513C740.436 499.61 740.077 498.745 739.439 498.106C738.801 497.468 737.936 497.109 737.033 497.109H521.527C510.878 497.109 502.245 488.475 502.245 477.824C502.245 467.173 510.878 458.538 521.527 458.538H737.033C748.163 458.538 758.838 462.96 766.708 470.832C774.578 478.704 779 489.38 779 500.513V682.025C779 693.158 774.578 703.834 766.708 711.706C758.838 719.578 748.163 724 737.033 724H237.967C226.837 724 216.162 719.578 208.292 711.706C200.421 703.834 196 693.158 196 682.025V500.513C196 489.38 200.421 478.704 208.292 470.832C216.162 462.96 226.837 458.538 237.967 458.538H459.824C460.727 458.538 461.592 458.179 462.231 457.541C462.869 456.903 463.227 456.037 463.227 455.135V398.187C463.227 398.186 463.227 398.186 463.227 398.185C463.227 397.607 463.097 397.037 462.847 396.516C462.596 395.995 462.232 395.536 461.78 395.175L461.608 395.038L402.069 345.125C393.907 338.284 392.836 326.12 399.677 317.956Z"
       fill="#A7D381"
       id="path1408" />
    <path
       fill-rule="evenodd"
       clip-rule="evenodd"
       d="M599.764 359.863C606.643 367.994 605.629 380.163 597.499 387.043L538.519 436.959C530.389 443.839 518.223 442.825 511.344 434.694C504.465 426.563 505.479 414.394 513.609 407.514L572.589 357.598C580.719 350.718 592.885 351.732 599.764 359.863Z"
       fill="#67BD45"
       id="path1410" />
    <path
       fill-rule="evenodd"
       clip-rule="evenodd"
       d="M565.795 190.898C572.636 199.061 571.565 211.225 563.403 218.067L503.864 267.979L503.692 268.116C503.241 268.478 502.876 268.936 502.626 269.457C502.375 269.978 502.245 270.549 502.245 271.127C502.245 271.127 502.245 271.127 502.245 271.128V328.076C502.245 338.727 493.612 347.362 482.963 347.362C472.314 347.362 463.681 338.727 463.681 328.076V271.125C463.681 264.763 465.112 258.482 467.868 252.748C470.587 247.089 474.528 242.106 479.404 238.156L538.631 188.506C546.793 181.664 558.954 182.735 565.795 190.898Z"
       fill="#67BD45"
       id="path1412" />
    <g
       id="g2043">
      <g
         id="g1788">
        <path
           d="M276.531 601.479C282.795 601.479 287.873 596.4 287.873 590.135C287.873 583.869 282.795 578.79 276.531 578.79C270.267 578.79 265.188 583.869 265.188 590.135C265.188 596.4 270.267 601.479 276.531 601.479Z"
           fill="#A7D381"
           id="path1414" />
        <path
           fill-rule="evenodd"
           clip-rule="evenodd"
           d="M276.531 598.076C280.916 598.076 284.47 594.521 284.47 590.135C284.47 585.749 280.916 582.194 276.531 582.194C272.146 582.194 268.591 585.749 268.591 590.135C268.591 594.521 272.146 598.076 276.531 598.076ZM245.906 590.135C245.906 573.219 259.617 559.505 276.531 559.505C293.444 559.505 307.155 573.219 307.155 590.135C307.155 607.052 293.444 620.765 276.531 620.765C259.617 620.765 245.906 607.052 245.906 590.135Z"
           fill="#A7D381"
           id="path1416" />
      </g>
      <g
         id="g1891">
        <path
           d="M342.317 601.479C348.581 601.479 353.659 596.4 353.659 590.135C353.659 583.869 348.581 578.79 342.317 578.79C336.053 578.79 330.975 583.869 330.975 590.135C330.975 596.4 336.053 601.479 342.317 601.479Z"
           fill="#A7D381"
           id="path1418" />
        <path
           fill-rule="evenodd"
           clip-rule="evenodd"
           d="M342.317 598.076C346.702 598.076 350.257 594.521 350.257 590.135C350.257 585.749 346.702 582.194 342.317 582.194C337.932 582.194 334.377 585.749 334.377 590.135C334.377 594.521 337.932 598.076 342.317 598.076ZM311.692 590.135C311.692 573.219 325.403 559.505 342.317 559.505C359.23 559.505 372.941 573.219 372.941 590.135C372.941 607.052 359.23 620.765 342.317 620.765C325.403 620.765 311.692 607.052 311.692 590.135Z"
           fill="#A7D381"
           id="path1420" />
      </g>
      <g
         id="g2032">
        <path
           d="M408.103 601.479C414.367 601.479 419.446 596.4 419.446 590.135C419.446 583.869 414.367 578.79 408.103 578.79C401.839 578.79 396.761 583.869 396.761 590.135C396.761 596.4 401.839 601.479 408.103 601.479Z"
           fill="#A7D381"
           id="path1422" />
        <path
           fill-rule="evenodd"
           clip-rule="evenodd"
           d="M408.103 598.076C412.488 598.076 416.043 594.521 416.043 590.135C416.043 585.749 412.488 582.194 408.103 582.194C403.718 582.194 400.163 585.749 400.163 590.135C400.163 594.521 403.718 598.076 408.103 598.076ZM377.479 590.135C377.479 573.219 391.19 559.505 408.103 559.505C425.016 559.505 438.728 573.219 438.728 590.135C438.728 607.052 425.016 620.765 408.103 620.765C391.19 620.765 377.479 607.052 377.479 590.135Z"
           fill="#A7D381"
           id="path1424" />
      </g>
    </g>
  </g>
</svg>
