<svg width="70" height="65" viewBox="0 0 70 65" fill="none" xmlns="http://www.w3.org/2000/svg">
<path d="M34.5065 22.1956L34.5064 22.1956L34.513 22.2009C35.041 22.6297 35.4678 23.1708 35.7623 23.7853C36.0608 24.408 36.2159 25.0902 36.216 25.7813V32.6365C36.216 33.8443 35.7374 35.0024 34.8861 35.8561C34.0347 36.7097 32.8804 37.189 31.677 37.189H5.03891C4.79751 37.189 4.56627 37.2852 4.39599 37.4559L4.75001 37.809L4.39598 37.4559C4.22575 37.6266 4.13035 37.8579 4.13035 38.0987V59.9475C4.13035 60.1883 4.22575 60.4196 4.39599 60.5902C4.56627 60.761 4.79751 60.8572 5.03891 60.8572H64.9611C65.2025 60.8572 65.4337 60.761 65.604 60.5902C65.7743 60.4195 65.8697 60.1883 65.8697 59.9475V38.0987C65.8697 37.8579 65.7743 37.6266 65.604 37.4559C65.4337 37.2852 65.2025 37.189 64.9611 37.189H39.0856C38.0844 37.189 37.2704 36.3748 37.2704 35.3676C37.2704 34.3604 38.0844 33.5462 39.0856 33.5462H64.9611C66.1644 33.5462 67.3188 34.0255 68.1701 34.8791C69.0215 35.7327 69.5 36.8909 69.5 38.0987V59.9475C69.5 61.1553 69.0215 62.3134 68.1701 63.1671C67.3188 64.0207 66.1644 64.5 64.9611 64.5H5.03891C3.83555 64.5 2.68121 64.0207 1.82989 63.1671C0.978531 62.3134 0.5 61.1553 0.5 59.9475V38.0987C0.5 36.8909 0.978531 35.7327 1.82989 34.8791C2.68121 34.0255 3.83555 33.5462 5.03891 33.5462H31.677C31.9184 33.5462 32.1497 33.45 32.32 33.2792C32.4902 33.1085 32.5856 32.8773 32.5856 32.6365V25.7816V25.7816V25.7815V25.7815V25.7815V25.7815V25.7814V25.7812C32.5855 25.6369 32.5531 25.4945 32.4908 25.3644L32.0725 25.5649L32.4908 25.3644C32.4283 25.2341 32.3374 25.1195 32.2247 25.0291L31.9118 25.4191L32.2247 25.0291L32.2085 25.0161L25.0641 19.0118C24.2953 18.3657 24.1941 17.2162 24.8388 16.4449C25.4829 15.6744 26.6271 15.5736 27.3951 16.2191L34.5065 22.1956Z" stroke="black" stroke-miterlimit="10" stroke-linecap="round"/>
<path d="M48.0974 21.4921C48.7457 22.2603 48.6499 23.4103 47.8841 24.06L40.8024 30.0685C40.0374 30.7175 38.8928 30.6221 38.2452 29.8546C37.5969 29.0864 37.6927 27.9364 38.4584 27.2867L45.5401 21.2783C46.3051 20.6292 47.4497 20.7246 48.0974 21.4921Z" stroke="black" stroke-miterlimit="10" stroke-linecap="round"/>
<path d="M36.2705 10.4873V10.4875V10.4875V10.4875V10.4875V10.4875V10.4875V10.4875V10.4875V10.4875V10.4876V10.4876V10.4876V10.4876V10.4876V10.4876V10.4876V10.4876V10.4876V10.4876V10.4876V10.4876V10.4876V10.4876V10.4877V17.3425C36.2705 18.3498 35.4565 19.164 34.4553 19.164C33.4541 19.164 32.6401 18.3498 32.6401 17.3425V10.4873C32.6401 10.4873 32.6401 10.4873 32.6401 10.4873C32.6402 9.79623 32.7953 9.11407 33.0938 8.49132C33.3883 7.87683 33.8151 7.33575 34.3432 6.90697L34.3432 6.90702L34.3497 6.9016L41.461 0.925108C42.229 0.279685 43.3732 0.380463 44.0172 1.15096C44.662 1.92226 44.5608 3.07178 43.792 3.71787L36.6476 9.72216L36.6314 9.73513L36.9443 10.1251L36.6314 9.73513C36.5187 9.82557 36.4278 9.94018 36.3653 10.0704C36.3029 10.2006 36.2706 10.343 36.2705 10.4873Z" stroke="black" stroke-miterlimit="10" stroke-linecap="round"/>
<circle cx="10" cy="49" r="4" fill="black"/>
<circle cx="19" cy="49" r="4" fill="black"/>
<circle cx="28" cy="49" r="4" fill="black"/>
</svg>
