<svg width="500" height="500" viewBox="0 0 500 500" fill="none" xmlns="http://www.w3.org/2000/svg">
<path d="M265.297 442.499C150.327 442.499 57.5 352.021 57.5 240.866C57.5 166.545 98.9517 101.515 160.835 66.524C162.176 65.7662 163.547 65.8941 164.796 66.7989C166.12 67.7583 166.994 69.425 166.792 71.3597C164.507 93.3458 162.343 128.991 166.508 166.239C170.655 203.33 181.181 242.993 205.068 272.143C230.832 303.584 272.997 322.94 314.171 335C355.57 347.127 397.186 352.222 423.114 354.356C426.166 354.607 428.494 356.418 429.601 358.666C430.661 360.817 430.549 363.153 428.912 365.179C390.89 412.229 331.766 442.499 265.297 442.499Z" fill="#848B8C" stroke="#848B8C" stroke-width="15"/>
<path d="M111.508 304.616C110.85 307.037 109.46 309.197 107.528 310.799C105.597 312.401 103.218 313.368 100.716 313.567C98.2147 313.767 95.7126 313.189 93.5516 311.914C91.3905 310.638 89.6759 308.726 88.6419 306.44C79.0775 285.418 73.9334 262.656 73.5286 239.565C73.0916 215.471 77.9026 191.571 87.6278 169.523C88.2704 168.057 89.1955 166.732 90.3502 165.623C91.5049 164.515 92.8666 163.644 94.3577 163.062C95.8487 162.48 97.4398 162.197 99.0402 162.23C100.641 162.262 102.219 162.61 103.685 163.252C105.151 163.895 106.476 164.82 107.585 165.975C108.693 167.129 109.563 168.491 110.146 169.982C110.728 171.473 111.011 173.064 110.978 174.665C110.946 176.265 110.598 177.843 109.956 179.31C93.4317 217.015 93.7498 258.589 110.871 296.39C112.033 298.975 112.259 301.883 111.508 304.616V304.616Z" fill="white"/>
</svg>
