<svg width="500" height="500" viewBox="0 0 500 500" fill="none" xmlns="http://www.w3.org/2000/svg">
<path d="M265.297 442.5C150.327 442.5 57.5 352.022 57.5 240.867C57.5 166.547 98.9517 101.516 160.835 66.5255C162.176 65.7677 163.547 65.8955 164.796 66.8003C166.12 67.7597 166.994 69.4265 166.792 71.3612C164.507 93.3472 162.343 128.993 166.508 166.241C170.655 203.332 181.181 242.995 205.068 272.145C230.832 303.585 272.997 322.941 314.171 335.002C355.57 347.128 397.186 352.223 423.114 354.358C426.166 354.609 428.494 356.42 429.601 358.668C430.661 360.819 430.549 363.155 428.912 365.181C390.89 412.23 331.766 442.5 265.297 442.5Z" fill="#67BD45" stroke="#67BD45" stroke-width="15"/>
<path d="M111.508 304.617C110.85 307.039 109.46 309.198 107.528 310.8C105.597 312.402 103.218 313.369 100.716 313.569C98.2147 313.768 95.7126 313.191 93.5516 311.915C91.3905 310.639 89.6759 308.728 88.6419 306.441C79.0775 285.42 73.9334 262.658 73.5286 239.566C73.0916 215.473 77.9026 191.572 87.6278 169.524C88.2704 168.058 89.1955 166.733 90.3502 165.625C91.5049 164.516 92.8666 163.646 94.3577 163.064C95.8487 162.481 97.4398 162.198 99.0402 162.231C100.641 162.264 102.219 162.611 103.685 163.254C105.151 163.896 106.476 164.821 107.585 165.976C108.693 167.131 109.563 168.493 110.146 169.984C110.728 171.475 111.011 173.066 110.978 174.666C110.946 176.267 110.598 177.845 109.956 179.311C93.4317 217.016 93.7498 258.59 110.871 296.392C112.033 298.976 112.259 301.885 111.508 304.617V304.617Z" fill="white"/>
</svg>
