<svg width="500" height="500" viewBox="0 0 500 500" fill="none" xmlns="http://www.w3.org/2000/svg">
<path d="M250 250L124.125 124.125C90.754 157.517 72.0057 202.792 72 250C72 347.641 152.359 427.988 250 427.988C347.641 427.988 427.962 347.641 427.962 250H250Z" fill="#11457E"/>
<path d="M250.001 250H427.963C427.963 347.641 347.617 427.987 249.976 427.987C226.554 427.984 203.363 423.361 181.731 414.382C160.099 405.403 140.451 392.245 123.912 375.661L250.001 250Z" fill="#D7141A"/>
<path d="M250 428C348.307 428 428 348.307 428 250C428 151.693 348.307 72 250 72C151.693 72 72 151.693 72 250C72 348.307 151.693 428 250 428Z" stroke="#48484A" stroke-width="20" stroke-miterlimit="10"/>
</svg>
