<svg width="500" height="500" viewBox="0 0 500 500" fill="none" xmlns="http://www.w3.org/2000/svg">
<path d="M383.818 353.47L332.184 308.784H302.465L370.601 367.945L383.818 353.47Z" fill="#C1CDD0"/>
<path d="M116.648 349.769L164.481 308.784H194.187L116.082 378.708L103.746 362.684" fill="#C1CDD0"/>
<path d="M116.333 149.011L164.153 189.996H193.86L128.669 132.987L116.333 149.011Z" fill="#C1CDD0"/>
<path d="M379.387 148.91L331.555 189.895H301.848L379.941 119.972L392.289 135.996" fill="#C1CDD0"/>
<path d="M270.455 73.1714H229.571V426.818H270.455V73.1714Z" fill="#C1CDD0"/>
<path d="M426.829 213.887H73.1831V284.591H426.829V213.887Z" fill="#C1CDD0"/>
<path d="M215.712 75.3105V179.9L136.725 112.695L215.712 75.3105Z" fill="#848B8C"/>
<path d="M285.057 75.3105V179.9L364.043 112.695L285.057 75.3105Z" fill="#848B8C"/>
<path d="M285.057 424.162V319.572L364.043 386.79L285.057 424.162Z" fill="#848B8C"/>
<path d="M215.712 424.162V319.572L136.725 386.79L215.712 424.162Z" fill="#848B8C"/>
<path d="M135.29 191.091H82.4351L97.5149 158.137L135.29 191.091Z" fill="#848B8C"/>
<path d="M365.176 190.474H418.031L402.951 157.52L365.176 190.474Z" fill="#848B8C"/>
<path d="M364.836 309.351H417.691L402.624 342.318L364.836 309.351Z" fill="#848B8C"/>
<path d="M135.29 309.351H82.4351L97.5149 342.318L135.29 309.351Z" fill="#848B8C"/>
<path d="M250 428C348.307 428 428 348.307 428 250C428 151.693 348.307 72 250 72C151.693 72 72 151.693 72 250C72 348.307 151.693 428 250 428Z" stroke="#48484A" stroke-width="20" stroke-miterlimit="10"/>
</svg>
