<svg width="500" height="500" viewBox="0 0 500 500" fill="none" xmlns="http://www.w3.org/2000/svg">
  <path d="M241.797 1.85547C240.332 2.83203 238.184 4.98047 237.207 6.44531C235.449 9.08203 235.352 11.6211 235.352 44.4336C235.352 77.2461 235.449 79.7852 237.207 82.4219C240.234 86.9141 243.945 88.8672 250 88.8672C256.055 88.8672 259.766 86.9141 262.793 82.4219C264.551 79.7852 264.648 77.2461 264.648 44.4336C264.648 11.6211 264.551 9.08203 262.793 6.44531C259.766 1.95312 256.055 0 250 0C246.387 0 243.75 0.585938 241.797 1.85547Z" fill="#FFCD00" />
  <path d="M77.2462 71.094C75.3907 71.9729 73.0469 73.926 71.9727 75.3909C69.2383 79.1018 68.6524 86.719 70.8008 90.9182C72.9493 95.2151 111.426 134.082 117.09 137.793C124.219 142.383 133.301 141.016 137.988 134.571C140.723 130.86 141.309 123.242 139.16 119.043C137.012 114.746 98.5352 75.8791 92.8712 72.1682C87.6954 68.8479 82.3243 68.4573 77.2462 71.094Z" fill="#FFCD00" />
  <path d="M407.129 72.1682C401.465 75.8791 362.988 114.746 360.84 119.043C358.691 123.242 359.277 130.86 362.012 134.571C366.699 141.016 375.781 142.383 382.91 137.793C388.574 134.082 427.051 95.2151 429.199 90.9182C431.348 86.719 430.762 79.1018 428.027 75.3909C423.34 68.9455 414.258 67.5784 407.129 72.1682Z" fill="#FFCD00" />
  <path d="M224.707 120.215C177.539 129.004 139.258 162.305 124.512 207.422C119.531 222.656 117.871 235.84 118.457 254.395C119.531 288.77 130.078 314.551 154.102 341.113C169.141 357.812 174.023 368.75 175.781 389.648C176.953 403.223 178.32 407.227 183.106 410.156C186.133 412.012 188.184 412.109 250 412.109C311.816 412.109 313.867 412.012 316.895 410.156C321.582 407.227 323.047 403.223 324.121 390.625C325.781 370.996 331.25 358.105 343.652 344.043C364.941 320.117 375.586 299.023 380.371 271.582C382.422 259.961 382.227 238.965 379.981 226.465C370.02 171.387 326.66 128.418 272.07 119.629C259.082 117.578 237.598 117.871 224.707 120.215ZM257.227 179.59C265.82 185.254 265.918 197.852 257.227 203.125C255.469 204.297 250.879 205.371 245.606 205.957C227.344 208.105 213.379 218.75 208.008 234.863C206.836 238.281 204.688 242.187 203.027 243.945C194.727 252.441 179.688 246.582 179.688 234.766C179.688 226.074 187.109 210.937 196.387 200.684C209.375 186.621 228.32 177.93 246.582 177.832C252.637 177.734 254.981 178.125 257.227 179.59Z" fill="#FFCD00" />
  <path d="M6.44531 237.207C1.95312 240.234 0 243.945 0 250C0 256.055 1.95312 259.766 6.44531 262.793C9.08203 264.551 11.6211 264.648 44.4336 264.648C77.2461 264.648 79.7852 264.551 82.4219 262.793C86.9141 259.766 88.8672 256.055 88.8672 250C88.8672 243.945 86.9141 240.234 82.4219 237.207C79.7852 235.449 77.2461 235.352 44.4336 235.352C11.6211 235.352 9.08203 235.449 6.44531 237.207Z" fill="#FFCD00" />
  <path d="M417.578 237.207C413.086 240.234 411.133 243.945 411.133 250C411.133 256.055 413.086 259.766 417.578 262.793C420.215 264.551 422.754 264.648 455.566 264.648C488.379 264.648 490.918 264.551 493.555 262.793C498.047 259.766 500 256.055 500 250C500 243.945 498.047 240.234 493.555 237.207C490.918 235.449 488.379 235.352 455.566 235.352C422.754 235.352 420.215 235.449 417.578 237.207Z" fill="#FFCD00" />
  <path d="M191.406 452.93C191.406 461.914 191.797 465.82 193.262 470.02C197.852 483.398 208.008 493.555 221.484 498.145C226.172 499.805 229.785 500 250 500C270.41 500 273.828 499.805 278.613 498.145C291.992 493.555 302.148 483.398 306.738 469.922C308.203 465.82 308.594 461.816 308.594 452.93V441.406H250H191.406V452.93Z" fill="#FFCD00" />
</svg>