<svg width="500" height="500" viewBox="0 0 500 500" fill="none" xmlns="http://www.w3.org/2000/svg">
<rect width="500" height="500" fill="white"/>
<circle cx="250" cy="250" r="96.8478" fill="#67BD45" stroke="#67BD45" stroke-width="15"/>
<rect x="241.304" y="50" width="17.3913" height="60.8696" rx="8.69565" fill="#A7D381"/>
<rect x="450" y="241.304" width="17.3913" height="60.8696" rx="8.69565" transform="rotate(90 450 241.304)" fill="#A7D381"/>
<rect x="388.4" y="105.647" width="17.3913" height="60.8696" rx="8.69565" transform="rotate(45 388.4 105.647)" fill="#A7D381"/>
<rect x="404.976" y="376.287" width="17.3913" height="60.8696" rx="8.69565" transform="rotate(130 404.976 376.287)" fill="#A7D381"/>
<rect x="241.304" y="389.13" width="17.3913" height="60.8696" rx="8.69565" fill="#A7D381"/>
<rect x="110.87" y="241.304" width="17.3913" height="60.8696" rx="8.69565" transform="rotate(90 110.87 241.304)" fill="#A7D381"/>
<rect x="142.34" y="339.016" width="17.3913" height="60.8696" rx="8.69565" transform="rotate(45 142.34 339.016)" fill="#A7D381"/>
<rect x="152.819" y="149.524" width="17.3913" height="60.8696" rx="8.69565" transform="rotate(130 152.819 149.524)" fill="#A7D381"/>
<path d="M186.075 259C183.224 259.002 180.484 257.903 178.429 255.934C176.373 253.964 175.162 251.277 175.05 248.437C174.315 230.375 181.665 211.543 194.688 198.062C205.925 186.421 220.176 180 234.816 180H238.976C241.9 180 244.704 181.158 246.771 183.221C248.839 185.283 250 188.079 250 190.996C250 193.912 248.839 196.709 246.771 198.771C244.704 200.833 241.9 201.991 238.976 201.991H234.816C226.225 201.991 217.626 206.008 210.563 213.295C201.744 222.414 196.599 235.55 197.069 247.572C197.183 250.485 196.131 253.324 194.147 255.464C192.162 257.604 189.407 258.871 186.486 258.985L186.075 259Z" fill="white"/>
</svg>
