<svg width="1000" height="1000" viewBox="0 0 1000 1000" fill="none" xmlns="http://www.w3.org/2000/svg">
  <path d="M732.613 544.191C786.233 701.611 671.933 867.191 505.613 869.981C504.153 869.981 502.683 869.981 501.223 869.981C499.763 869.981 498.283 869.981 496.823 869.981C331.233 867.251 216.113 703.571 267.253 546.061C307.513 422.061 415.313 236.151 469.373 146.721C483.773 122.901 518.373 123.051 532.573 146.991C585.403 236.041 690.373 420.141 732.613 544.191Z" fill="#78CEFF" />
  <path d="M501.263 885.011C499.713 885.011 498.163 885.011 496.613 885.011C413.453 883.641 337.883 843.841 289.293 775.801C265.949 743.078 250.328 705.49 243.603 665.861C236.602 624.247 239.835 581.555 253.023 541.471C293.143 417.891 397.783 236.261 456.583 139.001C461.166 131.342 467.665 125.009 475.44 120.625C483.215 116.241 491.998 113.958 500.923 114.001H501.153C510.116 113.99 518.926 116.324 526.707 120.771C534.489 125.218 540.972 131.623 545.513 139.351C602.633 235.711 704.743 415.811 746.813 539.351C760.634 579.438 764.411 622.304 757.813 664.191C751.501 704.047 736.16 741.932 712.963 774.951C690.094 807.476 660.116 834.363 625.303 853.571C588.671 873.684 547.65 884.469 505.863 884.971C504.363 885.001 502.813 885.011 501.263 885.011ZM500.923 143.941C497.158 143.897 493.449 144.849 490.171 146.7C486.892 148.551 484.161 151.235 482.253 154.481C424.123 250.641 320.753 429.981 281.553 550.691C258.493 621.691 270.213 697.421 313.713 758.331C356.713 818.541 423.563 853.771 497.113 854.981C499.873 854.981 502.643 854.981 505.403 854.981C579.103 853.761 645.823 818.301 688.463 757.691C731.723 696.201 742.633 620.141 718.463 549.021C677.263 428.021 576.283 250.021 519.763 154.641C517.872 151.364 515.145 148.648 511.862 146.768C508.579 144.889 504.856 143.913 501.073 143.941H500.923Z" fill="#48484A" />
  <path d="M307.672 645.421C306.845 645.419 306.019 645.352 305.202 645.221C303.258 644.899 301.397 644.198 299.724 643.157C298.052 642.116 296.601 640.756 295.454 639.154C294.307 637.552 293.487 635.74 293.041 633.821C292.594 631.903 292.53 629.915 292.852 627.971C305.442 551.851 335.732 477.181 408.602 342.601C410.497 339.103 413.704 336.501 417.518 335.367C421.331 334.233 425.439 334.661 428.937 336.556C432.435 338.451 435.037 341.658 436.171 345.472C437.305 349.285 436.877 353.393 434.982 356.891C363.882 488.201 334.432 560.411 322.452 632.891C321.868 636.39 320.063 639.569 317.357 641.863C314.651 644.157 311.219 645.417 307.672 645.421Z" fill="white" />
  <path d="M453.913 296.351C451.331 296.346 448.793 295.675 446.546 294.402C444.299 293.129 442.419 291.298 441.087 289.085C439.756 286.873 439.018 284.354 438.945 281.772C438.873 279.191 439.468 276.635 440.673 274.351L470.123 217.901C471.034 216.154 472.281 214.604 473.791 213.339C475.302 212.074 477.046 211.119 478.926 210.529C480.805 209.938 482.783 209.724 484.745 209.897C486.707 210.071 488.616 210.629 490.363 211.541C492.109 212.452 493.66 213.698 494.924 215.209C496.189 216.719 497.144 218.464 497.735 220.343C498.325 222.223 498.54 224.2 498.366 226.163C498.193 228.125 497.634 230.034 496.723 231.781L467.263 288.231C465.999 290.68 464.084 292.734 461.729 294.166C459.374 295.599 456.669 296.354 453.913 296.351Z" fill="white" />
  <path d="M551.953 826.351C548.455 826.336 545.073 825.099 542.391 822.855C539.708 820.61 537.895 817.498 537.264 814.058C536.633 810.618 537.224 807.065 538.934 804.015C540.645 800.964 543.368 798.607 546.633 797.351C620.163 769.351 673.263 688.161 670.143 608.351C670.066 606.381 670.378 604.416 671.061 602.567C671.744 600.717 672.784 599.021 674.122 597.573C676.826 594.651 680.58 592.921 684.558 592.766C688.536 592.611 692.413 594.043 695.336 596.746C698.258 599.449 699.988 603.203 700.143 607.181C701.933 653.041 687.943 700.521 660.753 740.891C634.403 780.021 597.673 809.991 557.273 825.351C555.574 826.003 553.772 826.342 551.953 826.351Z" fill="#48484A" />
</svg>