<svg width="1000" height="1000" viewBox="0 0 1000 1000" fill="none" xmlns="http://www.w3.org/2000/svg">
<path d="M477.48 886.34L851.13 885.12C864.166 885.075 876.653 879.866 885.856 870.633C895.059 861.4 900.227 848.896 900.23 835.86V779.26C900.227 766.196 895.037 753.668 885.799 744.431C876.562 735.193 864.034 730.003 850.97 730H751.78C738.715 730 726.186 724.81 716.948 715.572C707.71 706.334 702.52 693.805 702.52 680.74V624.26C702.523 611.196 707.713 598.668 716.951 589.431C726.188 580.193 738.716 575.003 751.78 575H851.02C864.085 575 876.614 569.81 885.852 560.572C895.09 551.334 900.28 538.805 900.28 525.74V469.26C900.277 456.196 895.087 443.668 885.849 434.431C876.612 425.193 864.084 420.003 851.02 420H800.78C794.311 420.001 787.905 418.728 781.927 416.253C775.95 413.778 770.52 410.149 765.945 405.575C761.371 401.001 757.742 395.57 755.267 389.593C752.792 383.615 751.519 377.209 751.52 370.74V314.26C751.517 301.196 746.327 288.668 737.089 279.431C727.852 270.193 715.324 265.003 702.26 265H544.78C538.311 265.001 531.905 263.728 525.927 261.253C519.95 258.778 514.519 255.149 509.945 250.575C505.371 246.001 501.742 240.57 499.267 234.593C496.792 228.615 495.519 222.209 495.52 215.74V159.26C495.517 146.195 490.325 133.665 481.086 124.427C471.846 115.19 459.315 110 446.25 110H216.71C203.646 110.003 191.118 115.193 181.881 124.431C172.643 133.668 167.453 146.196 167.45 159.26V215.74C167.45 228.805 172.64 241.334 181.878 250.572C191.116 259.81 203.645 265 216.71 265H274.71C287.774 265.003 300.302 270.193 309.539 279.431C318.777 288.668 323.967 301.196 323.97 314.26V370.74C323.97 383.805 318.78 396.334 309.542 405.572C300.304 414.81 287.775 420 274.71 420H149.26C136.196 420.003 123.668 425.193 114.431 434.431C105.193 443.668 100.003 456.196 100 469.26V525.74C100 538.805 105.19 551.334 114.428 560.572C123.666 569.81 136.195 575 149.26 575H281.84C294.904 575.003 307.432 580.193 316.669 589.431C325.907 598.668 331.097 611.196 331.1 624.26V681.51C331.098 694.441 336.181 706.853 345.251 716.069C354.321 725.285 366.651 730.565 379.58 730.77V730.77C392.51 730.972 404.841 736.252 413.912 745.468C422.982 754.685 428.064 767.099 428.06 780.03V837.11C428.067 843.589 429.351 850.003 431.839 855.986C434.327 861.968 437.971 867.401 442.561 871.974C447.151 876.546 452.598 880.169 458.59 882.634C464.582 885.099 471.001 886.358 477.48 886.34Z" fill="#C1CDD0"/>
<path d="M477.32 901.34C460.276 901.337 443.932 894.565 431.881 882.512C419.83 870.46 413.06 854.114 413.06 837.07V780.03C413.023 771.048 409.475 762.437 403.174 756.036C396.874 749.634 388.32 745.95 379.34 745.77C362.475 745.502 346.391 738.614 334.559 726.592C322.728 714.57 316.098 698.378 316.1 681.51V624.26C316.089 615.177 312.477 606.469 306.054 600.046C299.631 593.624 290.923 590.011 281.84 590H149.26C132.223 589.981 115.889 583.205 103.842 571.158C91.7947 559.111 85.0185 542.777 85 525.74V469.26C85.0212 452.224 91.7982 435.891 103.845 423.845C115.891 411.798 132.224 405.021 149.26 405H274.66C283.743 404.989 292.451 401.376 298.874 394.954C305.297 388.531 308.909 379.823 308.92 370.74V314.26C308.909 305.177 305.297 296.469 298.874 290.046C292.451 283.624 283.743 280.011 274.66 280H216.66C199.623 279.981 183.289 273.205 171.242 261.158C159.195 249.111 152.419 232.777 152.4 215.74V159.26C152.421 142.224 159.198 125.891 171.245 113.845C183.291 101.798 199.624 95.0212 216.66 95H446.25C463.288 95.0185 479.623 101.794 491.672 113.841C503.72 125.888 510.499 142.222 510.52 159.26V215.74C510.528 224.824 514.14 233.533 520.563 239.957C526.987 246.38 535.696 249.992 544.78 250H702.27C719.306 250.021 735.639 256.798 747.685 268.845C759.732 280.891 766.509 297.224 766.53 314.26V370.74C766.541 379.821 770.152 388.528 776.573 394.95C782.993 401.373 791.699 404.987 800.78 405H850.96C867.996 405.021 884.329 411.798 896.375 423.845C908.422 435.891 915.199 452.224 915.22 469.26V525.74C915.201 542.777 908.425 559.111 896.378 571.158C884.331 583.205 867.997 589.981 850.96 590H751.78C742.697 590.011 733.989 593.624 727.566 600.046C721.144 606.469 717.531 615.177 717.52 624.26V680.74C717.531 689.823 721.144 698.531 727.566 704.954C733.989 711.376 742.697 714.989 751.78 715H851.02C868.056 715.021 884.389 721.798 896.435 733.845C908.482 745.891 915.259 762.224 915.28 779.26V835.9C915.249 852.888 908.504 869.175 896.516 881.212C884.528 893.249 868.268 900.06 851.28 900.16L477.53 901.34H477.32ZM477.44 871.34L477.49 886.34L477.44 871.34L851.08 870.12C860.142 870.075 868.819 866.448 875.217 860.029C881.615 853.611 885.214 844.922 885.23 835.86V779.26C885.219 770.177 881.607 761.469 875.184 755.046C868.761 748.624 860.053 745.011 850.97 745H751.78C734.743 744.981 718.409 738.205 706.362 726.158C694.315 714.111 687.539 697.777 687.52 680.74V624.26C687.541 607.224 694.318 590.891 706.365 578.845C718.411 566.798 734.744 560.021 751.78 560H851.02C860.103 559.989 868.811 556.376 875.234 549.954C881.656 543.531 885.269 534.823 885.28 525.74V469.26C885.269 460.177 881.656 451.469 875.234 445.046C868.811 438.624 860.103 435.011 851.02 435H800.78C783.742 434.984 767.407 428.209 755.359 416.161C743.311 404.113 736.536 387.778 736.52 370.74V314.26C736.509 305.177 732.896 296.469 726.474 290.046C720.051 283.624 711.343 280.011 702.26 280H544.78C527.742 279.984 511.407 273.209 499.359 261.161C487.311 249.113 480.536 232.778 480.52 215.74V159.26C480.509 150.175 476.895 141.466 470.47 135.043C464.045 128.62 455.335 125.008 446.25 125H216.71C207.627 125.011 198.919 128.624 192.496 135.046C186.073 141.469 182.461 150.177 182.45 159.26V215.74C182.461 224.823 186.073 233.531 192.496 239.954C198.919 246.376 207.627 249.989 216.71 250H274.71C291.746 250.021 308.079 256.798 320.125 268.845C332.172 280.891 338.949 297.224 338.97 314.26V370.74C338.951 387.777 332.175 404.111 320.128 416.158C308.081 428.205 291.747 434.981 274.71 435H149.26C140.177 435.011 131.469 438.624 125.046 445.046C118.624 451.469 115.011 460.177 115 469.26V525.74C115.011 534.823 118.624 543.531 125.046 549.954C131.469 556.376 140.177 559.989 149.26 560H281.84C298.876 560.021 315.209 566.798 327.255 578.845C339.302 590.891 346.079 607.224 346.1 624.26V681.51C346.137 690.485 349.679 699.09 355.971 705.491C362.263 711.891 370.807 715.58 379.78 715.77C396.645 716.038 412.729 722.926 424.561 734.948C436.392 746.97 443.022 763.162 443.02 780.03V837.11C443.033 846.196 446.653 854.906 453.085 861.324C459.517 867.743 468.234 871.345 477.32 871.34H477.44Z" fill="#48484A"/>
<path d="M844.589 110H624.779C616.911 110.003 609.366 113.129 603.802 118.693C598.239 124.257 595.112 131.802 595.109 139.67V162.59C595.109 189.79 617.169 211.85 644.379 210.85H847.969C875.169 211.85 897.229 189.79 897.229 162.59C897.229 155.68 895.867 148.837 893.221 142.453C890.575 136.069 886.697 130.27 881.808 125.386C876.92 120.501 871.116 116.629 864.73 113.989C858.344 111.349 851.5 109.993 844.589 110V110Z" fill="#C1CDD0"/>
<path d="M642.519 225.88C626.464 225.905 611.035 219.658 599.519 208.47C593.381 202.508 588.501 195.377 585.167 187.496C581.833 179.616 580.113 171.147 580.109 162.59V139.67C580.123 127.827 584.833 116.473 593.208 108.098C601.582 99.7238 612.936 95.0132 624.779 95H844.639C862.559 95.0212 879.738 102.149 892.409 114.82C905.08 127.491 912.208 144.671 912.229 162.59C912.22 171.149 910.494 179.62 907.153 187.501C903.812 195.381 898.925 202.512 892.779 208.47C886.82 214.259 879.752 218.782 872 221.769C864.248 224.756 855.972 226.144 847.669 225.85H644.579C643.889 225.87 643.209 225.88 642.519 225.88ZM624.779 125C620.89 125.005 617.162 126.553 614.412 129.303C611.662 132.053 610.115 135.781 610.109 139.67V162.59C610.08 167.119 610.971 171.607 612.73 175.781C614.489 179.955 617.077 183.728 620.339 186.87C623.439 189.883 627.119 192.234 631.155 193.781C635.191 195.328 639.5 196.039 643.819 195.87H848.519C852.839 196.043 857.149 195.334 861.186 193.787C865.223 192.24 868.902 189.886 871.999 186.87C875.263 183.729 877.853 179.957 879.612 175.782C881.371 171.608 882.261 167.12 882.229 162.59C882.219 152.624 878.255 143.069 871.208 136.022C864.161 128.974 854.606 125.011 844.639 125H624.779Z" fill="#48484A"/>
<path d="M297.571 787.11H178.401C151.201 785.11 129.141 807.17 129.141 834.38V841.7C129.143 854.764 134.334 867.292 143.571 876.53C152.809 885.767 165.337 890.958 178.401 890.96H315.241C319.392 890.96 323.502 890.142 327.337 888.553C331.171 886.963 334.655 884.634 337.589 881.697C340.523 878.761 342.849 875.275 344.435 871.439C346.02 867.603 346.835 863.491 346.831 859.34V834.34C346.831 807.17 324.781 785.11 297.571 787.11Z" fill="#C1CDD0"/>
<path d="M315.241 905.96H178.401C161.364 905.939 145.032 899.162 132.985 887.115C120.939 875.069 114.162 858.736 114.141 841.7V834.34C114.124 825.665 115.89 817.08 119.331 809.117C122.771 801.154 127.812 793.983 134.141 788.05C140.11 782.448 147.17 778.136 154.879 775.383C162.589 772.63 170.783 771.495 178.951 772.05H297.051C305.217 771.496 313.41 772.63 321.118 775.383C328.826 778.136 335.883 782.448 341.851 788.05C348.181 793.982 353.223 801.152 356.663 809.116C360.104 817.079 361.87 825.665 361.851 834.34V859.34C361.845 871.701 356.933 883.554 348.194 892.296C339.454 901.037 327.602 905.952 315.241 905.96V905.96ZM175.011 801.96C167.408 801.943 160.086 804.83 154.541 810.03C151.234 813.154 148.605 816.923 146.816 821.105C145.027 825.287 144.117 829.792 144.141 834.34V841.66C144.151 850.743 147.764 859.451 154.187 865.874C160.61 872.296 169.318 875.909 178.401 875.92H315.241C319.637 875.915 323.852 874.166 326.962 871.059C330.072 867.951 331.823 863.737 331.831 859.34V834.34C331.856 829.79 330.946 825.283 329.157 821.1C327.368 816.916 324.738 813.145 321.431 810.02C318.401 807.179 314.812 805 310.893 803.623C306.975 802.245 302.812 801.699 298.671 802.02H297.571H177.851H177.301C176.541 802.02 175.781 801.99 175.011 801.99V801.96Z" fill="#48484A"/>
<path d="M543.469 650.34H435.779C431.801 650.34 427.986 648.76 425.173 645.946C422.36 643.133 420.779 639.318 420.779 635.34C420.779 631.362 422.36 627.546 425.173 624.733C427.986 621.92 431.801 620.34 435.779 620.34H543.469C547.448 620.34 551.263 621.92 554.076 624.733C556.889 627.546 558.469 631.362 558.469 635.34C558.469 639.318 556.889 643.133 554.076 645.946C551.263 648.76 547.448 650.34 543.469 650.34Z" fill="#48484A"/>
<path d="M553.09 499.221H380.51C376.532 499.221 372.716 497.64 369.903 494.827C367.09 492.014 365.51 488.199 365.51 484.221C365.51 480.242 367.09 476.427 369.903 473.614C372.716 470.801 376.532 469.221 380.51 469.221H553.09C557.068 469.221 560.883 470.801 563.696 473.614C566.509 476.427 568.09 480.242 568.09 484.221C568.09 488.199 566.509 492.014 563.696 494.827C560.883 497.64 557.068 499.221 553.09 499.221Z" fill="white"/>
<path d="M298.03 536.95H157.09C153.112 536.95 149.296 535.37 146.483 532.557C143.67 529.744 142.09 525.928 142.09 521.95C142.09 517.972 143.67 514.157 146.483 511.344C149.296 508.531 153.112 506.95 157.09 506.95H298.03C302.008 506.95 305.823 508.531 308.636 511.344C311.45 514.157 313.03 517.972 313.03 521.95C313.03 525.928 311.45 529.744 308.636 532.557C305.823 535.37 302.008 536.95 298.03 536.95Z" fill="#48484A"/>
<path d="M336.46 175.44H219.18C215.201 175.44 211.386 173.86 208.573 171.047C205.76 168.234 204.18 164.419 204.18 160.44C204.18 156.462 205.76 152.647 208.573 149.834C211.386 147.021 215.201 145.44 219.18 145.44H336.46C340.438 145.44 344.253 147.021 347.066 149.834C349.879 152.647 351.46 156.462 351.46 160.44C351.46 164.419 349.879 168.234 347.066 171.047C344.253 173.86 340.438 175.44 336.46 175.44V175.44Z" fill="white"/>
<path d="M831.78 845.01H692.43C688.451 845.01 684.636 843.429 681.823 840.616C679.01 837.803 677.43 833.988 677.43 830.01C677.43 826.032 679.01 822.216 681.823 819.403C684.636 816.59 688.451 815.01 692.43 815.01H831.78C835.758 815.01 839.573 816.59 842.386 819.403C845.199 822.216 846.78 826.032 846.78 830.01C846.78 833.988 845.199 837.803 842.386 840.616C839.573 843.429 835.758 845.01 831.78 845.01V845.01Z" fill="#48484A"/>
<path d="M821.96 536.95H618.51C614.532 536.95 610.716 535.37 607.903 532.557C605.09 529.744 603.51 525.928 603.51 521.95C603.51 517.972 605.09 514.157 607.903 511.344C610.716 508.531 614.532 506.95 618.51 506.95H821.96C825.938 506.95 829.753 508.531 832.566 511.344C835.379 514.157 836.96 517.972 836.96 521.95C836.96 525.928 835.379 529.744 832.566 532.557C829.753 535.37 825.938 536.95 821.96 536.95Z" fill="#48484A"/>
<path d="M451.78 338.73H399.85C395.871 338.73 392.056 337.15 389.243 334.337C386.43 331.524 384.85 327.709 384.85 323.73C384.85 319.752 386.43 315.937 389.243 313.124C392.056 310.311 395.871 308.73 399.85 308.73H451.78C455.758 308.73 459.573 310.311 462.386 313.124C465.199 315.937 466.78 319.752 466.78 323.73C466.78 327.709 465.199 331.524 462.386 334.337C459.573 337.15 455.758 338.73 451.78 338.73Z" fill="white"/>
<path d="M578.15 772.641H526.15C522.172 772.641 518.357 771.06 515.544 768.247C512.731 765.434 511.15 761.619 511.15 757.641C511.15 753.662 512.731 749.847 515.544 747.034C518.357 744.221 522.172 742.641 526.15 742.641H578.15C582.129 742.641 585.944 744.221 588.757 747.034C591.57 749.847 593.15 753.662 593.15 757.641C593.15 761.619 591.57 765.434 588.757 768.247C585.944 771.06 582.129 772.641 578.15 772.641Z" fill="white"/>
<path d="M681.989 396.931H530.119C526.141 396.931 522.326 395.35 519.513 392.537C516.699 389.724 515.119 385.909 515.119 381.931C515.119 377.952 516.699 374.137 519.513 371.324C522.326 368.511 526.141 366.931 530.119 366.931H681.989C685.967 366.931 689.783 368.511 692.596 371.324C695.409 374.137 696.989 377.952 696.989 381.931C696.989 385.909 695.409 389.724 692.596 392.537C689.783 395.35 685.967 396.931 681.989 396.931Z" fill="#48484A"/>
<path d="M237.34 845.01H185.4C181.422 845.01 177.607 843.429 174.794 840.616C171.981 837.803 170.4 833.988 170.4 830.01C170.4 826.032 171.981 822.216 174.794 819.403C177.607 816.59 181.422 815.01 185.4 815.01H237.34C241.319 815.01 245.134 816.59 247.947 819.403C250.76 822.216 252.34 826.032 252.34 830.01C252.34 833.988 250.76 837.803 247.947 840.616C245.134 843.429 241.319 845.01 237.34 845.01V845.01Z" fill="white"/>
<path d="M848.25 186.07H800.25C796.272 186.07 792.456 184.49 789.643 181.677C786.83 178.864 785.25 175.049 785.25 171.07C785.25 167.092 786.83 163.277 789.643 160.464C792.456 157.651 796.272 156.07 800.25 156.07H848.25C852.228 156.07 856.044 157.651 858.857 160.464C861.67 163.277 863.25 167.092 863.25 171.07C863.25 175.049 861.67 178.864 858.857 181.677C856.044 184.49 852.228 186.07 848.25 186.07V186.07Z" fill="#48484A"/>
</svg>
