<svg width="1000" height="1000" viewBox="0 0 1000 1000" fill="none" xmlns="http://www.w3.org/2000/svg">
<path d="M735.272 405.558C719.032 389.068 691.362 365.318 651.372 349.948C580.912 322.878 517.052 339.068 472.832 350.948C345.122 385.198 265.642 468.318 237.702 498.268C149.462 592.878 112.302 698.958 95.9916 771.158C94.6042 777.335 94.6736 783.75 96.1942 789.895C97.7149 796.041 100.645 801.748 104.753 806.565C108.861 811.382 114.033 815.176 119.861 817.649C125.69 820.121 132.013 821.202 138.332 820.808C258.252 813.358 541.722 783.068 670.882 660.218C703.622 629.078 761.942 573.608 761.612 495.338C761.452 456.188 746.682 424.758 735.272 405.558Z" fill="#4BB21B" stroke="#48484A" stroke-width="30" stroke-miterlimit="10" stroke-linecap="round"/>
<path d="M314.782 641.658C399.902 564.818 543.952 458.428 746.022 408.308C798.377 395.333 851.738 386.819 905.532 382.858" stroke="#48484A" stroke-width="30" stroke-miterlimit="10" stroke-linecap="round"/>
<path d="M363.841 457.728C294.183 503.523 238.798 567.974 204.001 643.728" stroke="white" stroke-width="30" stroke-miterlimit="10" stroke-linecap="round"/>
<path d="M708.592 502.258C703.313 524.476 694.666 545.755 682.952 565.358C649.312 621.498 599.512 647.738 576.492 658.018" stroke="#48484A" stroke-width="30" stroke-miterlimit="10" stroke-linecap="round"/>
<path d="M563.162 383.348C545.981 400.484 522.697 410.092 498.432 410.061C474.166 410.029 450.907 400.359 433.772 383.178C416.636 365.997 407.027 342.713 407.059 318.448C407.091 294.182 416.761 270.924 433.942 253.788V253.788C456.312 231.478 528.692 209.458 579.782 196.088C585.423 194.613 591.351 194.637 596.98 196.158C602.609 197.679 607.743 200.643 611.873 204.759C616.004 208.874 618.987 213.997 620.529 219.62C622.07 225.243 622.116 231.172 620.662 236.818C607.442 288.158 585.592 360.998 563.162 383.348Z" fill="#78CEFF"/>
<path d="M498.591 425.008C477.519 425.017 456.918 418.772 439.398 407.064C421.878 395.356 408.227 378.712 400.174 359.239C392.121 339.766 390.029 318.342 394.162 297.679C398.295 277.016 408.468 258.045 423.391 243.168C442.921 223.688 494.271 202.968 576.031 181.578C584.202 179.441 592.789 179.475 600.942 181.678C609.096 183.882 616.532 188.177 622.514 194.139C628.496 200.1 632.816 207.522 635.047 215.667C637.277 223.813 637.341 232.4 635.231 240.578C614.031 322.848 593.361 374.468 573.791 393.988C563.91 403.846 552.182 411.66 539.279 416.983C526.376 422.305 512.55 425.032 498.591 425.008V425.008ZM588.491 209.948C586.847 209.948 585.209 210.167 583.621 210.598C510.311 229.778 459.621 249.398 444.621 264.408C430.624 278.805 422.849 298.13 422.975 318.21C423.102 338.29 431.119 357.515 445.297 371.735C459.475 385.955 478.676 394.029 498.756 394.215C518.835 394.401 538.183 386.683 552.621 372.728C567.621 357.728 587.201 306.808 606.201 233.068C607.032 229.955 607.019 226.677 606.165 223.57C605.311 220.463 603.646 217.639 601.341 215.388C597.939 211.957 593.323 210.003 588.491 209.948V209.948Z" fill="#49494B"/>
<path d="M452.822 339.498C448.883 339.498 445.102 337.949 442.296 335.186C439.489 332.422 437.882 328.666 437.822 324.728C437.332 292.008 461.752 264.058 504.822 248.048C506.668 247.36 508.632 247.042 510.601 247.113C512.57 247.184 514.506 247.642 516.298 248.461C518.091 249.28 519.704 250.444 521.046 251.886C522.389 253.329 523.434 255.021 524.122 256.868C524.81 258.714 525.128 260.678 525.057 262.647C524.986 264.616 524.528 266.552 523.709 268.344C522.89 270.137 521.726 271.75 520.283 273.092C518.841 274.435 517.148 275.48 515.302 276.168C484.852 287.478 467.552 305.018 467.842 324.268C467.872 326.238 467.514 328.194 466.788 330.026C466.063 331.857 464.983 333.528 463.611 334.942C462.24 336.357 460.603 337.487 458.795 338.268C456.986 339.05 455.042 339.468 453.072 339.498H452.822Z" fill="white"/>
</svg>
