<svg width="1000" height="1000" viewBox="0 0 1000 1000" fill="none" xmlns="http://www.w3.org/2000/svg">
<path d="M499.675 112.95C479.696 112.953 460.535 120.892 446.408 135.02C432.282 149.149 424.345 168.311 424.345 188.29V592.64C424.329 596.816 423.307 600.926 421.366 604.623C419.425 608.32 416.623 611.495 413.195 613.88C393.663 627.553 377.659 645.671 366.501 666.741C355.343 687.811 349.35 711.23 349.015 735.07C347.825 818.29 416.205 887.8 499.435 887.95C531.506 888.013 562.759 877.841 588.65 858.916C614.541 839.99 633.718 813.297 643.391 782.721C653.065 752.144 652.73 719.278 642.436 688.905C632.142 658.532 612.426 632.235 586.155 613.84C582.739 611.455 579.948 608.283 578.018 604.591C576.087 600.899 575.075 596.796 575.065 592.63V188.29C575.065 178.392 573.115 168.591 569.326 159.447C565.536 150.303 559.982 141.996 552.981 134.999C545.98 128.002 537.668 122.454 528.522 118.671C519.376 114.888 509.573 112.944 499.675 112.95V112.95Z" fill="#68BDED"/>
<path d="M424.345 544V592.64C424.329 596.816 423.307 600.926 421.366 604.623C419.425 608.32 416.623 611.495 413.195 613.88C393.663 627.553 377.659 645.671 366.501 666.741C355.343 687.811 349.35 711.23 349.015 735.07C347.825 818.29 416.205 887.8 499.435 887.95C531.506 888.013 562.759 877.841 588.65 858.916C614.541 839.99 633.718 813.297 643.391 782.721C653.065 752.144 652.73 719.278 642.436 688.905C632.142 658.532 612.426 632.235 586.155 613.84C582.739 611.455 579.948 608.282 578.018 604.59C576.087 600.899 575.075 596.796 575.065 592.63V544H424.345Z" fill="#DB4C4C"/>
<path d="M499.684 902.95H499.354C455.104 902.87 413.354 885.19 381.894 853.19C350.434 821.19 333.434 779.14 334.014 734.86C334.439 708.662 341.05 682.935 353.309 659.778C365.568 636.621 383.127 616.69 404.554 601.61C406.018 600.607 407.217 599.265 408.049 597.697C408.882 596.13 409.323 594.385 409.334 592.61V188.29C409.209 176.348 411.452 164.498 415.936 153.428C420.419 142.358 427.053 132.287 435.454 123.797C443.855 115.307 453.856 108.568 464.878 103.968C475.901 99.3683 487.726 97 499.669 97C511.613 97 523.438 99.3683 534.46 103.968C545.483 108.568 555.484 115.307 563.885 123.797C572.285 132.287 578.919 142.358 583.403 153.428C587.886 164.498 590.13 176.348 590.004 188.29V592.63C590.019 594.387 590.455 596.114 591.274 597.668C592.094 599.221 593.273 600.556 594.714 601.56C623.572 621.77 645.236 650.653 656.561 684.014C667.886 717.375 668.281 753.477 657.69 787.078C647.099 820.679 626.072 850.029 597.664 870.866C569.256 891.703 534.945 902.942 499.714 902.95H499.684ZM499.684 127.95C483.686 127.966 468.348 134.329 457.035 145.641C445.723 156.954 439.36 172.292 439.344 188.29V592.64C439.324 599.224 437.721 605.706 434.67 611.54C431.62 617.374 427.21 622.388 421.814 626.16C404.26 638.507 389.874 654.829 379.829 673.795C369.784 692.76 364.365 713.832 364.014 735.29C363.494 771.48 377.444 805.88 403.274 832.15C429.104 858.42 463.274 872.88 499.414 872.95H499.684C528.54 872.95 556.645 863.75 579.915 846.686C603.185 829.622 620.409 805.584 629.085 778.063C637.76 750.542 637.436 720.972 628.158 693.648C618.881 666.324 601.133 642.669 577.494 626.12C572.109 622.349 567.71 617.337 564.667 611.509C561.625 605.68 560.029 599.205 560.014 592.63V188.29C559.996 172.293 553.633 156.956 542.321 145.644C531.009 134.332 515.672 127.969 499.674 127.95H499.684Z" fill="#48484A"/>
<path d="M642.883 559.141H591.023C587.045 559.141 583.23 557.56 580.417 554.747C577.604 551.934 576.023 548.119 576.023 544.141C576.023 540.162 577.604 536.347 580.417 533.534C583.23 530.721 587.045 529.141 591.023 529.141H642.883C646.862 529.141 650.677 530.721 653.49 533.534C656.303 536.347 657.883 540.162 657.883 544.141C657.883 548.119 656.303 551.934 653.49 554.747C650.677 557.56 646.862 559.141 642.883 559.141Z" fill="#48484A"/>
<path d="M639.614 358.29H587.754C583.776 358.29 579.96 356.71 577.147 353.897C574.334 351.084 572.754 347.268 572.754 343.29C572.754 339.312 574.334 335.496 577.147 332.683C579.96 329.87 583.776 328.29 587.754 328.29H639.614C643.592 328.29 647.407 329.87 650.22 332.683C653.034 335.496 654.614 339.312 654.614 343.29C654.614 347.268 653.034 351.084 650.22 353.897C647.407 356.71 643.592 358.29 639.614 358.29V358.29Z" fill="#48484A"/>
<path d="M639.614 257.79H587.754C585.784 257.79 583.834 257.402 582.014 256.648C580.194 255.894 578.54 254.79 577.147 253.397C575.754 252.004 574.65 250.35 573.896 248.53C573.142 246.71 572.754 244.76 572.754 242.79C572.754 240.82 573.142 238.87 573.896 237.05C574.65 235.23 575.754 233.576 577.147 232.183C578.54 230.791 580.194 229.686 582.014 228.932C583.834 228.178 585.784 227.79 587.754 227.79H639.614C641.584 227.79 643.534 228.178 645.354 228.932C647.174 229.686 648.828 230.791 650.22 232.183C651.613 233.576 652.718 235.23 653.472 237.05C654.226 238.87 654.614 240.82 654.614 242.79C654.614 244.76 654.226 246.71 653.472 248.53C652.718 250.35 651.613 252.004 650.22 253.397C648.828 254.79 647.174 255.894 645.354 256.648C643.534 257.402 641.584 257.79 639.614 257.79V257.79Z" fill="#48484A"/>
<path d="M639.575 458.69H587.715C583.737 458.69 579.921 457.11 577.108 454.297C574.295 451.484 572.715 447.669 572.715 443.69C572.715 439.712 574.295 435.897 577.108 433.084C579.921 430.271 583.737 428.69 587.715 428.69H639.575C643.553 428.69 647.368 430.271 650.181 433.084C652.995 435.897 654.575 439.712 654.575 443.69C654.575 447.669 652.995 451.484 650.181 454.297C647.368 457.11 643.553 458.69 639.575 458.69Z" fill="#48484A"/>
<path d="M457.955 656.921C429.785 675.431 412.295 707.381 412.295 744.681Z" fill="white"/>
<path d="M412.294 759.681C408.316 759.681 404.501 758.1 401.688 755.287C398.875 752.474 397.294 748.659 397.294 744.681C397.201 724.522 402.005 704.642 411.294 686.751C420.328 669.617 433.548 655.045 449.724 644.391C451.369 643.251 453.226 642.451 455.185 642.04C457.143 641.629 459.164 641.613 461.129 641.995C463.094 642.377 464.962 643.148 466.624 644.263C468.286 645.378 469.709 646.814 470.807 648.487C471.905 650.16 472.658 652.036 473.02 654.004C473.383 655.973 473.347 657.994 472.916 659.948C472.486 661.903 471.668 663.751 470.512 665.385C469.356 667.019 467.884 668.404 466.184 669.461C441.474 685.701 427.294 713.111 427.294 744.681C427.294 748.659 425.714 752.474 422.901 755.287C420.088 758.1 416.273 759.681 412.294 759.681Z" fill="white"/>
<path d="M472.514 590.29C468.535 590.29 464.72 588.71 461.907 585.897C459.094 583.084 457.514 579.268 457.514 575.29V194.49C457.514 190.512 459.094 186.697 461.907 183.884C464.72 181.071 468.535 179.49 472.514 179.49C476.492 179.49 480.307 181.071 483.12 183.884C485.933 186.697 487.514 190.512 487.514 194.49V575.29C487.514 579.268 485.933 583.084 483.12 585.897C480.307 588.71 476.492 590.29 472.514 590.29V590.29Z" fill="white"/>
<path d="M557.205 821.73C585.385 803.23 602.875 771.28 602.875 733.98Z" fill="white"/>
<path d="M557.224 836.73C553.994 836.735 550.849 835.696 548.256 833.769C545.664 831.842 543.763 829.129 542.836 826.035C541.909 822.941 542.006 819.63 543.112 816.595C544.218 813.56 546.274 810.963 548.974 809.19C573.694 792.96 587.874 765.54 587.874 733.98C587.874 730.002 589.455 726.187 592.268 723.374C595.081 720.561 598.896 718.98 602.874 718.98C606.852 718.98 610.668 720.561 613.481 723.374C616.294 726.187 617.874 730.002 617.874 733.98C617.966 754.136 613.162 774.012 603.874 791.9C594.837 809.044 581.615 823.625 565.434 834.29C562.995 835.889 560.14 836.737 557.224 836.73V836.73Z" fill="#48484A"/>
</svg>
