<svg width="1000" height="1000" viewBox="0 0 1000 1000" fill="none" xmlns="http://www.w3.org/2000/svg">
  <path d="M101.931 465.62C136.231 458.33 152.281 488.71 197.461 492.11C236.001 495 238.351 473.959 280.781 474.639C331.661 475.439 333.781 505.79 373.501 502.86C418.121 499.56 430.501 460.249 492.661 455.059C502.023 454.131 511.458 454.222 520.801 455.329C570.801 461.419 579.801 492.959 615.401 501.509C657.401 511.579 664.971 472.619 728.281 471.949C775.281 471.449 780.281 492.859 821.001 485.389C855.601 479.039 870.001 460.31 897.401 466C904.813 467.59 911.855 470.576 918.151 474.799C924.387 478.943 929.499 484.566 933.031 491.168C936.563 497.769 938.404 505.143 938.391 512.63V864.059C938.391 872.016 935.23 879.647 929.604 885.273C923.978 890.899 916.347 894.059 908.391 894.059H91.0006C83.0441 894.059 75.4135 890.899 69.7874 885.273C64.1613 879.647 61.0006 872.016 61.0006 864.059V512.269C60.9623 504.968 62.701 497.767 66.0669 491.288C69.4328 484.809 74.3248 479.246 80.3206 475.079C86.8357 470.543 94.1777 467.329 101.931 465.62Z" fill="#78CEFF" />
  <path d="M908.391 909.06H91.0008C79.066 909.06 67.6201 904.319 59.181 895.88C50.7418 887.441 46.0007 875.995 46.0007 864.06V512.27C45.9529 502.528 48.2823 492.922 52.7869 484.284C57.2915 475.646 63.8353 468.237 71.8508 462.7C79.9921 457.049 89.1666 453.056 98.8508 450.95C122.191 445.95 138.851 454.51 154.851 462.74C167.361 469.15 180.291 475.74 198.571 477.15C214.141 478.32 221.501 475.01 231.681 470.44C242.771 465.44 256.581 459.25 281.001 459.64C311.261 460.12 327.271 470.02 340.141 477.99C350.831 484.6 357.891 488.99 372.381 487.9C388.981 486.67 400.151 479.21 414.281 469.76C431.971 457.94 453.981 443.23 491.401 440.12C501.779 439.104 512.236 439.211 522.591 440.44C555.011 444.44 573.151 458.32 587.731 469.52C597.821 477.27 606.551 483.97 618.871 486.93C633.871 490.53 641.731 486.07 655.951 477.98C672.121 468.78 692.241 457.33 728.101 456.98C752.921 456.68 767.851 462.09 779.851 466.41C792.381 470.92 800.661 473.89 818.281 470.66C830.871 468.35 840.531 464.13 849.871 460.05C864.531 453.65 879.681 447.05 900.431 451.34C909.719 453.316 918.544 457.05 926.431 462.34C934.753 467.833 941.578 475.311 946.291 484.098C951.005 492.886 953.458 502.708 953.431 512.68V864.11C953.417 876.043 948.665 887.482 940.219 895.912C931.772 904.341 920.324 909.071 908.391 909.06V909.06ZM112.391 479.49C109.929 479.5 107.475 479.771 105.071 480.3V480.3C99.2336 481.597 93.7087 484.03 88.8107 487.46C84.8222 490.244 81.5729 493.958 79.3442 498.281C77.1155 502.605 75.9747 507.406 76.0208 512.27V864.06C76.0208 868.038 77.6011 871.853 80.4141 874.666C83.2272 877.48 87.0426 879.06 91.0208 879.06H908.391C912.369 879.06 916.184 877.48 918.997 874.666C921.81 871.853 923.391 868.038 923.391 864.06V512.63C923.415 507.623 922.194 502.688 919.838 498.27C917.481 493.852 914.063 490.089 909.891 487.32C905.179 484.143 899.905 481.893 894.351 480.69C883.461 478.43 875.731 481.47 861.901 487.52C852.011 491.83 839.721 497.2 823.711 500.14C798.141 504.83 783.711 499.63 769.711 494.61C758.461 490.61 747.811 486.76 728.431 486.95C700.341 487.24 685.321 495.79 670.801 504.05C654.891 513.11 638.441 522.47 611.891 516.05C593.351 511.6 581.211 502.28 569.461 493.26C555.981 482.91 543.251 473.13 518.971 470.17C510.647 469.188 502.24 469.117 493.901 469.96C464.211 472.44 448.061 483.23 430.961 494.66C415.291 505.13 399.091 515.96 374.601 517.77C350.401 519.56 336.601 511 324.361 503.45C313.131 496.45 302.521 489.93 280.531 489.58C262.791 489.31 254.081 493.22 243.991 497.75C232.521 502.91 219.511 508.75 196.331 507.01C172.021 505.18 154.921 496.43 141.191 489.4C129.091 483.26 121.251 479.49 112.371 479.49H112.391Z" fill="#48484A" />
  <path d="M509.25 701.66C647.321 701.66 759.25 589.731 759.25 451.66C759.25 313.589 647.321 201.66 509.25 201.66C371.179 201.66 259.25 313.589 259.25 451.66C259.25 589.731 371.179 701.66 509.25 701.66Z" fill="white" />
  <path d="M509.251 716.67C447.942 716.672 388.529 695.415 341.135 656.522C293.742 617.629 261.3 563.506 249.338 503.375C237.375 443.244 246.633 380.826 275.533 326.755C304.432 272.684 351.186 230.307 407.828 206.844C464.47 183.381 527.495 180.283 586.165 198.079C644.835 215.875 695.519 253.464 729.581 304.44C763.644 355.416 778.977 416.626 772.969 477.64C766.961 538.654 739.983 595.697 696.631 639.05C672.082 663.735 642.88 683.306 610.716 696.629C578.552 709.953 544.065 716.764 509.251 716.67V716.67ZM509.251 216.67C379.671 216.67 274.251 322.09 274.251 451.67C274.251 581.25 379.671 686.67 509.251 686.67C638.831 686.67 744.251 581.24 744.251 451.67C744.251 322.1 638.831 216.67 509.251 216.67Z" fill="#48484A" />
  <path d="M558.91 201.67H458.91V136C458.91 128.044 462.071 120.413 467.697 114.787C473.323 109.161 480.954 106 488.91 106H528.91C536.867 106 544.497 109.161 550.123 114.787C555.75 120.413 558.91 128.044 558.91 136V201.67Z" fill="#C1CDD0" />
  <path d="M573.91 216.67H443.91V136C443.91 124.065 448.651 112.619 457.09 104.18C465.53 95.741 476.975 91 488.91 91H528.91C540.841 91.0132 552.279 95.7584 560.715 104.195C569.152 112.631 573.897 124.069 573.91 136V216.67ZM473.91 186.67H543.91V136C543.91 132.022 542.33 128.206 539.517 125.393C536.704 122.58 532.888 121 528.91 121H488.91C484.932 121 481.117 122.58 478.304 125.393C475.491 128.206 473.91 132.022 473.91 136V186.67Z" fill="#48484A" />
  <path d="M496.82 466.67H418.82C414.842 466.67 411.027 465.09 408.214 462.276C405.401 459.463 403.82 455.648 403.82 451.67C403.82 447.692 405.401 443.876 408.214 441.063C411.027 438.25 414.842 436.67 418.82 436.67H496.82C498.792 436.676 500.745 436.29 502.567 435.534C504.388 434.779 506.041 433.669 507.43 432.27L608.58 331.12C611.393 328.306 615.208 326.725 619.187 326.724C623.165 326.723 626.981 328.302 629.795 331.115C632.609 333.928 634.191 337.743 634.192 341.721C634.193 345.7 632.613 349.516 629.8 352.33L528.64 453.49C524.472 457.682 519.513 461.005 514.051 463.268C508.589 465.53 502.732 466.686 496.82 466.67Z" fill="#48484A" />
  <path d="M304.31 471.959C315.521 471.959 324.61 462.871 324.61 451.659C324.61 440.448 315.521 431.359 304.31 431.359C293.098 431.359 284.01 440.448 284.01 451.659C284.01 462.871 293.098 471.959 304.31 471.959Z" fill="#48484A" />
  <path d="M509.251 267.57C520.462 267.57 529.551 258.481 529.551 247.27C529.551 236.058 520.462 226.97 509.251 226.97C498.04 226.97 488.951 236.058 488.951 247.27C488.951 258.481 498.04 267.57 509.251 267.57Z" fill="#48484A" />
  <path d="M718.581 471.959C729.793 471.959 738.881 462.871 738.881 451.659C738.881 440.448 729.793 431.359 718.581 431.359C707.37 431.359 698.281 440.448 698.281 451.659C698.281 462.871 707.37 471.959 718.581 471.959Z" fill="#48484A" />
  <path d="M509.251 679.63C520.462 679.63 529.551 670.542 529.551 659.33C529.551 648.119 520.462 639.03 509.251 639.03C498.04 639.03 488.951 648.119 488.951 659.33C488.951 670.542 498.04 679.63 509.251 679.63Z" fill="#48484A" />
  <path d="M323.251 378.339C321.01 378.342 318.797 377.836 316.78 376.859C313.203 375.132 310.457 372.056 309.145 368.307C307.833 364.557 308.061 360.44 309.78 356.859C333.14 308.089 368.631 270.859 415.251 246.079C418.761 244.255 422.85 243.892 426.627 245.068C430.404 246.244 433.563 248.865 435.417 252.359C437.271 255.854 437.67 259.939 436.526 263.726C435.382 267.513 432.789 270.695 429.311 272.579C387.901 294.579 357.651 326.349 336.841 369.819C335.614 372.38 333.686 374.54 331.28 376.048C328.874 377.556 326.09 378.351 323.251 378.339Z" fill="white" />
  <path d="M591.01 648.079C587.665 648.073 584.418 646.947 581.785 644.883C579.153 642.819 577.286 639.934 576.481 636.687C575.677 633.44 575.981 630.017 577.345 626.963C578.709 623.908 581.055 621.398 584.01 619.829C625.42 597.829 655.66 566.059 676.48 522.589C678.204 519.001 681.283 516.245 685.039 514.926C688.795 513.608 692.922 513.836 696.51 515.559C700.098 517.283 702.855 520.362 704.173 524.119C705.492 527.875 705.264 532.001 703.54 535.589C680.18 584.359 644.69 621.589 598.07 646.369C595.893 647.512 593.468 648.099 591.01 648.079V648.079Z" fill="#48484A" />
  <path d="M199.17 549.499C166.911 549.564 135.446 539.493 109.22 520.709C107.616 519.565 106.254 518.116 105.211 516.445C104.167 514.774 103.463 512.914 103.139 510.971C102.483 507.046 103.413 503.023 105.725 499.784C108.036 496.546 111.539 494.359 115.463 493.703C119.388 493.048 123.412 493.978 126.65 496.289C138.439 504.726 151.61 511.04 165.57 514.949C184.077 520.062 203.505 520.889 222.38 517.369C226.292 516.641 230.333 517.497 233.614 519.748C236.895 522 239.147 525.462 239.875 529.374C240.603 533.286 239.747 537.327 237.496 540.608C235.244 543.889 231.782 546.141 227.87 546.869C218.404 548.623 208.797 549.504 199.17 549.499V549.499Z" fill="white" />
  <path d="M858.391 859.06H767.191C763.213 859.06 759.398 857.479 756.585 854.666C753.772 851.853 752.191 848.038 752.191 844.06C752.191 840.081 753.772 836.266 756.585 833.453C759.398 830.64 763.213 829.06 767.191 829.06H858.391C862.37 829.06 866.185 827.479 868.998 824.666C871.811 821.853 873.391 818.038 873.391 814.06V745.77C873.391 741.791 874.972 737.976 877.785 735.163C880.598 732.35 884.413 730.77 888.391 730.77C892.37 730.77 896.185 732.35 898.998 735.163C901.811 737.976 903.391 741.791 903.391 745.77V814.06C903.391 825.994 898.65 837.44 890.211 845.879C881.772 854.319 870.326 859.06 858.391 859.06V859.06Z" fill="#48484A" />
</svg>