<svg width="1000" height="1000" viewBox="0 0 1000 1000" fill="none" xmlns="http://www.w3.org/2000/svg">
  <path d="M814.1 903.37H186C174.065 903.37 162.619 898.629 154.18 890.19C145.741 881.751 141 870.305 141 858.37V142C141 130.065 145.741 118.619 154.18 110.18C162.619 101.741 174.065 97 186 97H814.1C826.035 97 837.481 101.741 845.92 110.18C854.359 118.619 859.1 130.065 859.1 142V858.37C859.1 870.305 854.359 881.751 845.92 890.19C837.481 898.629 826.035 903.37 814.1 903.37ZM186 127C182.022 127 178.206 128.58 175.393 131.393C172.58 134.206 171 138.022 171 142V858.37C171 862.348 172.58 866.164 175.393 868.977C178.206 871.79 182.022 873.37 186 873.37H814.1C818.078 873.37 821.894 871.79 824.707 868.977C827.52 866.164 829.1 862.348 829.1 858.37V142C829.1 138.022 827.52 134.206 824.707 131.393C821.894 128.58 818.078 127 814.1 127H186Z" fill="#48484A" />
  <path d="M844.101 500.19C844.101 500.19 695.381 684.19 500.101 500.19C304.821 316.19 156.041 500.19 156.041 500.19V858.37C156.041 866.326 159.202 873.957 164.828 879.583C170.454 885.209 178.085 888.37 186.041 888.37H814.101C822.058 888.37 829.688 885.209 835.314 879.583C840.94 873.957 844.101 866.326 844.101 858.37V500.19C844.101 500.19 695.381 316.19 500.101 500.19C500.051 500.19 664.081 683.46 844.101 500.19Z" fill="#78CEFF" />
  <path d="M814.1 903.37H186C174.065 903.37 162.619 898.629 154.18 890.19C145.741 881.75 141 870.305 141 858.37V494.88L144.33 490.76C146.97 487.49 210.15 410.68 310.12 403.9C374.36 399.55 438.21 425.09 500.05 479.9C561.89 425.12 625.73 399.57 689.98 403.9C789.98 410.68 853.13 487.49 855.77 490.76L859.1 494.88V858.37C859.1 870.305 854.359 881.75 845.92 890.19C837.481 898.629 826.035 903.37 814.1 903.37ZM171 505.82V858.37C171 862.348 172.58 866.163 175.393 868.976C178.206 871.789 182.022 873.37 186 873.37H814.1C818.078 873.37 821.894 871.789 824.707 868.976C827.52 866.163 829.1 862.348 829.1 858.37V536.24C801.25 560.24 752.9 592.24 689.98 596.47C669.696 597.832 649.322 596.232 629.5 591.72C549.61 574.47 495.41 517.33 489.34 510.72C430.87 455.8 371.34 429.93 312.46 433.82C267.46 436.82 230.63 457.04 207.72 473.5C194.42 483.006 182.117 493.834 171 505.82V505.82ZM633.25 561.75C645.646 564.665 658.31 566.29 671.04 566.6C723.74 567.78 774.85 545.24 823.22 499.66C813.666 490.115 803.352 481.363 792.38 473.49C769.47 457.03 732.69 436.79 687.64 433.81C632.64 430.18 577.1 452.5 522.38 500.19C559.1 532.19 596.2 552.77 633.25 561.75V561.75Z" fill="#48484A" />
  <path d="M206 277C202.022 277 198.206 275.42 195.393 272.607C192.58 269.794 191 265.978 191 262V177C191 169.044 194.161 161.413 199.787 155.787C205.413 150.161 213.044 147 221 147H286C289.978 147 293.794 148.58 296.607 151.393C299.42 154.206 301 158.022 301 162C301 165.978 299.42 169.794 296.607 172.607C293.794 175.42 289.978 177 286 177H221V262C221 265.978 219.42 269.794 216.607 272.607C213.794 275.42 209.978 277 206 277V277Z" fill="#48484A" />
  <path d="M209.701 530.62C206.612 530.622 203.598 529.671 201.071 527.897C198.543 526.122 196.625 523.611 195.578 520.705C194.531 517.799 194.406 514.641 195.221 511.662C196.036 508.683 197.751 506.028 200.131 504.06C221.994 485.897 247.354 472.418 274.641 464.46C303.107 456.139 333.043 454.112 362.371 458.52C364.32 458.808 366.193 459.478 367.883 460.49C369.573 461.502 371.047 462.837 372.221 464.419C373.396 466.001 374.247 467.798 374.726 469.709C375.206 471.62 375.304 473.606 375.016 475.555C374.728 477.504 374.058 479.377 373.046 481.067C372.034 482.757 370.699 484.231 369.117 485.406C367.535 486.58 365.738 487.431 363.827 487.911C361.916 488.39 359.93 488.488 357.981 488.2C307.861 480.79 258.601 494.63 219.261 527.2C216.569 529.417 213.188 530.626 209.701 530.62V530.62Z" fill="white" />
  <path d="M586.451 510.88C583.323 510.879 580.273 509.901 577.729 508.081C575.185 506.261 573.273 503.691 572.261 500.731C571.25 497.771 571.189 494.569 572.087 491.573C572.985 488.576 574.798 485.935 577.271 484.02C594.361 470.79 618.491 460.02 647.051 452.74C650.898 451.792 654.963 452.403 658.36 454.441C661.758 456.479 664.211 459.778 665.184 463.619C666.157 467.459 665.572 471.528 663.555 474.938C661.539 478.348 658.255 480.822 654.421 481.82C630.171 487.96 609.291 497.17 595.621 507.75C592.997 509.783 589.771 510.885 586.451 510.88V510.88Z" fill="white" />
  <path d="M835.83 515.19H730.83C726.852 515.19 723.036 513.61 720.223 510.797C717.41 507.984 715.83 504.169 715.83 500.19C715.83 496.212 717.41 492.397 720.223 489.584C723.036 486.771 726.852 485.19 730.83 485.19H835.83C839.808 485.19 843.624 486.771 846.437 489.584C849.25 492.397 850.83 496.212 850.83 500.19C850.83 504.169 849.25 507.984 846.437 510.797C843.624 513.61 839.808 515.19 835.83 515.19Z" fill="#48484A" />
  <path d="M835.831 415.19H783.941C779.963 415.19 776.148 413.61 773.335 410.797C770.522 407.984 768.941 404.169 768.941 400.19C768.941 396.212 770.522 392.397 773.335 389.584C776.148 386.771 779.963 385.19 783.941 385.19H835.831C839.81 385.19 843.625 386.771 846.438 389.584C849.251 392.397 850.831 396.212 850.831 400.19C850.831 404.169 849.251 407.984 846.438 410.797C843.625 413.61 839.81 415.19 835.831 415.19Z" fill="#48484A" />
  <path d="M835.83 315.19H730.83C726.852 315.19 723.036 313.61 720.223 310.797C717.41 307.984 715.83 304.169 715.83 300.19C715.83 296.212 717.41 292.397 720.223 289.584C723.036 286.771 726.852 285.19 730.83 285.19H835.83C839.808 285.19 843.624 286.771 846.437 289.584C849.25 292.397 850.83 296.212 850.83 300.19C850.83 304.169 849.25 307.984 846.437 310.797C843.624 313.61 839.808 315.19 835.83 315.19Z" fill="#48484A" />
  <path d="M835.831 215.19H783.941C779.963 215.19 776.148 213.61 773.335 210.797C770.522 207.984 768.941 204.169 768.941 200.19C768.941 196.212 770.522 192.397 773.335 189.584C776.148 186.771 779.963 185.19 783.941 185.19H835.831C839.81 185.19 843.625 186.771 846.438 189.584C849.251 192.397 850.831 196.212 850.831 200.19C850.831 204.169 849.251 207.984 846.438 210.797C843.625 213.61 839.81 215.19 835.831 215.19Z" fill="#48484A" />
  <path d="M835.831 615.19H783.941C779.963 615.19 776.148 613.61 773.335 610.797C770.522 607.984 768.941 604.169 768.941 600.19C768.941 596.212 770.522 592.397 773.335 589.584C776.148 586.771 779.963 585.19 783.941 585.19H835.831C839.81 585.19 843.625 586.771 846.438 589.584C849.251 592.397 850.831 596.212 850.831 600.19C850.831 604.169 849.251 607.984 846.438 610.797C843.625 613.61 839.81 615.19 835.831 615.19Z" fill="#48484A" />
  <path d="M835.83 715.19H730.83C726.852 715.19 723.036 713.61 720.223 710.797C717.41 707.984 715.83 704.169 715.83 700.19C715.83 696.212 717.41 692.397 720.223 689.584C723.036 686.771 726.852 685.19 730.83 685.19H835.83C839.808 685.19 843.624 686.771 846.437 689.584C849.25 692.397 850.83 696.212 850.83 700.19C850.83 704.169 849.25 707.984 846.437 710.797C843.624 713.61 839.808 715.19 835.83 715.19Z" fill="#48484A" />
  <path d="M835.831 815.19H783.941C779.963 815.19 776.148 813.61 773.335 810.797C770.522 807.984 768.941 804.169 768.941 800.19C768.941 796.212 770.522 792.397 773.335 789.584C776.148 786.771 779.963 785.19 783.941 785.19H835.831C839.81 785.19 843.625 786.771 846.438 789.584C849.251 792.397 850.831 796.212 850.831 800.19C850.831 804.169 849.251 807.984 846.438 810.797C843.625 813.61 839.81 815.19 835.831 815.19Z" fill="#48484A" />
</svg>