<svg width="1000" height="1000" viewBox="0 0 1000 1000" fill="none" xmlns="http://www.w3.org/2000/svg">
<g clip-path="url(#clip0_288_13)">
<path d="M806.462 903H179.231C167.317 902.987 155.894 898.244 147.47 889.811C139.046 881.378 134.309 869.945 134.297 858.02V141.963C134.319 130.045 139.062 118.621 147.485 110.197C155.908 101.773 167.324 97.0355 179.231 97.0225H806.462C818.376 97.0355 829.798 101.779 838.222 110.212C846.646 118.644 851.384 130.078 851.395 142.003V858.06C851.373 869.978 846.631 881.401 838.208 889.825C829.785 898.249 818.369 902.987 806.462 903ZM179.231 126.989C175.26 126.993 171.453 128.574 168.645 131.385C165.837 134.195 164.257 138.006 164.253 141.981V858.038C164.262 862.009 165.844 865.815 168.651 868.622C171.458 871.428 175.263 873.007 179.231 873.012H806.462C810.433 873.007 814.24 871.426 817.047 868.615C819.855 865.805 821.435 861.994 821.44 858.02V141.963C821.43 137.991 819.849 134.185 817.041 131.379C814.234 128.572 810.43 126.993 806.462 126.989H179.231Z" fill="#48484A"/>
<path d="M199.204 276.918C195.232 276.918 191.422 275.338 188.613 272.527C185.804 269.715 184.226 265.902 184.226 261.926V176.947C184.234 169 187.39 161.38 193.002 155.759C198.614 150.137 206.224 146.973 214.164 146.958H279.094C283.022 147.026 286.766 148.636 289.52 151.441C292.274 154.245 293.817 158.02 293.817 161.953C293.817 165.885 292.274 169.66 289.52 172.465C286.766 175.269 283.022 176.879 279.094 176.947H214.182V261.926C214.182 265.902 212.604 269.715 209.795 272.527C206.986 275.338 203.176 276.918 199.204 276.918Z" fill="#48484A"/>
<path d="M202.908 530.413C199.824 530.416 196.815 529.465 194.291 527.692C191.767 525.918 189.851 523.408 188.806 520.504C187.76 517.601 187.635 514.444 188.449 511.467C189.262 508.49 190.974 505.836 193.35 503.869C215.18 485.714 240.502 472.241 267.748 464.287C296.176 455.968 326.071 453.941 355.359 458.347C359.236 458.989 362.705 461.129 365.02 464.306C367.335 467.484 368.31 471.444 367.736 475.334C367.162 479.225 365.084 482.734 361.95 485.105C358.816 487.477 354.876 488.521 350.98 488.013C300.935 480.607 251.729 494.445 212.462 526.974C209.777 529.203 206.396 530.42 202.908 530.413Z" fill="white"/>
<path d="M579.126 510.69C576.004 510.688 572.961 509.709 570.422 507.891C567.883 506.074 565.975 503.507 564.964 500.551C563.954 497.595 563.891 494.396 564.785 491.403C565.68 488.409 567.486 485.77 569.952 483.854C587.026 470.638 611.123 459.828 639.658 452.591C643.51 451.616 647.591 452.212 651.003 454.249C654.415 456.285 656.879 459.595 657.853 463.45C658.828 467.306 658.232 471.39 656.197 474.806C654.163 478.221 650.856 480.688 647.004 481.663C622.79 487.808 601.937 497.013 588.286 507.577C585.662 509.603 582.439 510.698 579.126 510.69Z" fill="white"/>
<path d="M163.929 403.201H821.768V858.368C821.768 866.652 815.052 873.368 806.768 873.368H178.929C170.645 873.368 163.929 866.652 163.929 858.368V403.201Z" fill="#78CEFF"/>
</g>
<rect x="93" y="374" width="789.972" height="29" rx="14.5" fill="#FF0000"/>
<rect x="261" y="619" width="463.794" height="30" rx="15" fill="white"/>
<rect x="261" y="547" width="463.794" height="30" rx="15" fill="white"/>
<rect x="261" y="475" width="463.794" height="30" rx="15" fill="white"/>
<rect x="261" y="691" width="463.794" height="30" rx="15" fill="white"/>
<rect x="261" y="763" width="463.794" height="30" rx="15" fill="white"/>
<defs>
<clipPath id="clip0_288_13">
<rect width="717.103" height="806" fill="white" transform="translate(134.297 97)"/>
</clipPath>
</defs>
</svg>
